<?xml version="1.0" encoding="utf-8"?>
<!-- Generator: Adobe Illustrator 27.5.0, SVG Export Plug-In . SVG Version: 6.00 Build 0)  -->
<svg version="1.1" xmlns="http://www.w3.org/2000/svg" xmlns:xlink="http://www.w3.org/1999/xlink" x="0px" y="0px"
	 viewBox="0 0 500 500" style="enable-background:new 0 0 500 500;" xml:space="preserve">
<g id="BACKGROUND">
	<rect style="fill:#FFFFFF;" width="500" height="500"/>
</g>
<g id="OBJECTS">
	<g>
		<g>
			<text transform="matrix(1 0 0 1 175.7904 444.2513)" style="font-family:'Montserrat-Regular'; font-size:9.9599px;">Capricorn</text>
		</g>
		<g>
			<path style="fill:none;stroke:#000000;stroke-width:0.6;stroke-linecap:round;stroke-linejoin:round;stroke-miterlimit:10;" d="
				M178.857,369.026c5.081,2.602,7.19,8.363,7.957,14.018c0.097,0.679,0.168,1.35,0.221,2.02c0.556,6.51-0.459,12.342-0.459,12.342"
				/>
			<path style="fill:none;stroke:#000000;stroke-width:0.6;stroke-linecap:round;stroke-linejoin:round;stroke-miterlimit:10;" d="
				M186.816,383.041c0,0-2.713-3.327-7.507-2.503"/>
			<path style="fill:none;stroke:#000000;stroke-width:0.6;stroke-linecap:round;stroke-linejoin:round;stroke-miterlimit:10;" d="
				M180.97,380.406c0,0-0.473,4.755,6.068,4.66"/>
			<path style="fill:none;stroke:#000000;stroke-width:0.6;stroke-linecap:round;stroke-linejoin:round;stroke-miterlimit:10;" d="
				M206.63,406.879c-0.642,1.277-2.778,0.708-3.419,2.633c-0.642,1.924-3.062,1.779-3.062,1.779s-2.421,0.145-3.062-1.779
				c-0.641-1.924-2.778-1.355-3.419-2.633c-0.636-1.283,0-1.283,0-1.283l6.482,0.357l6.482-0.357
				C206.63,405.596,207.271,405.596,206.63,406.879z"/>
			<path style="fill:none;stroke:#000000;stroke-width:0.6;stroke-linecap:round;stroke-linejoin:round;stroke-miterlimit:10;" d="
				M223.54,376.515c-0.009,0-0.009,0-0.009,0"/>
			<path style="fill:none;stroke:#000000;stroke-width:0.6;stroke-linecap:round;stroke-linejoin:round;stroke-miterlimit:10;" d="
				M240.601,363.874c0,0-0.168,0.053-0.953,0.265c-1.023,0.273-3.061,0.803-7.093,1.8c-6.925,1.712-9.669,6.017-9.854,6.334
				c-0.335-1.12-0.75-2.197-1.244-3.229c0.221-0.547,2.161-4.905,8.178-5.17c4.384-0.203,7.904-0.123,9.686-0.062
				C240.151,363.847,240.601,363.874,240.601,363.874z"/>
			<path style="fill:none;stroke:#000000;stroke-width:0.6;stroke-linecap:round;stroke-linejoin:round;stroke-miterlimit:10;" d="
				M221.458,369.043c-0.009,0.035-0.018,0.053-0.018,0.053c-5.073,2.602-7.181,8.354-7.948,14.009
				c-0.097,0.679-0.168,1.367-0.221,2.038h-0.009c-0.547,6.502,0.467,12.333,0.467,12.333"/>
			<path style="fill:none;stroke:#000000;stroke-width:0.6;stroke-linecap:round;stroke-linejoin:round;stroke-miterlimit:10;" d="
				M222.702,372.272c-0.018,0.009-0.018,0.018-0.018,0.018"/>
			<path style="fill:none;stroke:#000000;stroke-width:0.6;stroke-linecap:round;stroke-linejoin:round;stroke-miterlimit:10;" d="
				M213.484,383.116c0,0,2.713-3.327,7.508-2.504"/>
			<path style="fill:none;stroke:#000000;stroke-width:0.6;stroke-linecap:round;stroke-linejoin:round;stroke-miterlimit:10;" d="
				M219.33,380.481c0,0,0.473,4.755-6.067,4.66"/>
			<path style="fill:none;stroke:#000000;stroke-width:0.6;stroke-linecap:round;stroke-linejoin:round;stroke-miterlimit:10;" d="
				M208.91,414.869c0,0-6.468,2.157-8.759-1.009l-0.002-0.075c-2.291,3.167-8.759,1.01-8.759,1.01"/>
			
				<line style="fill:none;stroke:#000000;stroke-width:0.6;stroke-linecap:round;stroke-linejoin:round;stroke-miterlimit:10;" x1="200.152" y1="413.859" x2="200.152" y2="411.292"/>
			<path style="fill:none;stroke:#000000;stroke-width:0.6;stroke-linecap:round;stroke-linejoin:round;stroke-miterlimit:10;" d="
				M177.614,372.21c-0.415,1.358-0.697,2.779-0.847,4.234c0,0-3.785,0.794-8.081-0.406c-0.741-0.203-1.5-0.467-2.249-0.812
				c-0.494-0.212-0.979-0.467-1.464-0.75c-4.093-2.417-5.011-7.075-5.214-9.36c-0.071-0.812-0.053-1.323-0.053-1.323
				s0.168,0.053,1.006,0.282c1.032,0.273,3.07,0.794,7.04,1.782C174.941,367.641,177.614,372.21,177.614,372.21z"/>
			<path style="fill:none;stroke:#000000;stroke-width:0.6;stroke-linecap:round;stroke-linejoin:round;stroke-miterlimit:10;" d="
				M178.857,369.026c-0.494,1.023-0.909,2.082-1.244,3.185c0,0-2.673-4.57-9.863-6.352c-3.97-0.988-6.008-1.508-7.04-1.782
				c-0.838-0.229-1.006-0.282-1.006-0.282s0.476-0.026,1.35-0.062c1.808-0.062,5.284-0.132,9.616,0.062
				C177.075,364.077,178.857,369.026,178.857,369.026z"/>
			<path style="fill:none;stroke:#000000;stroke-width:0.6;stroke-linecap:round;stroke-linejoin:round;stroke-miterlimit:10;" d="
				M213.732,397.403v0.07c0.06,0.73,0.09,1.48,0.09,2.23c0,1.18-0.07,2.34-0.22,3.47c-0.58,4.7-2.32,8.82-4.79,11.73
				c-2.35,2.79-5.37,4.46-8.66,4.46c-3.33,0-6.39-1.72-8.76-4.57c-2.42-2.91-4.13-7.01-4.7-11.66c-0.14-1.11-0.21-2.26-0.21-3.43
				c0-0.78,0.03-1.55,0.09-2.3c-6-4.14-9.92-10.96-9.92-18.68c0-0.77,0.03-1.53,0.11-2.28c0.15-1.45,0.44-2.87,0.85-4.23
				c0.34-1.11,0.75-2.16,1.24-3.19c0.66-1.37,1.47-2.68,2.38-3.89c0.56-0.73,1.15-1.43,1.78-2.09c0.15-0.15,0.3-0.3,0.45-0.44
				c2.41-2.37,5.32-4.22,8.59-5.39c2.01-0.72,4.15-1.17,6.38-1.33c0.57-0.04,1.14-0.06,1.72-0.06c0.58,0,1.15,0.02,1.72,0.06
				c2.22,0.16,4.36,0.61,6.37,1.33h0.01c3.25,1.17,6.18,3.02,8.58,5.38c0.15,0.14,0.3,0.3,0.45,0.45c0.64,0.66,1.23,1.36,1.79,2.09
				c0.92,1.22,1.72,2.53,2.39,3.91c0.49,1.03,0.9,2.11,1.24,3.23c0.41,1.37,0.7,2.79,0.84,4.24c0.08,0.73,0.11,1.47,0.11,2.21
				C223.652,386.443,219.732,393.263,213.732,397.403z"/>
			<path style="fill:none;stroke:#000000;stroke-width:0.6;stroke-linecap:round;stroke-linejoin:round;stroke-miterlimit:10;" d="
				M240.557,365.126c-0.194,2.258-1.094,6.978-5.231,9.422c-0.494,0.291-0.988,0.547-1.491,0.767
				c-0.759,0.344-1.526,0.609-2.276,0.812c-4.146,1.147-7.807,0.432-8.019,0.388c-0.141-1.456-0.423-2.876-0.838-4.243
				c0.185-0.318,2.929-4.622,9.854-6.334c4.032-0.997,6.069-1.526,7.093-1.8c0.785-0.212,0.953-0.265,0.953-0.265
				S240.619,364.359,240.557,365.126z"/>
			<path style="fill:none;stroke:#000000;stroke-width:0.6;stroke-linecap:round;stroke-linejoin:round;stroke-miterlimit:10;" d="
				M213.832,415.373c-2.17,3.57-4.86,5.75-4.86,5.75l1.04-2.44c0,0-6.12,5.49-6.42,7.28c0,0-0.3-1.72,0-2.85c0,0-1.2,1.26-2.09,2.85
				c-0.91,1.58-1.35,2.84-1.35,2.84v-0.03c0,0-0.45-1.26-1.34-2.85c-0.9-1.59-2.09-2.84-2.09-2.84c0.29,1.12,0,2.84,0,2.84
				c-0.31-1.79-6.44-7.28-6.44-7.28l1.05,2.45c0,0-2.69-2.18-4.86-5.76c-2.17-3.57,0.11-12.28,0.11-12.28l0.11,0.08
				c0.57,4.65,2.28,8.75,4.7,11.66c2.37,2.85,5.43,4.57,8.76,4.57c3.29,0,6.31-1.67,8.66-4.46c2.47-2.91,4.21-7.03,4.79-11.73
				l0.12-0.08C213.722,403.093,216.002,411.793,213.832,415.373z"/>
			<g>
				<path style="fill:none;stroke:#000000;stroke-width:0.6;stroke-linecap:round;stroke-linejoin:round;stroke-miterlimit:10;" d="
					M252.072,345.383c-0.99,13.65-4.13,15.22-4.13,15.22s0.76-23.36-13.19-21.54c-12.15,1.58-15.12,21.05-15.68,26.07
					c-0.56-0.73-1.15-1.43-1.79-2.09c-0.15-0.15-0.3-0.31-0.45-0.45c-2.4-2.36-5.33-4.21-8.58-5.38h-0.01
					c-2.01-0.72-4.15-1.17-6.37-1.33c2.23-5.62,9.49-21.39,22.73-27.78C240.842,320.253,253.063,331.733,252.072,345.383z"/>
				<path style="fill:none;stroke:#000000;stroke-width:0.6;stroke-linecap:round;stroke-linejoin:round;stroke-miterlimit:10;" d="
					M198.432,355.883c-2.23,0.16-4.37,0.61-6.38,1.33c-3.27,1.17-6.18,3.02-8.59,5.39c-0.15,0.14-0.3,0.29-0.45,0.44
					c-0.63,0.66-1.22,1.36-1.78,2.09c-0.56-5.02-3.53-24.49-15.68-26.07c-13.95-1.82-13.19,21.54-13.19,21.54s-3.14-1.57-4.13-15.22
					c-0.99-13.65,11.23-25.13,27.47-17.28C188.942,334.493,196.202,350.263,198.432,355.883z"/>
			</g>
			
				<line style="fill:none;stroke:#000000;stroke-width:0.6;stroke-linecap:round;stroke-linejoin:round;stroke-miterlimit:10;" x1="206.63" y1="405.596" x2="213.484" y2="383.116"/>
			
				<line style="fill:none;stroke:#000000;stroke-width:0.6;stroke-linecap:round;stroke-linejoin:round;stroke-miterlimit:10;" x1="193.667" y1="405.596" x2="186.816" y2="383.041"/>
			<g>
				<path style="fill:none;stroke:#000000;stroke-width:0.6;stroke-linecap:round;stroke-linejoin:round;stroke-miterlimit:10;" d="
					M206.915,345.703c0,0,11.825-1.552,15.019,6.766"/>
				<path style="fill:none;stroke:#000000;stroke-width:0.6;stroke-linecap:round;stroke-linejoin:round;stroke-miterlimit:10;" d="
					M222.684,329.12c0,0,10.787-1.27,10.53,10.263"/>
				<path style="fill:none;stroke:#000000;stroke-width:0.6;stroke-linecap:round;stroke-linejoin:round;stroke-miterlimit:10;" d="
					M249.56,334.007c0,0,1.136,9.679-5.201,9.826"/>
			</g>
			<g>
				<path style="fill:none;stroke:#000000;stroke-width:0.6;stroke-linecap:round;stroke-linejoin:round;stroke-miterlimit:10;" d="
					M193.338,345.703c0,0-11.825-1.552-15.019,6.766"/>
				<path style="fill:none;stroke:#000000;stroke-width:0.6;stroke-linecap:round;stroke-linejoin:round;stroke-miterlimit:10;" d="
					M177.569,329.12c0,0-10.787-1.27-10.53,10.263"/>
				<path style="fill:none;stroke:#000000;stroke-width:0.6;stroke-linecap:round;stroke-linejoin:round;stroke-miterlimit:10;" d="
					M150.693,334.007c0,0-1.136,9.679,5.201,9.826"/>
			</g>
		</g>
	</g>
	<g>
		<text transform="matrix(1 0 0 1 60.1568 444.2507)" style="font-family:'Montserrat-Regular'; font-size:9.9599px;">Sagittarius</text>
		<g>
			
				<line style="fill:none;stroke:#000000;stroke-width:0.6;stroke-linecap:round;stroke-linejoin:round;stroke-miterlimit:10;" x1="52.811" y1="414.013" x2="114.361" y2="352.469"/>
			
				<polygon style="fill:none;stroke:#000000;stroke-width:0.6;stroke-linecap:round;stroke-linejoin:round;stroke-miterlimit:10;" points="
				116.15,358.439 114.361,352.469 108.385,350.674 119.463,347.367 			"/>
			
				<polygon style="fill:none;stroke:#000000;stroke-width:0.6;stroke-linecap:round;stroke-linejoin:round;stroke-miterlimit:10;" points="
				52.811,414.013 45.912,414.402 41.02,419.294 47.919,418.905 47.529,425.803 52.422,420.911 			"/>
			<path style="fill:none;stroke:#000000;stroke-width:0.6;stroke-linecap:round;stroke-linejoin:round;stroke-miterlimit:10;" d="
				M132.817,406.617c0,0-12.2-8.84-17.629-21.288c-3.837-8.808-4.82-13.846-7.975-18.946c-1.69-2.732-4.044-5.088-6.775-6.778
				c-5.093-3.152-10.127-4.132-18.943-7.969c-12.448-5.428-21.288-17.629-21.288-17.629s11.451,10.841,28.932,13.972
				c10.059,1.804,15.738,5.892,18.748,9.041c0.649,0.679,1.315,1.338,1.99,1.99c3.141,3.037,7.181,8.705,8.969,18.675
				C121.976,395.166,132.817,406.617,132.817,406.617z"/>
			<path style="fill:none;stroke:#000000;stroke-width:0.6;stroke-linecap:round;stroke-linejoin:round;stroke-miterlimit:10;" d="
				M125.488,400.091c0,0-43.605,15.633-68.532,9.778c-5.855-24.927,9.778-68.533,9.778-68.533"/>
			
				<circle style="fill:#FFFFFF;stroke:#000000;stroke-width:0.6;stroke-linecap:round;stroke-linejoin:round;stroke-miterlimit:10;" cx="54.935" cy="411.889" r="1.467"/>
			
				<circle style="fill:#FFFFFF;stroke:#000000;stroke-width:0.6;stroke-linecap:round;stroke-linejoin:round;stroke-miterlimit:10;" cx="58.1" cy="408.73" r="1.467"/>
			
				<circle style="fill:#FFFFFF;stroke:#000000;stroke-width:0.6;stroke-linecap:round;stroke-linejoin:round;stroke-miterlimit:10;" cx="61.265" cy="405.572" r="1.467"/>
			
				<line style="fill:none;stroke:#000000;stroke-width:0.6;stroke-linecap:round;stroke-linejoin:round;stroke-miterlimit:10;" x1="47.919" y1="418.905" x2="52.811" y2="414.013"/>
			
				<polyline style="fill:none;stroke:#000000;stroke-width:0.6;stroke-linecap:round;stroke-linejoin:round;stroke-miterlimit:10;" points="
				50.365,422.968 50.365,416.459 43.856,416.459 			"/>
		</g>
	</g>
	<g>
		<text transform="matrix(1 0 0 1 399.182 444.2509)" style="font-family:'Montserrat-Regular'; font-size:9.9599px;">Pisces</text>
		<g>
			<g>
				<g>
					<g>
						
							<path style="fill:none;stroke:#000000;stroke-width:0.6;stroke-linecap:round;stroke-linejoin:round;stroke-miterlimit:10;" d="
							M442.685,384.007c0,0,3.807-5.613,2.811-15.416c-0.995-9.803-4.668-18.479-10.599-22.672
							c-5.931-4.193-16.62-9.953-30.62-3.934c-14,6.02-12.844,16.621-12.844,16.621s1.199,1.621,4.884,0.65
							c0,0,4.389-7.523,12.83-7.07c8.441,0.453,11.789,9.824,15.171,17.283c3.382,7.458,12.211,14.087,16.142,14.72l-0.602-2.243
							C439.859,381.947,441.169,383.973,442.685,384.007z"/>
						
							<path style="fill:none;stroke:#000000;stroke-width:0.6;stroke-linecap:round;stroke-linejoin:round;stroke-miterlimit:10;" d="
							M445.368,367.457c0,0-11.059-1.754-17.427,7.644"/>
						
							<path style="fill:none;stroke:#000000;stroke-width:0.6;stroke-linecap:round;stroke-linejoin:round;stroke-miterlimit:10;" d="
							M440.891,375.146c-0.608,0.05-1.141-0.402-1.19-1.01c-0.05-0.607,0.402-1.141,1.01-1.19c0.608-0.05,1.141,0.402,1.191,1.01
							C441.951,374.563,441.498,375.096,440.891,375.146z"/>
						
							<path style="fill:none;stroke:#000000;stroke-width:0.6;stroke-linecap:round;stroke-linejoin:round;stroke-miterlimit:10;" d="
							M396.318,359.257c0,0,0.288,3.415,2.846,5.879c2.558,2.464,4.97,2.521,4.97,2.521s-4.724,7.455-10.644,0.492
							c0,0-5.557,5.422-11.716,0.77c0,0,9.228-4.705,9.659-10.311"/>
						
							<path style="fill:none;stroke:#000000;stroke-width:0.6;stroke-linecap:round;stroke-linejoin:round;stroke-miterlimit:10;" d="
							M393.622,359.542c0,0-1.202,4.873-0.132,8.606"/>
						
							<path style="fill:none;stroke:#000000;stroke-width:0.6;stroke-linecap:round;stroke-linejoin:round;stroke-miterlimit:10;" d="
							M402.459,369.535c0,0-7.497,0.495-7.639-10.003"/>
						
							<path style="fill:none;stroke:#000000;stroke-width:0.6;stroke-linecap:round;stroke-linejoin:round;stroke-miterlimit:10;" d="
							M392.559,359.319c0,0-0.595,11.183-10.785,9.6"/>
						
							<path style="fill:none;stroke:#000000;stroke-width:0.6;stroke-linecap:round;stroke-linejoin:round;stroke-miterlimit:10;" d="
							M424.319,369.47c0,0-3.789,0.769-6.371-1.206c-2.581-1.975-4.596-9.45-4.596-9.45s4.825,1.887,6.115,0.672"/>
						
							<path style="fill:none;stroke:#000000;stroke-width:0.6;stroke-linecap:round;stroke-linejoin:round;stroke-miterlimit:10;" d="
							M423.573,367.802c0,0-2.21,0.788-6.736-0.747"/>
						
							<path style="fill:none;stroke:#000000;stroke-width:0.6;stroke-linecap:round;stroke-linejoin:round;stroke-miterlimit:10;" d="
							M422.211,364.762c0,0-3.784,0.635-6.946-0.568"/>
						
							<path style="fill:none;stroke:#000000;stroke-width:0.6;stroke-linecap:round;stroke-linejoin:round;stroke-miterlimit:10;" d="
							M420.637,361.544c0,0-3.644,1.529-6.521-0.291"/>
						
							<path style="fill:none;stroke:#000000;stroke-width:0.6;stroke-linecap:round;stroke-linejoin:round;stroke-miterlimit:10;" d="
							M441.024,353.106c0,0,1.427-4.894-0.225-9.82c-1.651-4.926-8.316-10.492-12.252-10.742c0,0-1.076,7.042-4.765,7.879"/>
						
							<path style="fill:none;stroke:#000000;stroke-width:0.6;stroke-linecap:round;stroke-linejoin:round;stroke-miterlimit:10;" d="
							M440.228,341.929c0,0,0.234,6.437-1.235,8.027"/>
						
							<path style="fill:none;stroke:#000000;stroke-width:0.6;stroke-linecap:round;stroke-linejoin:round;stroke-miterlimit:10;" d="
							M437.699,338.296c0,0,0.048,5.774-1.606,8.556"/>
						
							<path style="fill:none;stroke:#000000;stroke-width:0.6;stroke-linecap:round;stroke-linejoin:round;stroke-miterlimit:10;" d="
							M433.654,334.711c0,0,0.785,6.335-1.58,9.358"/>
						
							<path style="fill:none;stroke:#000000;stroke-width:0.6;stroke-linecap:round;stroke-linejoin:round;stroke-miterlimit:10;" d="
							M430.128,332.874c0,0,1.603,5.49-2.147,9.061"/>
					</g>
					
						<path style="fill:none;stroke:#000000;stroke-width:0.6;stroke-linecap:round;stroke-linejoin:round;stroke-miterlimit:10;" d="
						M444.08,360.848c0,0-13.85-1.083-19.373,9.428"/>
					
						<path style="fill:none;stroke:#000000;stroke-width:0.6;stroke-linecap:round;stroke-linejoin:round;stroke-miterlimit:10;" d="
						M392.154,353.737c0,0,0.476,3.242,6.579,2.573"/>
				</g>
			</g>
			<g>
				<g>
					<g>
						
							<path style="fill:none;stroke:#000000;stroke-width:0.6;stroke-linecap:round;stroke-linejoin:round;stroke-miterlimit:10;" d="
							M386.554,377.414c0,0-3.807,5.613-2.811,15.416c0.996,9.803,4.668,18.479,10.599,22.672c5.931,4.193,16.62,9.953,30.62,3.934
							c14-6.02,12.843-16.621,12.843-16.621s-1.199-1.621-4.884-0.65c0,0-4.389,7.523-12.83,7.07
							c-8.441-0.453-11.789-9.825-15.171-17.283c-3.382-7.458-12.211-14.088-16.142-14.72l0.602,2.243
							C389.38,379.475,388.07,377.449,386.554,377.414z"/>
						
							<path style="fill:none;stroke:#000000;stroke-width:0.6;stroke-linecap:round;stroke-linejoin:round;stroke-miterlimit:10;" d="
							M383.871,393.965c0,0,11.059,1.754,17.427-7.644"/>
						
							<path style="fill:none;stroke:#000000;stroke-width:0.6;stroke-linecap:round;stroke-linejoin:round;stroke-miterlimit:10;" d="
							M388.349,386.276c0.607-0.05,1.141,0.402,1.19,1.01c0.05,0.608-0.402,1.141-1.01,1.19c-0.608,0.05-1.141-0.402-1.19-1.01
							C387.289,386.859,387.741,386.326,388.349,386.276z"/>
						
							<path style="fill:none;stroke:#000000;stroke-width:0.6;stroke-linecap:round;stroke-linejoin:round;stroke-miterlimit:10;" d="
							M432.922,402.165c0,0-0.288-3.415-2.846-5.879c-2.558-2.464-4.97-2.521-4.97-2.521s4.724-7.455,10.644-0.492
							c0,0,5.557-5.422,11.716-0.771c0,0-9.228,4.705-9.659,10.311"/>
						
							<path style="fill:none;stroke:#000000;stroke-width:0.6;stroke-linecap:round;stroke-linejoin:round;stroke-miterlimit:10;" d="
							M435.617,401.88c0,0,1.202-4.873,0.132-8.606"/>
						
							<path style="fill:none;stroke:#000000;stroke-width:0.6;stroke-linecap:round;stroke-linejoin:round;stroke-miterlimit:10;" d="
							M426.781,391.887c0,0,7.497-0.495,7.639,10.003"/>
						
							<path style="fill:none;stroke:#000000;stroke-width:0.6;stroke-linecap:round;stroke-linejoin:round;stroke-miterlimit:10;" d="
							M436.681,402.103c0,0,0.595-11.183,10.785-9.6"/>
						
							<path style="fill:none;stroke:#000000;stroke-width:0.6;stroke-linecap:round;stroke-linejoin:round;stroke-miterlimit:10;" d="
							M404.921,391.952c0,0,3.789-0.769,6.37,1.206c2.582,1.975,4.596,9.45,4.596,9.45s-4.825-1.887-6.115-0.672"/>
						
							<path style="fill:none;stroke:#000000;stroke-width:0.6;stroke-linecap:round;stroke-linejoin:round;stroke-miterlimit:10;" d="
							M405.666,393.62c0,0,2.21-0.788,6.736,0.747"/>
						
							<path style="fill:none;stroke:#000000;stroke-width:0.6;stroke-linecap:round;stroke-linejoin:round;stroke-miterlimit:10;" d="
							M407.029,396.66c0,0,3.784-0.635,6.946,0.568"/>
						
							<path style="fill:none;stroke:#000000;stroke-width:0.6;stroke-linecap:round;stroke-linejoin:round;stroke-miterlimit:10;" d="
							M408.602,399.878c0,0,3.644-1.529,6.521,0.291"/>
						
							<path style="fill:none;stroke:#000000;stroke-width:0.6;stroke-linecap:round;stroke-linejoin:round;stroke-miterlimit:10;" d="
							M388.216,408.316c0,0-1.427,4.893,0.225,9.82c1.651,4.926,8.316,10.492,12.252,10.742c0,0,1.076-7.042,4.765-7.879"/>
						
							<path style="fill:none;stroke:#000000;stroke-width:0.6;stroke-linecap:round;stroke-linejoin:round;stroke-miterlimit:10;" d="
							M389.011,419.493c0,0-0.234-6.437,1.235-8.027"/>
						
							<path style="fill:none;stroke:#000000;stroke-width:0.6;stroke-linecap:round;stroke-linejoin:round;stroke-miterlimit:10;" d="
							M391.54,423.126c0,0-0.048-5.774,1.606-8.556"/>
						
							<path style="fill:none;stroke:#000000;stroke-width:0.6;stroke-linecap:round;stroke-linejoin:round;stroke-miterlimit:10;" d="
							M395.586,426.711c0,0-0.785-6.335,1.58-9.358"/>
						
							<path style="fill:none;stroke:#000000;stroke-width:0.6;stroke-linecap:round;stroke-linejoin:round;stroke-miterlimit:10;" d="
							M399.111,428.548c0,0-1.603-5.49,2.147-9.061"/>
					</g>
					
						<path style="fill:none;stroke:#000000;stroke-width:0.6;stroke-linecap:round;stroke-linejoin:round;stroke-miterlimit:10;" d="
						M385.159,400.574c0,0,13.85,1.083,19.373-9.428"/>
					
						<path style="fill:none;stroke:#000000;stroke-width:0.6;stroke-linecap:round;stroke-linejoin:round;stroke-miterlimit:10;" d="
						M437.085,407.685c0,0-0.476-3.242-6.579-2.573"/>
				</g>
			</g>
		</g>
	</g>
	<g>
		<text transform="matrix(1 0 0 1 290.0909 444.2515)" style="font-family:'Montserrat-Regular'; font-size:9.9599px;">Aquarius</text>
		<g>
			<g>
				<path style="fill:none;stroke:#000000;stroke-width:0.6;stroke-linecap:round;stroke-linejoin:round;stroke-miterlimit:10;" d="
					M352.39,389.944c14.245,19.704-22.381,44.135-33.844,21.708c-2.263-4.428-2.446-9.343-2.809-14.193
					c-0.504-6.729-3.245-13.231-7.958-18.094l-8.712-8.989l0.21-0.151c0.581,0.804,5.146-1.504,10.197-5.154
					c5.046-3.647,8.669-7.257,8.088-8.061l0.21-0.151l3.754,7.175l1.033,1.978l0.826,1.584c3.353,6.405,8.954,11.184,15.617,13.843
					c0.705,0.284,1.428,0.545,2.162,0.773c0.212,0.079,0.432,0.145,0.652,0.21C345.926,383.649,349.679,386.194,352.39,389.944z"/>
				<path style="fill:none;stroke:#000000;stroke-width:0.6;stroke-linecap:round;stroke-linejoin:round;stroke-miterlimit:10;" d="
					M317.563,357.01c0.581,0.804-3.042,4.414-8.088,8.061c-5.051,3.651-9.616,5.958-10.197,5.154
					c-0.581-0.804,3.042-4.414,8.094-8.065C312.417,358.513,316.982,356.206,317.563,357.01z"/>
				<path style="fill:none;stroke:#000000;stroke-width:0.6;stroke-linecap:round;stroke-linejoin:round;stroke-miterlimit:10;" d="
					M341.385,366.164c3.561,4.927,3.296,11.455-0.221,16.048c-0.734-0.228-1.457-0.49-2.162-0.773
					c-6.663-2.659-12.264-7.439-15.617-13.843l-0.826-1.584l-1.033-1.978c0.345-0.31,0.708-0.607,1.093-0.885
					C328.639,358.798,337.039,360.15,341.385,366.164z"/>
				<path style="fill:none;stroke:#000000;stroke-width:0.6;stroke-linecap:round;stroke-linejoin:round;stroke-miterlimit:10;" d="
					M339.641,367.424c3.135,4.338,2.734,10.153-0.639,14.014c-6.663-2.659-12.264-7.439-15.617-13.843l-0.826-1.584
					c0.406-0.405,0.845-0.775,1.321-1.118C328.932,361.242,335.991,362.373,339.641,367.424z"/>
			</g>
			<g>
				<path style="fill:none;stroke:#000000;stroke-width:0.6;stroke-linecap:round;stroke-linejoin:round;stroke-miterlimit:10;" d="
					M278.754,404.554c-1.426,0.94-2.682,2.101-3.637,3.556c-3.079,4.692-2.494,11.974,0.513,16.54
					c2.785,4.229,9.211,6.93,13.604,3.344c3.359-2.742,5.223-8.201,3.165-12.234c-2.006-3.931-7.388-3.678-10.289-0.95
					c-1.592,1.497-2.154,4.037-1.325,6.141c0.423,1.073,1.602,2.683,2.865,2.899"/>
				<path style="fill:none;stroke:#000000;stroke-width:0.6;stroke-linecap:round;stroke-linejoin:round;stroke-miterlimit:10;" d="
					M274.82,379.417c-1.426,0.94-2.682,2.101-3.637,3.556c-3.079,4.692-2.494,11.973,0.513,16.54
					c2.785,4.229,9.211,6.93,13.604,3.344c3.359-2.742,5.223-8.201,3.165-12.234c-2.006-3.931-7.388-3.678-10.289-0.95
					c-1.592,1.497-2.154,4.037-1.325,6.141c0.423,1.074,1.602,2.683,2.865,2.899"/>
				<path style="fill:none;stroke:#000000;stroke-width:0.6;stroke-linecap:round;stroke-linejoin:round;stroke-miterlimit:10;" d="
					M288.285,399.237c-1.085,4.223-0.294,9.2,1.894,12.675c2.698,4.285,9.068,7.116,13.533,3.621
					c3.414-2.673,5.389-8.092,3.414-12.167c-1.925-3.971-7.312-3.828-10.268-1.159c-1.622,1.464-2.236,3.992-1.45,6.113
					c0.401,1.082,1.547,2.715,2.805,2.956"/>
				<path style="fill:none;stroke:#000000;stroke-width:0.6;stroke-linecap:round;stroke-linejoin:round;stroke-miterlimit:10;" d="
					M279.665,362.176c-1.426,0.94-2.682,2.101-3.637,3.556c-3.079,4.692-2.494,11.974,0.513,16.54
					c2.785,4.229,9.211,6.93,13.604,3.344c3.359-2.742,5.223-8.201,3.165-12.234c-2.006-3.931-7.388-3.678-10.289-0.95
					c-1.592,1.497-2.154,4.037-1.325,6.141c0.423,1.073,1.602,2.683,2.865,2.899"/>
				<path style="fill:none;stroke:#000000;stroke-width:0.6;stroke-linecap:round;stroke-linejoin:round;stroke-miterlimit:10;" d="
					M305.354,357.556c-0.676-1.568-1.601-3.008-2.867-4.201c-4.083-3.85-11.355-4.545-16.376-2.38
					c-4.65,2.005-8.43,7.861-5.666,12.812c2.114,3.786,7.164,6.573,11.494,5.25c4.221-1.289,4.91-6.634,2.73-9.966
					c-1.196-1.829-3.599-2.826-5.816-2.376c-1.131,0.229-2.921,1.109-3.354,2.315"/>
			</g>
			<path style="fill:none;stroke:#000000;stroke-width:0.6;stroke-linecap:round;stroke-linejoin:round;stroke-miterlimit:10;" d="
				M329.952,375.921c0,0-6.672,9.858-16.812,11.362"/>
			<path style="fill:none;stroke:#000000;stroke-width:0.6;stroke-linecap:round;stroke-linejoin:round;stroke-miterlimit:10;" d="
				M335.227,379.639c0,0-5.297,14.649-19.911,14.579"/>
			<path style="fill:none;stroke:#000000;stroke-width:0.6;stroke-linecap:round;stroke-linejoin:round;stroke-miterlimit:10;" d="
				M320.555,362.176c0,0-4.726,8.454-17.268,12.554"/>
			<path style="fill:none;stroke:#000000;stroke-width:0.6;stroke-linecap:round;stroke-linejoin:round;stroke-miterlimit:10;" d="
				M354.078,392.766c0,0-1.428,22.124-28.806,26.051"/>
		</g>
	</g>
	<g>
		<text transform="matrix(1 0 0 1 74.6085 151.8462)" style="font-family:'Montserrat-Regular'; font-size:9.9599px;">Aries</text>
		<g>
			<path style="fill:none;stroke:#000000;stroke-width:0.6;stroke-linecap:round;stroke-linejoin:round;stroke-miterlimit:10;" d="
				M65.624,86.04c5.081,2.602,7.19,8.363,7.957,14.018c0.097,0.679,0.168,1.35,0.221,2.02c0.556,6.51-0.459,12.342-0.459,12.342"/>
			<path style="fill:none;stroke:#000000;stroke-width:0.6;stroke-linecap:round;stroke-linejoin:round;stroke-miterlimit:10;" d="
				M73.583,100.055c0,0-2.713-3.327-7.508-2.504"/>
			<path style="fill:none;stroke:#000000;stroke-width:0.6;stroke-linecap:round;stroke-linejoin:round;stroke-miterlimit:10;" d="
				M67.737,97.42c0,0-0.473,4.755,6.068,4.66"/>
			<path style="fill:none;stroke:#000000;stroke-width:0.6;stroke-linecap:round;stroke-linejoin:round;stroke-miterlimit:10;" d="
				M93.396,123.893c-0.641,1.277-2.778,0.708-3.419,2.633c-0.642,1.924-3.062,1.779-3.062,1.779s-2.421,0.145-3.062-1.779
				c-0.641-1.924-2.778-1.355-3.419-2.633c-0.636-1.283,0-1.283,0-1.283l6.482,0.357l6.482-0.357
				C93.396,122.61,94.038,122.61,93.396,123.893z"/>
			<path style="fill:none;stroke:#000000;stroke-width:0.6;stroke-linecap:round;stroke-linejoin:round;stroke-miterlimit:10;" d="
				M110.306,93.529c-0.009,0-0.009,0-0.009,0"/>
			<path style="fill:none;stroke:#000000;stroke-width:0.6;stroke-linecap:round;stroke-linejoin:round;stroke-miterlimit:10;" d="
				M127.368,80.888c0,0-0.168,0.053-0.953,0.265c-1.023,0.274-3.061,0.803-7.093,1.8c-6.925,1.711-9.669,6.016-9.854,6.334
				c-0.335-1.12-0.75-2.197-1.244-3.229c0.221-0.547,2.161-4.905,8.178-5.17c4.384-0.203,7.904-0.124,9.686-0.062
				C126.918,80.861,127.368,80.888,127.368,80.888z"/>
			<path style="fill:none;stroke:#000000;stroke-width:0.6;stroke-linecap:round;stroke-linejoin:round;stroke-miterlimit:10;" d="
				M108.224,86.057c-0.009,0.035-0.018,0.053-0.018,0.053c-5.072,2.602-7.181,8.354-7.948,14.009
				c-0.097,0.679-0.168,1.367-0.221,2.038h-0.009c-0.547,6.502,0.468,12.333,0.468,12.333"/>
			<path style="fill:none;stroke:#000000;stroke-width:0.6;stroke-linecap:round;stroke-linejoin:round;stroke-miterlimit:10;" d="
				M109.468,89.286c-0.018,0.009-0.018,0.018-0.018,0.018"/>
			<path style="fill:none;stroke:#000000;stroke-width:0.6;stroke-linecap:round;stroke-linejoin:round;stroke-miterlimit:10;" d="
				M100.251,100.13c0,0,2.713-3.327,7.508-2.504"/>
			<path style="fill:none;stroke:#000000;stroke-width:0.6;stroke-linecap:round;stroke-linejoin:round;stroke-miterlimit:10;" d="
				M106.097,97.495c0,0,0.473,4.755-6.068,4.66"/>
			<path style="fill:none;stroke:#000000;stroke-width:0.6;stroke-linecap:round;stroke-linejoin:round;stroke-miterlimit:10;" d="
				M95.677,131.883c0,0-6.468,2.157-8.759-1.009l-0.002-0.075c-2.291,3.167-8.759,1.009-8.759,1.009"/>
			
				<line style="fill:none;stroke:#000000;stroke-width:0.6;stroke-linecap:round;stroke-linejoin:round;stroke-miterlimit:10;" x1="86.918" y1="130.874" x2="86.918" y2="128.306"/>
			<path style="fill:none;stroke:#000000;stroke-width:0.6;stroke-linecap:round;stroke-linejoin:round;stroke-miterlimit:10;" d="
				M64.38,89.224c-0.415,1.358-0.697,2.779-0.847,4.234c0,0-3.785,0.794-8.081-0.406c-0.741-0.203-1.5-0.468-2.25-0.812
				c-0.494-0.212-0.979-0.467-1.464-0.75c-4.093-2.417-5.011-7.075-5.214-9.36c-0.071-0.812-0.053-1.323-0.053-1.323
				s0.168,0.053,1.006,0.282c1.032,0.273,3.07,0.794,7.04,1.782C61.707,84.655,64.38,89.224,64.38,89.224z"/>
			<path style="fill:none;stroke:#000000;stroke-width:0.6;stroke-linecap:round;stroke-linejoin:round;stroke-miterlimit:10;" d="
				M65.624,86.04c-0.494,1.023-0.909,2.082-1.244,3.185c0,0-2.673-4.57-9.863-6.352c-3.97-0.988-6.008-1.509-7.04-1.782
				c-0.838-0.229-1.006-0.282-1.006-0.282s0.476-0.027,1.35-0.062c1.808-0.062,5.284-0.132,9.616,0.062
				C63.842,81.091,65.624,86.04,65.624,86.04z"/>
			<path style="fill:none;stroke:#000000;stroke-width:0.6;stroke-linecap:round;stroke-linejoin:round;stroke-miterlimit:10;" d="
				M78.821,74.227c-3.273,1.173-6.184,3.017-8.592,5.39c-2.144-1.553-4.358-2.655-6.502-3.193c-0.194-0.079-0.406-0.106-0.609-0.15
				l-0.6-0.124c-0.203-0.044-0.406-0.097-0.6-0.106c-0.185-0.026-0.379-0.079-0.573-0.079c-0.768-0.106-1.526-0.106-2.294-0.079
				c-0.759,0.026-1.535,0.106-2.32,0.247c-0.794,0.15-1.597,0.362-2.417,0.644c-1.641,0.538-3.299,1.42-4.843,2.567
				c-0.573,0.432-1.12,0.9-1.65,1.403c-0.873,0.035-1.35,0.062-1.35,0.062s-0.018,0.512,0.053,1.323
				c-0.406,0.467-0.776,0.953-1.129,1.455c-1.129,1.641-2.056,3.432-2.655,5.293c-0.635,1.914-1.014,3.961-1.076,5.964
				c-0.088,2.011,0.15,4.014,0.75,5.866l0.238,0.688l0.256,0.626l0.309,0.626l0.353,0.6c0.494,0.803,1.094,1.535,1.756,2.144
				c0.662,0.618,1.385,1.103,2.117,1.394c0.732,0.3,1.473,0.406,2.258,0.309l0.291-0.044c0.097-0.009,0.194-0.053,0.3-0.079
				c0.194-0.071,0.406-0.088,0.609-0.194c0.423-0.159,0.803-0.388,1.173-0.626c0.715-0.494,1.323-1.164,1.791-1.994
				c0.926-1.676,1.191-3.952,0.953-6.184c-0.194-1.941-0.741-3.917-1.614-5.734c0.75,0.344,1.509,0.609,2.25,0.812
				c0.812,1.367,1.447,2.849,1.914,4.402c0.362,1.261,0.591,2.585,0.635,3.961c0.026,0.697-0.009,1.394-0.097,2.1
				c-0.106,0.706-0.256,1.42-0.494,2.135c-0.247,0.697-0.565,1.394-0.962,2.055c-0.415,0.653-0.909,1.27-1.473,1.817
				c-0.565,0.538-1.173,1.041-1.844,1.429c-0.309,0.212-0.688,0.37-1.05,0.556c-0.185,0.079-0.362,0.176-0.547,0.247l-0.591,0.194
				c-1.57,0.521-3.343,0.582-4.958,0.229c-1.614-0.335-3.079-1.023-4.358-1.87c-1.279-0.856-2.4-1.879-3.379-3.017l-0.715-0.882
				l-0.644-0.935l-0.6-0.988l-0.512-0.979c-1.288-2.629-2.011-5.487-2.285-8.337c-0.256-2.858-0.088-5.708,0.476-8.513
				c0.591-2.858,1.632-5.584,2.982-8.125c0.688-1.27,1.456-2.505,2.294-3.688c0.838-1.191,1.747-2.347,2.761-3.432
				c1.006-1.076,2.091-2.117,3.282-3.079c1.182-0.953,2.479-1.817,3.855-2.585c1.394-0.741,2.876-1.376,4.446-1.844
				c1.57-0.459,3.22-0.741,4.887-0.82c1.667-0.079,3.361,0.027,4.993,0.362c1.641,0.318,3.167,0.864,4.64,1.491
				c2.929,1.297,5.487,3.176,7.551,5.319C76.863,71.502,77.913,72.834,78.821,74.227z"/>
			<path style="fill:none;stroke:#000000;stroke-width:0.6;stroke-linecap:round;stroke-linejoin:round;stroke-miterlimit:10;" d="
				M100.496,114.419v0.071c0.062,0.723,0.088,1.473,0.088,2.223c0,10.86-6.122,19.664-13.665,19.664
				c-7.551,0-13.674-8.804-13.674-19.664c0-0.776,0.035-1.544,0.097-2.294c-6.008-4.146-9.925-10.965-9.925-18.684
				c0-0.768,0.035-1.526,0.115-2.276c0.15-1.456,0.432-2.876,0.847-4.234c0.335-1.103,0.75-2.161,1.244-3.185
				c1.059-2.205,2.47-4.226,4.155-5.981c0.15-0.15,0.3-0.3,0.45-0.441c2.408-2.373,5.32-4.217,8.592-5.39
				c2.523-0.9,5.249-1.394,8.098-1.394c2.841,0,5.566,0.494,8.09,1.394h0.009c3.255,1.173,6.184,3.017,8.583,5.381
				c0.15,0.141,0.3,0.3,0.45,0.45c1.694,1.756,3.105,3.785,4.173,5.999c0.494,1.032,0.909,2.108,1.244,3.229
				c0.415,1.367,0.697,2.788,0.838,4.243c0.079,0.723,0.115,1.464,0.115,2.205C110.421,103.454,106.495,110.273,100.496,114.419z"/>
			<path style="fill:none;stroke:#000000;stroke-width:0.6;stroke-linecap:round;stroke-linejoin:round;stroke-miterlimit:10;" d="
				M127.323,82.141c-0.194,2.258-1.094,6.978-5.231,9.422c-0.494,0.291-0.988,0.547-1.491,0.767
				c-0.759,0.344-1.526,0.609-2.276,0.812c-4.146,1.147-7.807,0.432-8.019,0.388c-0.141-1.456-0.423-2.876-0.838-4.243
				c0.185-0.318,2.929-4.623,9.854-6.334c4.032-0.997,6.069-1.526,7.093-1.8c0.785-0.212,0.953-0.265,0.953-0.265
				S127.385,81.373,127.323,82.141z"/>
			<path style="fill:none;stroke:#000000;stroke-width:0.6;stroke-linecap:round;stroke-linejoin:round;stroke-miterlimit:10;" d="
				M140.344,95.17c-0.273,2.85-0.997,5.708-2.294,8.337l-0.512,0.979l-0.591,0.988l-0.662,0.935l-0.706,0.882
				c-0.979,1.138-2.091,2.161-3.37,3.017c-1.279,0.847-2.744,1.535-4.367,1.87c-1.606,0.353-3.379,0.291-4.958-0.229l-0.582-0.194
				c-0.194-0.07-0.37-0.168-0.556-0.247c-0.353-0.185-0.732-0.344-1.05-0.556c-0.662-0.388-1.279-0.891-1.844-1.429
				c-0.564-0.547-1.05-1.164-1.473-1.817c-0.406-0.662-0.723-1.359-0.962-2.055c-0.238-0.715-0.397-1.429-0.494-2.135
				c-0.088-0.706-0.115-1.403-0.097-2.1c0.053-1.376,0.273-2.699,0.635-3.961c0.459-1.517,1.076-2.973,1.861-4.314
				c0.75-0.203,1.517-0.467,2.276-0.812c-0.856,1.791-1.394,3.732-1.579,5.646c-0.238,2.232,0.009,4.508,0.953,6.184
				c0.468,0.829,1.076,1.5,1.791,1.994c0.371,0.238,0.741,0.468,1.165,0.626c0.212,0.106,0.415,0.123,0.618,0.194
				c0.097,0.026,0.185,0.071,0.291,0.079l0.3,0.044c0.776,0.097,1.517-0.009,2.258-0.309c0.732-0.291,1.447-0.776,2.108-1.394
				c0.662-0.609,1.27-1.341,1.764-2.144l0.353-0.6l0.3-0.626l0.265-0.626l0.229-0.688c0.6-1.853,0.838-3.855,0.75-5.866
				c-0.062-2.003-0.441-4.049-1.068-5.964c-0.609-1.861-1.535-3.652-2.655-5.293c-0.353-0.503-0.723-0.988-1.12-1.447
				c0.062-0.768,0.044-1.253,0.044-1.253s-0.45-0.026-1.279-0.062c-0.547-0.538-1.129-1.032-1.729-1.482
				c-1.535-1.147-3.202-2.029-4.843-2.567c-0.812-0.282-1.623-0.494-2.408-0.644c-0.794-0.141-1.57-0.22-2.329-0.247
				c-0.768-0.027-1.526-0.027-2.294,0.079c-0.185,0-0.379,0.053-0.573,0.079c-0.194,0.009-0.388,0.062-0.591,0.106l-0.609,0.124
				c-0.203,0.044-0.406,0.071-0.609,0.15c-2.152,0.538-4.358,1.632-6.502,3.185c-2.4-2.364-5.328-4.208-8.583-5.381
				c0.909-1.394,1.949-2.726,3.149-3.97c2.064-2.144,4.623-4.023,7.56-5.319c1.473-0.626,2.991-1.173,4.64-1.491
				c1.632-0.335,3.317-0.441,4.984-0.362c1.667,0.079,3.317,0.362,4.887,0.82c1.57,0.468,3.052,1.103,4.446,1.844
				c1.376,0.767,2.673,1.632,3.864,2.585c1.182,0.961,2.267,2.002,3.282,3.079c1.006,1.085,1.914,2.241,2.752,3.432
				c0.838,1.182,1.606,2.417,2.294,3.688c1.359,2.541,2.4,5.267,2.982,8.125C140.424,89.463,140.6,92.312,140.344,95.17z"/>
			<g>
				<path style="fill:none;stroke:#000000;stroke-width:0.6;stroke-linecap:round;stroke-linejoin:round;stroke-miterlimit:10;" d="
					M105.188,65.187c0,0,7.603,4.71,6.133,10.963"/>
				<path style="fill:none;stroke:#000000;stroke-width:0.6;stroke-linecap:round;stroke-linejoin:round;stroke-miterlimit:10;" d="
					M121.307,64.255c0,0,4.928,6.814,0,13.242"/>
				<path style="fill:none;stroke:#000000;stroke-width:0.6;stroke-linecap:round;stroke-linejoin:round;stroke-miterlimit:10;" d="
					M135.466,76.15c0,0-0.046,7.471-7.022,7.437"/>
				<path style="fill:none;stroke:#000000;stroke-width:0.6;stroke-linecap:round;stroke-linejoin:round;stroke-miterlimit:10;" d="
					M140.459,93.79c0,0-1.523,3.145-8.278,2.007"/>
				<path style="fill:none;stroke:#000000;stroke-width:0.6;stroke-linecap:round;stroke-linejoin:round;stroke-miterlimit:10;" d="
					M131.461,110.768c0,0-3.612-0.879-3.483-4.92"/>
				<path style="fill:none;stroke:#000000;stroke-width:0.6;stroke-linecap:round;stroke-linejoin:round;stroke-miterlimit:10;" d="
					M117.381,107.706c0,0,0.462-2.982,2.594-3.546"/>
			</g>
			<g>
				<path style="fill:none;stroke:#000000;stroke-width:0.6;stroke-linecap:round;stroke-linejoin:round;stroke-miterlimit:10;" d="
					M68.649,65.187c0,0-7.602,4.71-6.133,10.963"/>
				<path style="fill:none;stroke:#000000;stroke-width:0.6;stroke-linecap:round;stroke-linejoin:round;stroke-miterlimit:10;" d="
					M52.531,64.255c0,0-4.928,6.814,0,13.242"/>
				<path style="fill:none;stroke:#000000;stroke-width:0.6;stroke-linecap:round;stroke-linejoin:round;stroke-miterlimit:10;" d="
					M38.372,76.15c0,0,0.046,7.471,7.022,7.437"/>
				<path style="fill:none;stroke:#000000;stroke-width:0.6;stroke-linecap:round;stroke-linejoin:round;stroke-miterlimit:10;" d="
					M33.379,93.79c0,0,1.523,3.145,8.278,2.007"/>
				<path style="fill:none;stroke:#000000;stroke-width:0.6;stroke-linecap:round;stroke-linejoin:round;stroke-miterlimit:10;" d="
					M42.377,110.768c0,0,3.612-0.879,3.483-4.92"/>
				<path style="fill:none;stroke:#000000;stroke-width:0.6;stroke-linecap:round;stroke-linejoin:round;stroke-miterlimit:10;" d="
					M56.456,107.706c0,0-0.462-2.982-2.594-3.546"/>
			</g>
			
				<line style="fill:none;stroke:#000000;stroke-width:0.6;stroke-linecap:round;stroke-linejoin:round;stroke-miterlimit:10;" x1="80.433" y1="122.61" x2="73.805" y2="102.08"/>
			
				<line style="fill:none;stroke:#000000;stroke-width:0.6;stroke-linecap:round;stroke-linejoin:round;stroke-miterlimit:10;" x1="93.396" y1="122.61" x2="100.03" y2="102.155"/>
		</g>
	</g>
	<g>
		<text transform="matrix(1 0 0 1 183.3654 151.8462)" style="font-family:'Montserrat-Regular'; font-size:9.9599px;">Taurus</text>
		<g>
			<path style="fill:none;stroke:#000000;stroke-width:0.6;stroke-linecap:round;stroke-linejoin:round;stroke-miterlimit:10;" d="
				M223.909,99.707c0,1.095-0.058,2.176-0.179,3.237c-0.722,6.513-3.596,12.289-7.807,16.432c-1.633,1.609-2.408,3.838-2.258,6.12
				c0.01,0.174,0.014,0.344,0.014,0.518c0,5.713-6.057,10.341-13.525,10.341c-2.37,0-4.594-0.465-6.532-1.284
				c-2.709-1.144-4.851-2.971-6.014-5.185c0,0,0,0,0-0.005c-0.635-1.192-0.984-2.5-0.984-3.867c0-0.174,0.005-0.344,0.019-0.518
				c0.087-1.347-0.15-2.68-0.693-3.872c-0.378-0.829-0.901-1.589-1.57-2.248c-4.216-4.148-7.094-9.939-7.807-16.471
				c-0.116-1.047-0.174-2.118-0.174-3.198c0-1.662,0.141-3.29,0.412-4.865c0.984-5.873,3.736-11.058,7.613-14.857
				c4.192-4.099,9.696-6.59,15.729-6.59c6.028,0,11.538,2.491,15.725,6.59c3.872,3.794,6.624,8.965,7.613,14.823
				c0.005,0.005,0.01,0.01,0.005,0.019c0.228,1.313,0.364,2.665,0.397,4.041C223.904,99.145,223.909,99.426,223.909,99.707z"/>
			<g>
				<path style="fill:none;stroke:#000000;stroke-width:0.6;stroke-linecap:round;stroke-linejoin:round;stroke-miterlimit:10;" d="
					M176.4,99.707c0,1.081,0.058,2.151,0.174,3.198c0,0-5.704,6.314-13.496,3.097c-7.797-3.218-6.435-11.16-6.435-11.16
					c4.7,1.342,6.062-1.706,12.003-2.079c1.197-0.077,2.244-0.034,3.15,0.078c3.46,0.422,4.899,1.89,5.001,1.996
					c0.01,0.005,0.014,0.005,0.014,0.005C176.541,96.417,176.4,98.045,176.4,99.707z"/>
				<path style="fill:none;stroke:#000000;stroke-width:0.6;stroke-linecap:round;stroke-linejoin:round;stroke-miterlimit:10;" d="
					M185.952,121.625c0,0,7.564-7.705,5.088-19.088c0,0,0-0.005-0.005-0.01c-2.433-11.174-13.825-7.811-14.223-7.685"/>
				<path style="fill:none;stroke:#000000;stroke-width:0.6;stroke-linecap:round;stroke-linejoin:round;stroke-miterlimit:10;" d="
					M156.644,94.844c0,0,1.114,1.672,5.403,2.249c4.289,0.577,10.64-3.299,14.352,1.815"/>
				<path style="fill:none;stroke:#000000;stroke-width:0.6;stroke-linecap:round;stroke-linejoin:round;stroke-miterlimit:10;" d="
					M183.55,99.236c0,0,1.117,6.456,7.489,3.301c0,0-3.402-5.196-9.589-2.722"/>
			</g>
			<path style="fill:none;stroke:#000000;stroke-width:0.6;stroke-linecap:round;stroke-linejoin:round;stroke-miterlimit:10;" d="
				M197.782,129.885c0,0,0-4.335-4.021-3.933c0,0-0.34,3.062,2.784,3.279"/>
			<path style="fill:none;stroke:#000000;stroke-width:0.6;stroke-linecap:round;stroke-linejoin:round;stroke-miterlimit:10;" d="
				M211.695,129.885c0,0-1.719-10.934-12.029-8.542l-0.028,0c-10.31-2.392-12.029,8.542-12.029,8.542"/>
			<path style="fill:none;stroke:#000000;stroke-width:0.6;stroke-linecap:round;stroke-linejoin:round;stroke-miterlimit:10;" d="
				M205.68,135.072c0,0-1.251-3.088-6.53-3.088l1.003,0c-5.279,0-6.53,3.088-6.53,3.088"/>
			<g>
				<path style="fill:none;stroke:#000000;stroke-width:0.6;stroke-linecap:round;stroke-linejoin:round;stroke-miterlimit:10;" d="
					M223.691,102.905c0,0,0.015,0.015,0.039,0.039c0.514,0.543,6.033,6.12,13.457,3.058c7.792-3.218,6.435-11.16,6.435-11.16"/>
				<path style="fill:none;stroke:#000000;stroke-width:0.6;stroke-linecap:round;stroke-linejoin:round;stroke-miterlimit:10;" d="
					M223.492,94.808c-0.024,0.019-0.034,0.034-0.034,0.034s-11.756-3.688-14.227,7.685c-0.005,0.005-0.005,0.01-0.005,0.01
					c-2.476,11.383,5.083,19.088,5.083,19.088"/>
				<path style="fill:none;stroke:#000000;stroke-width:0.6;stroke-linecap:round;stroke-linejoin:round;stroke-miterlimit:10;" d="
					M223.894,98.869c-0.01,0.01-0.019,0.024-0.029,0.039"/>
				<path style="fill:none;stroke:#000000;stroke-width:0.6;stroke-linecap:round;stroke-linejoin:round;stroke-miterlimit:10;" d="
					M216.713,99.236c0,0-1.117,6.456-7.489,3.301c0,0,3.402-5.196,9.589-2.722"/>
			</g>
			<path style="fill:none;stroke:#000000;stroke-width:0.6;stroke-linecap:round;stroke-linejoin:round;stroke-miterlimit:10;" d="
				M201.522,129.885c0,0,0-4.335,4.021-3.933c0,0,0.34,3.062-2.784,3.279"/>
			<g>
				<path style="fill:none;stroke:#000000;stroke-width:0.6;stroke-linecap:round;stroke-linejoin:round;stroke-miterlimit:10;" d="
					M243.621,94.842c0,0-1.114,1.677-5.403,2.253c-4.279,0.577-10.607-3.281-14.324,1.773c-0.034-1.376-0.17-2.728-0.397-4.041
					c0.005-0.01,0-0.015-0.005-0.019c0.237-0.238,1.71-1.575,5.001-1.972c0.901-0.107,1.938-0.145,3.126-0.073
					C237.559,93.136,238.916,96.184,243.621,94.842z"/>
				<path style="fill:none;stroke:#000000;stroke-width:0.6;stroke-linecap:round;stroke-linejoin:round;stroke-miterlimit:10;" d="
					M223.497,94.827c-0.024,0.01-0.039,0.015-0.039,0.015"/>
				<path style="fill:none;stroke:#000000;stroke-width:0.6;stroke-linecap:round;stroke-linejoin:round;stroke-miterlimit:10;" d="
					M215.879,79.984c0,0,9.658,0.097,18.467-4.521c8.805-4.618,6.663-12.536,6.663-12.536s9.236,5.936,5.112,15.836
					c-2.738,6.566-11.829,11.499-17.629,14.072"/>
				<path style="fill:none;stroke:#000000;stroke-width:0.6;stroke-linecap:round;stroke-linejoin:round;stroke-miterlimit:10;" d="
					M171.797,92.84c-5.791-2.568-14.872-7.506-17.615-14.077c-4.124-9.9,5.117-15.836,5.117-15.836s-2.147,7.918,6.663,12.536
					c8.805,4.618,18.463,4.521,18.463,4.521"/>
			</g>
			<path style="fill:none;stroke:#000000;stroke-width:0.6;stroke-linecap:round;stroke-linejoin:round;stroke-miterlimit:10;" d="
				M155.558,66.609c0,0-1.726,16.268,22.518,23.393"/>
			<path style="fill:none;stroke:#000000;stroke-width:0.6;stroke-linecap:round;stroke-linejoin:round;stroke-miterlimit:10;" d="
				M244.795,66.609c0,0,1.726,16.268-22.518,23.393"/>
		</g>
	</g>
	<g>
		<g>
			<text transform="matrix(1 0 0 1 396.9958 151.8462)" style="font-family:'Montserrat-Regular'; font-size:9.9599px;">Cancer</text>
		</g>
		<g>
			<g>
				<g>
					
						<path style="fill:none;stroke:#000000;stroke-width:0.6;stroke-linecap:round;stroke-linejoin:round;stroke-miterlimit:10;" d="
						M403.226,68.039c-5.019,7.179-11.524,7.405-11.524,7.405c2.475,4.408-2.448,8.691-2.448,8.691
						c0.949,1.121,0.138,2.31,0.138,2.31c1.781-0.536,7.275,4.387,8.959,5.948l-4.222,5.783c-3.301-0.901-7.687-2.833-9.351-6.883
						c0,0-4.868-0.935-5.019-4.132c-0.144-3.204,2.675-7.22,2.675-7.22s-1.203-4.586,2.166-7.192c0,0-2.853-6.415,0.254-10.761
						c3.108-4.346,8.464-8.788,19.218-8.849c0,0-8.334,7.619-7.983,11.765c0,0,6.154-4.82,7.185-9.62
						C403.274,55.284,408.239,60.86,403.226,68.039z"/>
					
						<path style="fill:none;stroke:#000000;stroke-width:0.6;stroke-linecap:round;stroke-linejoin:round;stroke-miterlimit:10;" d="
						M389.392,86.444c0,0-4.524,1.98-4.617,4.849"/>
					
						<path style="fill:none;stroke:#000000;stroke-width:0.6;stroke-linecap:round;stroke-linejoin:round;stroke-miterlimit:10;" d="
						M382.435,79.945c0,0,5.234,0.878,6.823,4.194"/>
					
						<path style="fill:none;stroke:#000000;stroke-width:0.6;stroke-linecap:round;stroke-linejoin:round;stroke-miterlimit:10;" d="
						M384.598,72.749c0,0,4.818-0.259,7.107,2.697"/>
				</g>
				<g>
					
						<path style="fill:none;stroke:#000000;stroke-width:0.6;stroke-linecap:round;stroke-linejoin:round;stroke-miterlimit:10;" d="
						M449.481,87.161c-0.151,3.197-5.02,4.132-5.02,4.132c-1.664,4.05-6.051,5.982-9.351,6.883l-4.222-5.783
						c1.685-1.561,7.179-6.484,8.96-5.948c0,0-0.811-1.19,0.131-2.31c0,0-4.916-4.284-2.448-8.691c0,0-6.505-0.227-11.517-7.405
						c-5.02-7.179-0.048-12.755-0.048-12.755c1.031,4.799,7.185,9.62,7.185,9.62c0.344-4.146-7.983-11.765-7.983-11.765
						c10.754,0.062,16.11,4.504,19.218,8.849c3.108,4.346,0.254,10.761,0.254,10.761c3.369,2.606,2.166,7.192,2.166,7.192
						S449.625,83.957,449.481,87.161z"/>
					
						<path style="fill:none;stroke:#000000;stroke-width:0.6;stroke-linecap:round;stroke-linejoin:round;stroke-miterlimit:10;" d="
						M439.847,86.444c0,0,4.524,1.98,4.617,4.849"/>
					
						<path style="fill:none;stroke:#000000;stroke-width:0.6;stroke-linecap:round;stroke-linejoin:round;stroke-miterlimit:10;" d="
						M446.804,79.945c0,0-5.234,0.878-6.823,4.194"/>
					
						<path style="fill:none;stroke:#000000;stroke-width:0.6;stroke-linecap:round;stroke-linejoin:round;stroke-miterlimit:10;" d="
						M444.641,72.749c0,0-4.818-0.259-7.107,2.697"/>
				</g>
			</g>
			<g>
				<g>
					<g>
						
							<path style="fill:none;stroke:#000000;stroke-width:0.6;stroke-linecap:round;stroke-linejoin:round;stroke-miterlimit:10;" d="
							M434.093,133.244c0,0-1.19,3.087-3.438,4.112c0.055-0.213,1.011-3.576,1.423-4.449c0.433-0.901,0.433-0.901,0.433-0.901
							s-1.348-3.686-0.351-5.281c0,0-2.111-1.389-2.359-2.627c0,0-3.5-0.77-5.776-1.843c0.653-0.282,1.21-0.77,1.588-1.382
							l1.506-2.42c1.733,0.763,3.321,1.802,3.961,3.156c0,0,5.095,1.609,4.277,5.349
							C435.358,126.959,437.214,130.59,434.093,133.244z"/>
						
							<path style="fill:none;stroke:#000000;stroke-width:0.6;stroke-linecap:round;stroke-linejoin:round;stroke-miterlimit:10;" d="
							M431.084,121.609c0,0-0.371,1.63-1.28,2.487"/>
						
							<path style="fill:none;stroke:#000000;stroke-width:0.6;stroke-linecap:round;stroke-linejoin:round;stroke-miterlimit:10;" d="
							M432.162,126.726c0,0,1.59,1.205,3.196,0.235"/>
					</g>
					<g>
						
							<path style="fill:none;stroke:#000000;stroke-width:0.6;stroke-linecap:round;stroke-linejoin:round;stroke-miterlimit:10;" d="
							M439.463,127.069c0,0-0.633,3.252-2.668,4.655c0,0,0.364-3.679,0.626-4.641c0.268-0.963,0.268-0.963,0.268-0.963
							s-1.973-3.39-1.265-5.136c0,0-2.324-0.997-2.785-2.18c0,0-3.775-0.151-6.202-0.859l2.62-4.215
							c1.829,0.454,3.548,1.196,4.414,2.407c0,0,5.294,0.695,5.143,4.518C439.614,120.654,442.069,123.906,439.463,127.069z"/>
						
							<path style="fill:none;stroke:#000000;stroke-width:0.6;stroke-linecap:round;stroke-linejoin:round;stroke-miterlimit:10;" d="
							M434.468,116.135c0,0-0.08,1.669-0.826,2.672"/>
						
							<path style="fill:none;stroke:#000000;stroke-width:0.6;stroke-linecap:round;stroke-linejoin:round;stroke-miterlimit:10;" d="
							M436.424,120.984c0,0,1.776,0.909,3.188-0.327"/>
					</g>
					<g>
						
							<path style="fill:none;stroke:#000000;stroke-width:0.6;stroke-linecap:round;stroke-linejoin:round;stroke-miterlimit:10;" d="
							M452.004,111.021c-0.034,4.098-4.009,5.006-4.009,5.006c-2.345,3.025-6.849,0.151-6.849,0.151
							c-3.266,0.839-8.361-2.998-9.95-4.284l1.499-2.413c0.866,0,2.07,0.089,3.287,0.433c2.338,0.667,6.25,3.686,6.25,3.686
							c1.114-0.612,3.534,0.124,3.534,0.124c0.578-1.795,4.27-3.122,4.27-3.122s0,0,0.419-0.908
							c0.413-0.908,2.503-3.961,2.503-3.961C453.613,108.126,452.004,111.021,452.004,111.021z"/>
						
							<path style="fill:none;stroke:#000000;stroke-width:0.6;stroke-linecap:round;stroke-linejoin:round;stroke-miterlimit:10;" d="
							M441.148,116.176c0,0,1.013-1.33,1.087-2.577"/>
						
							<path style="fill:none;stroke:#000000;stroke-width:0.6;stroke-linecap:round;stroke-linejoin:round;stroke-miterlimit:10;" d="
							M445.765,113.722c0,0,1.944,0.447,2.23,2.301"/>
					</g>
					<g>
						
							<path style="fill:none;stroke:#000000;stroke-width:0.6;stroke-linecap:round;stroke-linejoin:round;stroke-miterlimit:10;" d="
							M452.135,101.353c1.018,3.974-2.592,5.865-2.592,5.865c-1.492,3.527-6.573,1.912-6.573,1.912
							c-2.427,1.361-6.883-0.041-9.406-1.038l2.152-3.459c0.048-0.076,0.089-0.151,0.131-0.227c0.172-0.007,0.351-0.007,0.523-0.007
							c2.427,0.048,6.986,1.96,6.986,1.96c0.921-0.873,3.445-0.791,3.445-0.791c0.103-1.877,3.328-4.112,3.328-4.112
							s0,0,0.172-0.983c0.165-0.983,1.396-4.469,1.396-4.469C452.947,98.142,452.135,101.353,452.135,101.353z"/>
						
							<path style="fill:none;stroke:#000000;stroke-width:0.6;stroke-linecap:round;stroke-linejoin:round;stroke-miterlimit:10;" d="
							M442.966,109.127c0,0,0.637-1.545,0.388-2.77"/>
						
							<path style="fill:none;stroke:#000000;stroke-width:0.6;stroke-linecap:round;stroke-linejoin:round;stroke-miterlimit:10;" d="
							M446.798,105.569c0,0,1.994-0.068,2.747,1.651"/>
					</g>
				</g>
				<g>
					<g>
						
							<path style="fill:none;stroke:#000000;stroke-width:0.6;stroke-linecap:round;stroke-linejoin:round;stroke-miterlimit:10;" d="
							M397.079,126.726c0.997,1.595-0.351,5.281-0.351,5.281s0,0,0.433,0.901c0.413,0.873,1.368,4.235,1.423,4.449
							c-2.248-1.025-3.438-4.112-3.438-4.112c-3.122-2.654-1.265-6.285-1.265-6.285c-0.818-3.74,4.277-5.349,4.277-5.349
							c0.639-1.355,2.228-2.393,3.961-3.156l1.506,2.42c0.378,0.612,0.935,1.1,1.588,1.382c-2.276,1.073-5.776,1.843-5.776,1.843
							C399.19,125.337,397.079,126.726,397.079,126.726z"/>
						
							<path style="fill:none;stroke:#000000;stroke-width:0.6;stroke-linecap:round;stroke-linejoin:round;stroke-miterlimit:10;" d="
							M398.156,121.609c0,0,0.371,1.63,1.28,2.487"/>
						
							<path style="fill:none;stroke:#000000;stroke-width:0.6;stroke-linecap:round;stroke-linejoin:round;stroke-miterlimit:10;" d="
							M397.077,126.726c0,0-1.59,1.205-3.196,0.235"/>
					</g>
					<g>
						
							<path style="fill:none;stroke:#000000;stroke-width:0.6;stroke-linecap:round;stroke-linejoin:round;stroke-miterlimit:10;" d="
							M401.803,117.945c-2.427,0.708-6.202,0.859-6.202,0.859c-0.461,1.183-2.785,2.18-2.785,2.18
							c0.708,1.746-1.265,5.136-1.265,5.136s0,0,0.268,0.963c0.261,0.963,0.626,4.641,0.626,4.641
							c-2.035-1.403-2.668-4.655-2.668-4.655c-2.606-3.163-0.151-6.415-0.151-6.415c-0.151-3.823,5.143-4.518,5.143-4.518
							c0.866-1.21,2.585-1.953,4.414-2.407L401.803,117.945z"/>
						
							<path style="fill:none;stroke:#000000;stroke-width:0.6;stroke-linecap:round;stroke-linejoin:round;stroke-miterlimit:10;" d="
							M394.771,116.135c0,0,0.08,1.669,0.826,2.672"/>
						
							<path style="fill:none;stroke:#000000;stroke-width:0.6;stroke-linecap:round;stroke-linejoin:round;stroke-miterlimit:10;" d="
							M392.815,120.984c0,0-1.776,0.909-3.188-0.327"/>
					</g>
					<g>
						
							<path style="fill:none;stroke:#000000;stroke-width:0.6;stroke-linecap:round;stroke-linejoin:round;stroke-miterlimit:10;" d="
							M398.042,111.894c-1.588,1.286-6.683,5.123-9.949,4.284c0,0-4.504,2.874-6.849-0.151c0,0-3.974-0.908-4.009-5.006
							c0,0-1.609-2.895-0.956-5.288c0,0,2.09,3.053,2.503,3.961c0.419,0.908,0.419,0.908,0.419,0.908s3.692,1.327,4.27,3.122
							c0,0,2.42-0.736,3.534-0.124c0,0,3.913-3.019,6.25-3.686c1.217-0.344,2.42-0.433,3.287-0.433L398.042,111.894z"/>
						
							<path style="fill:none;stroke:#000000;stroke-width:0.6;stroke-linecap:round;stroke-linejoin:round;stroke-miterlimit:10;" d="
							M388.091,116.176c0,0-1.013-1.33-1.087-2.577"/>
						
							<path style="fill:none;stroke:#000000;stroke-width:0.6;stroke-linecap:round;stroke-linejoin:round;stroke-miterlimit:10;" d="
							M383.474,113.722c0,0-1.944,0.447-2.23,2.301"/>
					</g>
					<g>
						
							<path style="fill:none;stroke:#000000;stroke-width:0.6;stroke-linecap:round;stroke-linejoin:round;stroke-miterlimit:10;" d="
							M435.846,104.406c-0.041,0.076-0.082,0.151-0.131,0.227l-2.152,3.459l-0.866,1.389l-1.499,2.413l-1.141,1.836l-2.62,4.215
							l-0.316,0.509l-1.506,2.42c-0.378,0.612-0.935,1.1-1.588,1.382c-0.138,0.062-0.275,0.117-0.419,0.158
							c-5.996,1.801-11.985,1.801-17.974,0c-0.144-0.041-0.282-0.096-0.419-0.158c-0.653-0.282-1.21-0.77-1.588-1.382l-1.506-2.42
							l-0.316-0.509l-2.62-4.215l-1.141-1.836l-1.499-2.413l-0.866-1.389l-2.152-3.459c-0.048-0.076-0.089-0.151-0.131-0.227
							c-1.004-1.801-0.873-4.036,0.358-5.714l0.378-0.516l4.222-5.783l0.248-0.337c1.162-0.303,2.324-0.564,3.5-0.805
							c-0.007-0.041-0.014-0.076-0.014-0.117c0-0.633,0.516-1.141,1.148-1.141c0.529,0,0.969,0.357,1.1,0.846
							c6.814-1.128,13.759-1.128,20.573,0c0.131-0.488,0.571-0.846,1.1-0.846c0.633,0,1.148,0.509,1.148,1.141
							c0,0.041-0.007,0.076-0.014,0.117c1.176,0.234,2.338,0.502,3.5,0.805l0.247,0.337l4.222,5.783l0.378,0.516
							C436.719,100.37,436.85,102.605,435.846,104.406z"/>
						
							<path style="fill:none;stroke:#000000;stroke-width:0.6;stroke-linecap:round;stroke-linejoin:round;stroke-miterlimit:10;" d="
							M395.676,108.092c-2.523,0.997-6.979,2.4-9.406,1.038c0,0-5.081,1.616-6.573-1.912c0,0-3.61-1.891-2.592-5.865
							c0,0-0.811-3.211,0.44-5.35c0,0,1.231,3.486,1.396,4.469c0.172,0.983,0.172,0.983,0.172,0.983s3.225,2.235,3.328,4.112
							c0,0,2.523-0.082,3.445,0.791c0,0,4.559-1.911,6.986-1.96c0.172,0,0.351,0,0.523,0.007c0.041,0.076,0.083,0.151,0.131,0.227
							L395.676,108.092z"/>
						
							<path style="fill:none;stroke:#000000;stroke-width:0.6;stroke-linecap:round;stroke-linejoin:round;stroke-miterlimit:10;" d="
							M386.273,109.127c0,0-0.637-1.545-0.388-2.77"/>
						
							<path style="fill:none;stroke:#000000;stroke-width:0.6;stroke-linecap:round;stroke-linejoin:round;stroke-miterlimit:10;" d="
							M382.441,105.569c0,0-1.994-0.068-2.747,1.651"/>
					</g>
				</g>
			</g>
		</g>
	</g>
	<g>
		
			<ellipse transform="matrix(0.7071 -0.7071 0.7071 0.7071 24.1655 248.7792)" style="fill:none;stroke:#000000;stroke-width:0.6;stroke-linecap:round;stroke-linejoin:round;stroke-miterlimit:10;" cx="312.386" cy="95.219" rx="40.484" ry="40.484"/>
		<text transform="matrix(1 0 0 1 294.1945 151.8462)" style="font-family:'Montserrat-Regular'; font-size:9.9599px;">Gemini</text>
		<g>
			<defs>
				
					<ellipse id="SVGID_1_" transform="matrix(0.7071 -0.7071 0.7071 0.7071 24.1655 248.7792)" cx="312.386" cy="95.219" rx="40.484" ry="40.484"/>
			</defs>
			<clipPath id="SVGID_00000022526604738934350600000010662604810331647145_">
				<use xlink:href="#SVGID_1_"  style="overflow:visible;"/>
			</clipPath>
			<g style="clip-path:url(#SVGID_00000022526604738934350600000010662604810331647145_);">
				<g>
					
						<path style="fill:none;stroke:#000000;stroke-width:0.6;stroke-linecap:round;stroke-linejoin:round;stroke-miterlimit:10;" d="
						M299.586,80.8c0,0,2.736,4.511,1.775,8.43s-0.37,5.546-0.37,5.546s1.775,3.18,3.402,4.215s-1.923,2.588-1.923,2.884
						s-0.258,2.085,0.296,2.662c0.887,0.924-1.035,1.553-1.035,1.553s0.699,0.156,0.573,1.035c-0.129,0.906-1.165,0.739-1.165,1.331
						c0,0.592,1.035,3.845-2.292,4.215c-3.328,0.37-11.98,0.74-15.456-3.697c-3.476-4.437-2.514-7.395-2.514-7.395
						s-2.958-0.46-2.44-4.741c0.119-0.986,0.453-2.178,1.182-2.895c1.035-1.019,2.198-0.094,3.078,0.658
						c0.789,0.675,1.51,1.186,2.544,1.431c2.81,0.666,3.254-7.839,6.656-10.427C295.296,83.019,299.586,80.8,299.586,80.8z"/>
					
						<path style="fill:none;stroke:#000000;stroke-width:0.6;stroke-linecap:round;stroke-linejoin:round;stroke-miterlimit:10;" d="
						M281.588,95.859c0,0-0.789-0.887-1.183-0.296s1.627,2.909,0.592,3.155"/>
					
						<path style="fill:none;stroke:#000000;stroke-width:0.6;stroke-linecap:round;stroke-linejoin:round;stroke-miterlimit:10;" d="
						M301.249,100.064c0,0-0.259,0.555,0.185,0.85"/>
					
						<path style="fill:none;stroke:#000000;stroke-width:0.6;stroke-linecap:round;stroke-linejoin:round;stroke-miterlimit:10;" d="
						M302.766,104.538c0,0-0.868-0.433-1.775,0.136c-0.979,0.614-1.775,0.789-1.775,0.789s0.849,2.398,2.089,2.659"/>
					
						<path style="fill:none;stroke:#000000;stroke-width:0.6;stroke-linecap:round;stroke-linejoin:round;stroke-miterlimit:10;" d="
						M301.73,106.091c0,0-1.017,0.314-2.514-0.629"/>
					
						<path style="fill:none;stroke:#000000;stroke-width:0.6;stroke-linecap:round;stroke-linejoin:round;stroke-miterlimit:10;" d="
						M299.586,80.8c0,0,0-11.462-17.157-10.131C265.272,72,260.539,78.36,260.835,88.565c0.296,10.205,5.62,12.276-1.775,22.333
						c-7.395,10.057-3.993,28.397,11.241,31.207c15.234,2.81,32.391,1.923,38.602-18.931c6.212-20.854-5.62-23.664-4.733-32.982
						C305.058,80.874,299.586,80.8,299.586,80.8z"/>
					
						<path style="fill:none;stroke:#000000;stroke-width:0.6;stroke-linecap:round;stroke-linejoin:round;stroke-miterlimit:10;" d="
						M280.876,101.58c0,0-2.071,0.296-1.257,7.469c0.813,7.173-7.247,12.276-7.247,12.276"/>
					
						<path style="fill:none;stroke:#000000;stroke-width:0.6;stroke-linecap:round;stroke-linejoin:round;stroke-miterlimit:10;" d="
						M291.079,112.613c0,0-0.298,3.018,0,5.458c0,0-7.942,2.497-12.512-3.521"/>
					
						<path style="fill:none;stroke:#000000;stroke-width:0.6;stroke-linecap:round;stroke-linejoin:round;stroke-miterlimit:10;" d="
						M299.664,92.8c0,0-2.958-1.873-5.226,0"/>
					
						<path style="fill:none;stroke:#000000;stroke-width:0.6;stroke-linecap:round;stroke-linejoin:round;stroke-miterlimit:10;" d="
						M295.59,94.296c0,0,0.599,0.961,1.967,0.813c1.368-0.148,1.553-0.813,1.553-0.813"/>
					
						<line style="fill:none;stroke:#000000;stroke-width:0.6;stroke-linecap:round;stroke-linejoin:round;stroke-miterlimit:10;" x1="291.079" y1="118.071" x2="303.42" y2="134.125"/>
				</g>
				<g>
					
						<path style="fill:none;stroke:#000000;stroke-width:0.6;stroke-linecap:round;stroke-linejoin:round;stroke-miterlimit:10;" d="
						M325.186,80.8c0,0-2.736,4.511-1.775,8.43c0.961,3.919,0.37,5.546,0.37,5.546s-1.775,3.18-3.402,4.215
						c-1.627,1.035,1.923,2.588,1.923,2.884s0.258,2.085-0.296,2.662c-0.887,0.924,1.035,1.553,1.035,1.553
						s-0.699,0.156-0.573,1.035c0.129,0.906,1.165,0.739,1.165,1.331c0,0.592-1.035,3.845,2.293,4.215
						c3.328,0.37,11.98,0.74,15.456-3.697c3.476-4.437,2.514-7.395,2.514-7.395s2.958-0.46,2.44-4.741
						c-0.119-0.986-0.453-2.178-1.182-2.895c-1.035-1.019-2.198-0.094-3.077,0.658c-0.789,0.675-1.51,1.186-2.544,1.431
						c-2.81,0.666-3.254-7.839-6.656-10.427C329.475,83.019,325.186,80.8,325.186,80.8z"/>
					
						<path style="fill:none;stroke:#000000;stroke-width:0.6;stroke-linecap:round;stroke-linejoin:round;stroke-miterlimit:10;" d="
						M343.184,95.859c0,0,0.789-0.887,1.183-0.296c0.394,0.592-1.627,2.909-0.592,3.155"/>
					
						<path style="fill:none;stroke:#000000;stroke-width:0.6;stroke-linecap:round;stroke-linejoin:round;stroke-miterlimit:10;" d="
						M323.522,100.064c0,0,0.259,0.555-0.185,0.85"/>
					
						<path style="fill:none;stroke:#000000;stroke-width:0.6;stroke-linecap:round;stroke-linejoin:round;stroke-miterlimit:10;" d="
						M322.006,104.538c0,0,0.868-0.433,1.775,0.136c0.979,0.614,1.775,0.789,1.775,0.789s-0.849,2.398-2.089,2.659"/>
					
						<path style="fill:none;stroke:#000000;stroke-width:0.6;stroke-linecap:round;stroke-linejoin:round;stroke-miterlimit:10;" d="
						M323.042,106.091c0,0,1.017,0.314,2.514-0.629"/>
					
						<path style="fill:none;stroke:#000000;stroke-width:0.6;stroke-linecap:round;stroke-linejoin:round;stroke-miterlimit:10;" d="
						M325.186,80.8c0,0,0-11.462,17.157-10.131c17.157,1.331,21.889,7.691,21.594,17.896c-0.296,10.205-5.62,12.276,1.775,22.333
						c7.395,10.057,3.993,28.397-11.24,31.207c-15.234,2.81-32.391,1.923-38.602-18.931c-6.212-20.854,5.62-23.664,4.733-32.982
						C319.714,80.874,325.186,80.8,325.186,80.8z"/>
					
						<path style="fill:none;stroke:#000000;stroke-width:0.6;stroke-linecap:round;stroke-linejoin:round;stroke-miterlimit:10;" d="
						M343.896,101.58c0,0,2.071,0.296,1.257,7.469c-0.814,7.173,7.247,12.276,7.247,12.276"/>
					
						<path style="fill:none;stroke:#000000;stroke-width:0.6;stroke-linecap:round;stroke-linejoin:round;stroke-miterlimit:10;" d="
						M333.693,112.613c0,0,0.298,3.018,0,5.458c0,0,7.942,2.497,12.512-3.521"/>
					
						<path style="fill:none;stroke:#000000;stroke-width:0.6;stroke-linecap:round;stroke-linejoin:round;stroke-miterlimit:10;" d="
						M325.107,92.8c0,0,2.958-1.873,5.226,0"/>
					
						<path style="fill:none;stroke:#000000;stroke-width:0.6;stroke-linecap:round;stroke-linejoin:round;stroke-miterlimit:10;" d="
						M329.181,94.296c0,0-0.599,0.961-1.967,0.813c-1.368-0.148-1.553-0.813-1.553-0.813"/>
					
						<line style="fill:none;stroke:#000000;stroke-width:0.6;stroke-linecap:round;stroke-linejoin:round;stroke-miterlimit:10;" x1="333.693" y1="118.071" x2="321.352" y2="134.125"/>
				</g>
				<g>
					
						<path style="fill:none;stroke:#000000;stroke-width:0.6;stroke-linecap:round;stroke-linejoin:round;stroke-miterlimit:10;" d="
						M328.277,77.882c0,0,9.575,1.459,10.34,7.331c0.766,5.872,3.046,4.34,7.587,5.362c4.541,1.021,3.647,6.054,2.37,11.006
						s1.532,12.186,4.34,13.292"/>
					
						<path style="fill:none;stroke:#000000;stroke-width:0.6;stroke-linecap:round;stroke-linejoin:round;stroke-miterlimit:10;" d="
						M334.787,74.095c0,0,8.029,0.25,9.631,6.705"/>
					
						<path style="fill:none;stroke:#000000;stroke-width:0.6;stroke-linecap:round;stroke-linejoin:round;stroke-miterlimit:10;" d="
						M319.511,105.802c0,0-2.638,4.007-0.851,9.071c1.787,5.064,4.808,12.466,4.808,12.466"/>
				</g>
				<g>
					
						<path style="fill:none;stroke:#000000;stroke-width:0.6;stroke-linecap:round;stroke-linejoin:round;stroke-miterlimit:10;" d="
						M296.019,78.745c0,0-9.575,1.459-10.34,7.331c-0.766,5.872-3.046,4.34-7.587,5.362c-4.541,1.021-3.647,6.054-2.37,11.006
						s-1.532,12.186-4.34,13.292"/>
					
						<path style="fill:none;stroke:#000000;stroke-width:0.6;stroke-linecap:round;stroke-linejoin:round;stroke-miterlimit:10;" d="
						M289.508,74.958c0,0-8.029,0.25-9.631,6.705"/>
					
						<path style="fill:none;stroke:#000000;stroke-width:0.6;stroke-linecap:round;stroke-linejoin:round;stroke-miterlimit:10;" d="
						M304.785,106.666c0,0,2.638,4.007,0.851,9.07c-1.787,5.064-4.808,12.466-4.808,12.466"/>
				</g>
			</g>
			<g style="clip-path:url(#SVGID_00000022526604738934350600000010662604810331647145_);">
				<path style="fill:none;stroke:#000000;stroke-width:0.6;stroke-linecap:round;stroke-linejoin:round;stroke-miterlimit:10;" d="
					M311.32,76.52l1.066-2.131l1.066,2.131c0.206,0.412,0.547,0.74,0.966,0.93l1.884,0.855l-1.884,0.855
					c-0.419,0.19-0.76,0.519-0.966,0.93l-1.066,2.13l-1.066-2.13c-0.206-0.412-0.547-0.74-0.966-0.93l-1.884-0.855l1.884-0.855
					C310.772,77.26,311.114,76.931,311.32,76.52z"/>
				<g>
					
						<path style="fill:none;stroke:#000000;stroke-width:0.6;stroke-linecap:round;stroke-linejoin:round;stroke-miterlimit:10;" d="
						M320.382,65.784l0.633-1.264l0.633,1.264c0.122,0.244,0.325,0.439,0.573,0.552l1.118,0.508l-1.118,0.508
						c-0.249,0.113-0.451,0.308-0.573,0.552l-0.633,1.264l-0.633-1.264c-0.122-0.244-0.325-0.439-0.573-0.552l-1.118-0.508
						l1.118-0.508C320.058,66.223,320.26,66.028,320.382,65.784z"/>
					
						<path style="fill:none;stroke:#000000;stroke-width:0.6;stroke-linecap:round;stroke-linejoin:round;stroke-miterlimit:10;" d="
						M303.124,65.784l0.633-1.264l0.633,1.264c0.122,0.244,0.325,0.439,0.573,0.552l1.118,0.508l-1.118,0.508
						c-0.249,0.113-0.451,0.308-0.573,0.552l-0.633,1.264l-0.633-1.264c-0.122-0.244-0.325-0.439-0.573-0.552l-1.118-0.508
						l1.118-0.508C302.799,66.223,303.002,66.028,303.124,65.784z"/>
				</g>
			</g>
		</g>
	</g>
	<g>
		<g>
			<text transform="matrix(1 0 0 1 77.8947 297.5829)" style="font-family:'Montserrat-Regular'; font-size:9.9599px;">Leo</text>
		</g>
		<g>
			<g>
				<path style="fill:none;stroke:#000000;stroke-width:0.6;stroke-linecap:round;stroke-linejoin:round;stroke-miterlimit:10;" d="
					M110.635,220.19c0-12.366-10.618-22.391-23.716-22.391s-23.716,10.025-23.716,22.391c0,3.381,0.795,6.586,2.216,9.459
					c2.632,5.317,4.056,11.206,3.768,17.132c-0.015,0.305-0.022,0.613-0.022,0.922c0,10.073,7.949,18.238,17.754,18.238
					s17.754-8.165,17.754-18.238c0-0.309-0.007-0.616-0.022-0.922c-0.288-5.926,1.136-11.814,3.768-17.132
					C109.84,226.776,110.635,223.571,110.635,220.19z"/>
				<path style="fill:none;stroke:#000000;stroke-width:0.6;stroke-linecap:round;stroke-linejoin:round;stroke-miterlimit:10;" d="
					M93.874,241.7c-2.93-0.299-4.346,1.472-4.979,2.747c-0.477,0.962-1.064,1.865-1.808,2.64l-0.172,0.179l-0.174-0.183
					c-0.736-0.77-1.319-1.666-1.79-2.621c-0.629-1.277-2.046-3.061-4.986-2.762c0,0,0.062-3.114,1.853-3.378
					c0.597-0.088,1.362,0.079,2.118,0.34c1.938,0.671,4.026,0.673,5.963,0.001c0.758-0.263,1.526-0.43,2.124-0.342
					C93.811,238.586,93.874,241.7,93.874,241.7z"/>
				<path style="fill:none;stroke:#000000;stroke-width:0.6;stroke-linecap:round;stroke-linejoin:round;stroke-miterlimit:10;" d="
					M104.666,242.782c0,0-2.978,8.544-9.127,9.405c-6.148,0.861-8.621-1.722-8.621-1.722s-2.473,2.584-8.621,1.722
					c-6.148-0.861-9.127-9.405-9.127-9.405"/>
				
					<line style="fill:none;stroke:#000000;stroke-width:0.6;stroke-linecap:round;stroke-linejoin:round;stroke-miterlimit:10;" x1="86.919" y1="250.464" x2="86.919" y2="247.087"/>
				<path style="fill:none;stroke:#000000;stroke-width:0.6;stroke-linecap:round;stroke-linejoin:round;stroke-miterlimit:10;" d="
					M82.35,252.267c0,0,3.839,3.658,9.139,0"/>
				<g>
					
						<path style="fill:none;stroke:#000000;stroke-width:0.6;stroke-linecap:round;stroke-linejoin:round;stroke-miterlimit:10;" d="
						M69.172,242.782c0,0,9.4-14.775,8.605-24.314c-0.795-9.539-10.993-10.111-10.993-10.111s-2.952-9.465-12.392-9.266
						c0,0-3.779,10.851,9.239,16.853"/>
					
						<path style="fill:none;stroke:#000000;stroke-width:0.6;stroke-linecap:round;stroke-linejoin:round;stroke-miterlimit:10;" d="
						M54.392,199.091c0,0,7.775,2.386,10.843,12.024"/>
					
						<path style="fill:none;stroke:#000000;stroke-width:0.6;stroke-linecap:round;stroke-linejoin:round;stroke-miterlimit:10;" d="
						M77.808,218.993c0,0-3.211-6.157-9.106-3.838"/>
					
						<path style="fill:none;stroke:#000000;stroke-width:0.6;stroke-linecap:round;stroke-linejoin:round;stroke-miterlimit:10;" d="
						M70.272,214.717c0,0,0.297,7.514,7.544,5.4"/>
				</g>
				<g>
					
						<path style="fill:none;stroke:#000000;stroke-width:0.6;stroke-linecap:round;stroke-linejoin:round;stroke-miterlimit:10;" d="
						M104.722,242.782c0,0-9.4-14.775-8.605-24.314c0.795-9.539,10.992-10.11,10.992-10.11s2.952-9.465,12.392-9.266
						c0,0,3.779,10.851-9.239,16.853"/>
					
						<path style="fill:none;stroke:#000000;stroke-width:0.6;stroke-linecap:round;stroke-linejoin:round;stroke-miterlimit:10;" d="
						M119.501,199.091c0,0-7.775,2.386-10.843,12.024"/>
					
						<path style="fill:none;stroke:#000000;stroke-width:0.6;stroke-linecap:round;stroke-linejoin:round;stroke-miterlimit:10;" d="
						M96.085,218.993c0,0,3.211-6.157,9.106-3.838"/>
					
						<path style="fill:none;stroke:#000000;stroke-width:0.6;stroke-linecap:round;stroke-linejoin:round;stroke-miterlimit:10;" d="
						M103.621,214.717c0,0-0.297,7.514-7.544,5.4"/>
				</g>
			</g>
			<path style="fill:none;stroke:#000000;stroke-width:0.6;stroke-linecap:round;stroke-linejoin:round;stroke-miterlimit:10;" d="
				M113.287,200.398c-6.758-6.403-16.264-10.591-26.369-10.591c-10.313,0-19.657,4.099-26.451,10.737"/>
			<path style="fill:none;stroke:#000000;stroke-width:0.6;stroke-linecap:round;stroke-linejoin:round;stroke-miterlimit:10;" d="
				M54.636,207.776c-3.233,5.484-5.33,12.374-5.33,19.177c0,1.662,0.12,3.295,0.336,4.899c-0.969,3.959-3.008,14.278,0.32,20.291
				l1.926-3.729c0.246,2.606,0.878,4.996,2.124,6.773c5.22,7.467,11.691,12.014,11.691,12.014l-2.526-5.11
				c0,0,14.746,11.451,15.492,15.185c0,0,0.698-3.587,0-5.924c0,0,2.863,2.607,5.027,5.924c2.141,3.317,3.223,5.945,3.223,5.945
				v0.063c0,0,1.059-2.628,3.247-5.924c2.141-3.316,5.028-5.945,5.028-5.945c-0.722,2.357,0,5.945,0,5.945
				c0.722-3.734,15.443-15.185,15.443-15.185l-2.502,5.09c0,0,7.589-3.877,11.691-11.994c1.19-2.355,1.821-4.618,2.09-6.922
				l1.96,3.794c3.327-6.013,1.289-16.332,0.32-20.291c0.215-1.604,0.336-3.237,0.336-4.899c0-7.077-2.004-13.691-5.482-19.321"/>
			
				<line style="fill:none;stroke:#000000;stroke-width:0.6;stroke-linecap:round;stroke-linejoin:round;stroke-miterlimit:10;" x1="93.874" y1="241.7" x2="96.116" y2="218.468"/>
			
				<line style="fill:none;stroke:#000000;stroke-width:0.6;stroke-linecap:round;stroke-linejoin:round;stroke-miterlimit:10;" x1="79.964" y1="241.7" x2="77.808" y2="218.993"/>
			<g>
				<path style="fill:none;stroke:#000000;stroke-width:0.6;stroke-linecap:round;stroke-linejoin:round;stroke-miterlimit:10;" d="
					M121.917,248.348c0,0-0.16-3.592-0.87-7.767"/>
				<path style="fill:none;stroke:#000000;stroke-width:0.6;stroke-linecap:round;stroke-linejoin:round;stroke-miterlimit:10;" d="
					M110.637,262.175c0,0,2.64-3.262,2.65-8.282"/>
				
					<line style="fill:none;stroke:#000000;stroke-width:0.6;stroke-linecap:round;stroke-linejoin:round;stroke-miterlimit:10;" x1="95.194" y1="271.415" x2="98.745" y2="267.315"/>
			</g>
			<g>
				<path style="fill:none;stroke:#000000;stroke-width:0.6;stroke-linecap:round;stroke-linejoin:round;stroke-miterlimit:10;" d="
					M51.876,248.564c0,0,0.159-3.592,0.87-7.767"/>
				<path style="fill:none;stroke:#000000;stroke-width:0.6;stroke-linecap:round;stroke-linejoin:round;stroke-miterlimit:10;" d="
					M63.155,262.39c0,0-2.64-3.262-2.65-8.282"/>
				
					<line style="fill:none;stroke:#000000;stroke-width:0.6;stroke-linecap:round;stroke-linejoin:round;stroke-miterlimit:10;" x1="78.599" y1="271.63" x2="75.048" y2="267.53"/>
			</g>
		</g>
	</g>
	<g>
		<text transform="matrix(1 0 0 1 299.8464 297.5829)" style="font-family:'Montserrat-Regular'; font-size:9.9599px;">Libra</text>
		<g>
			<path style="fill:none;stroke:#000000;stroke-width:0.6;stroke-linecap:round;stroke-linejoin:round;stroke-miterlimit:10;" d="
				M360.764,217.911c0,0-14.018,2.422-25.929-2.638c-8.425-3.583-12.437-6.506-17.937-7.908c-2.946-0.751-6.084-0.753-9.03-0.002
				c-5.494,1.399-9.5,4.322-17.931,7.91c-11.911,5.06-25.929,2.638-25.929,2.638s14.853-0.44,28.585-10.783
				c7.904-5.95,14.412-7.097,18.515-6.996c0.884,0.022,1.767,0.016,2.652,0c4.116-0.074,10.584,1.099,18.418,6.996
				C345.911,217.471,360.764,217.911,360.764,217.911z"/>
			
				<line style="fill:none;stroke:#000000;stroke-width:0.5882;stroke-linecap:round;stroke-linejoin:round;stroke-miterlimit:10;" x1="312.386" y1="206.748" x2="312.386" y2="272.86"/>
			<path style="fill:none;stroke:#000000;stroke-width:0.6;stroke-linecap:round;stroke-linejoin:round;stroke-miterlimit:10;" d="
				M328.268,283.26c-2.016-5.948-8.361-10.293-15.882-10.293c-7.521,0-13.866,4.345-15.882,10.293H328.268z"/>
			<g>
				<g>
					
						<path style="fill:none;stroke:#000000;stroke-width:0.6;stroke-linecap:round;stroke-linejoin:round;stroke-miterlimit:10;" d="
						M264.008,257.642c2.016,5.948,8.361,10.293,15.882,10.293c7.521,0,13.866-4.345,15.882-10.293H264.008z"/>
					
						<polyline style="fill:none;stroke:#000000;stroke-width:0.6;stroke-linecap:round;stroke-linejoin:round;stroke-miterlimit:10;" points="
						295.772,257.642 279.89,218.107 264.008,257.642 					"/>
				</g>
				<g>
					
						<path style="fill:none;stroke:#000000;stroke-width:0.6;stroke-linecap:round;stroke-linejoin:round;stroke-miterlimit:10;" d="
						M328.999,257.642c2.016,5.948,8.361,10.293,15.882,10.293c7.521,0,13.866-4.345,15.882-10.293H328.999z"/>
					
						<polyline style="fill:none;stroke:#000000;stroke-width:0.6;stroke-linecap:round;stroke-linejoin:round;stroke-miterlimit:10;" points="
						360.764,257.642 344.882,218.107 328.999,257.642 					"/>
				</g>
				<path style="fill:none;stroke:#000000;stroke-width:0.6;stroke-linecap:round;stroke-linejoin:round;stroke-miterlimit:10;" d="
					M267.085,259.447c0,0,2.298,5.277,10.213,6.723"/>
				<path style="fill:none;stroke:#000000;stroke-width:0.6;stroke-linecap:round;stroke-linejoin:round;stroke-miterlimit:10;" d="
					M331.813,259.427c0,0,2.298,5.277,10.213,6.723"/>
			</g>
			<path style="fill:none;stroke:#000000;stroke-width:0.6;stroke-linecap:round;stroke-linejoin:round;stroke-miterlimit:10;" d="
				M325.397,281.476c0,0-2.298-5.277-10.213-6.723"/>
			<path style="fill:none;stroke:#000000;stroke-width:0.6;stroke-linecap:round;stroke-linejoin:round;stroke-miterlimit:10;" d="
				M309.516,196.914c0-1.585,1.285-2.87,2.869-2.87c1.585,0,2.869,1.285,2.869,2.87s-1.285,2.87-2.869,2.87
				C310.801,199.784,309.516,198.499,309.516,196.914z"/>
			
				<path style="fill:#FFFFFF;stroke:#000000;stroke-width:0.5882;stroke-linecap:round;stroke-linejoin:round;stroke-miterlimit:10;" d="
				M311.176,219.973c0-0.668,0.542-1.21,1.21-1.21c0.668,0,1.21,0.542,1.21,1.21c0,0.668-0.542,1.21-1.21,1.21
				C311.718,221.183,311.176,220.642,311.176,219.973z"/>
			
				<path style="fill:#FFFFFF;stroke:#000000;stroke-width:0.5882;stroke-linecap:round;stroke-linejoin:round;stroke-miterlimit:10;" d="
				M311.176,225.328c0-0.668,0.542-1.21,1.21-1.21c0.668,0,1.21,0.542,1.21,1.21c0,0.668-0.542,1.21-1.21,1.21
				C311.718,226.538,311.176,225.996,311.176,225.328z"/>
			
				<path style="fill:#FFFFFF;stroke:#000000;stroke-width:0.5882;stroke-linecap:round;stroke-linejoin:round;stroke-miterlimit:10;" d="
				M311.176,230.683c0-0.668,0.542-1.21,1.21-1.21c0.668,0,1.21,0.542,1.21,1.21c0,0.668-0.542,1.21-1.21,1.21
				C311.718,231.893,311.176,231.351,311.176,230.683z"/>
			
				<path style="fill:#FFFFFF;stroke:#000000;stroke-width:0.5882;stroke-linecap:round;stroke-linejoin:round;stroke-miterlimit:10;" d="
				M311.176,236.038c0-0.668,0.542-1.21,1.21-1.21c0.668,0,1.21,0.542,1.21,1.21s-0.542,1.21-1.21,1.21
				C311.718,237.248,311.176,236.706,311.176,236.038z"/>
		</g>
	</g>
	<g>
		<g>
			<text transform="matrix(1 0 0 1 395.881 297.5829)" style="font-family:'Montserrat-Regular'; font-size:9.9599px;">Scorpio</text>
		</g>
		<g>
			<path style="fill:none;stroke:#000000;stroke-width:0.6;stroke-linecap:round;stroke-linejoin:round;stroke-miterlimit:10;" d="
				M414.444,260.3c0,0,2.545,1.198,4.453,0.823"/>
			<path style="fill:none;stroke:#000000;stroke-width:0.6;stroke-linecap:round;stroke-linejoin:round;stroke-miterlimit:10;" d="
				M412.199,267.56c0,0,2.021,2.021,3.705,1.422"/>
			<path style="fill:none;stroke:#000000;stroke-width:0.6;stroke-linecap:round;stroke-linejoin:round;stroke-miterlimit:10;" d="
				M408.456,273.024c0,0,0.599,2.32,3.069,2.096"/>
			<path style="fill:none;stroke:#000000;stroke-width:0.6;stroke-linecap:round;stroke-linejoin:round;stroke-miterlimit:10;" d="
				M403.891,276.542c0,0,0.374,2.395,1.722,3.144"/>
			<path style="fill:none;stroke:#000000;stroke-width:0.6;stroke-linecap:round;stroke-linejoin:round;stroke-miterlimit:10;" d="
				M399.699,277.889c0,0-0.299,2.844,0.973,3.593"/>
			<g>
				<path style="fill:none;stroke:#000000;stroke-width:0.6;stroke-linecap:round;stroke-linejoin:round;stroke-miterlimit:10;" d="
					M426.119,228.317c-7.733,6.033-17.66,0.997-17.66,0.997c-2.24-9.944,1.196-15.918,4.626-18.715
					c0.246-0.205,0.492-0.387,0.739-0.557c0.311-0.217,0.627-0.405,0.95-0.569c1.724-0.897,3.547-1.061,5.165-0.428
					c0.563,0.223,1.096,0.533,1.595,0.95c0.023,0.012,0.047,0.035,0.07,0.053C428.27,215.711,426.119,228.317,426.119,228.317z"/>
				<path style="fill:none;stroke:#000000;stroke-width:0.6;stroke-linecap:round;stroke-linejoin:round;stroke-miterlimit:10;" d="
					M427.35,235.305c-0.041,0.768-0.129,1.53-0.24,2.275c-0.211,1.354-0.522,2.633-0.856,3.758c-0.358,1.208-0.739,2.24-1.044,3.002
					c-0.369,0.909-0.633,1.436-0.633,1.436c-0.903,1.149-1.982,1.894-3.137,2.339c-2.65,1.014-5.711,0.469-8.009-0.27
					c-2.04-0.657-3.477-1.466-3.477-1.466c-0.264-0.657-0.498-1.325-0.698-1.999c-0.311-1.026-0.545-2.064-0.727-3.09v-0.006
					c-0.223-1.267-0.358-2.521-0.428-3.706c-0.035-0.533-0.059-1.055-0.065-1.56c-0.041-1.782,0.047-3.348,0.152-4.515
					c0.123-1.366,0.27-2.193,0.27-2.193s9.926,5.036,17.66-0.997c0.457,0.938,0.774,1.929,0.979,2.943c0,0.012,0,0.018,0.006,0.029
					c-0.012,0.041-0.029,0.117,0.018,0.135C427.362,232.702,427.414,234.016,427.35,235.305z"/>
				<path style="fill:none;stroke:#000000;stroke-width:0.6;stroke-linecap:round;stroke-linejoin:round;stroke-miterlimit:10;" d="
					M427.121,231.424c-0.006-0.041-0.012-0.088-0.018-0.135"/>
				<path style="fill:none;stroke:#000000;stroke-width:0.6;stroke-linecap:round;stroke-linejoin:round;stroke-miterlimit:10;" d="
					M423.574,206.811c0,0-2.117,0.956-2.04,3.184c-0.498-0.416-1.032-0.727-1.595-0.95c0.076-0.557,0.352-1.384,1.278-1.823
					C422.712,206.512,423.574,206.811,423.574,206.811z"/>
				<path style="fill:none;stroke:#000000;stroke-width:0.6;stroke-linecap:round;stroke-linejoin:round;stroke-miterlimit:10;" d="
					M414.773,209.473c-0.323,0.164-0.639,0.352-0.95,0.569c-0.246,0.17-0.492,0.352-0.739,0.557
					c0.522-2.662-1.976-3.788-1.976-3.788s0.862-0.299,2.357,0.411C414.68,207.796,414.773,209.027,414.773,209.473z"/>
			</g>
			<g>
				<g>
					<g>
						
							<path style="fill:none;stroke:#000000;stroke-width:0.6;stroke-linecap:round;stroke-linejoin:round;stroke-miterlimit:10;" d="
							M408.037,236.021c-1.272-1.671-2.304-3.348-2.304-3.348c-1.348-0.153-3.436-1.964-3.436-1.964
							c-1.307,0.985-5.5-0.012-5.5-0.012s0,0-0.78,0.44c-0.786,0.428-4.092,1.53-4.092,1.53c0.328-2.076,3.102-3.318,3.102-3.318
							c1.718-2.938,6.01-1.489,6.01-1.489c3.553-0.944,6.819,3.524,6.819,3.524c0.006,0,0.006,0,0.006,0
							c0.111,0.035,0.217,0.076,0.328,0.123C408.084,232.673,407.996,234.238,408.037,236.021z"/>
						
							<path style="fill:none;stroke:#000000;stroke-width:0.6;stroke-linecap:round;stroke-linejoin:round;stroke-miterlimit:10;" d="
							M407.859,231.383c0,0-1.544,0.424-2.128,1.287"/>
						
							<path style="fill:none;stroke:#000000;stroke-width:0.6;stroke-linecap:round;stroke-linejoin:round;stroke-miterlimit:10;" d="
							M402.295,230.707c0,0-1.737-1.355-1.26-2.848"/>
					</g>
					<g>
						
							<path style="fill:none;stroke:#000000;stroke-width:0.6;stroke-linecap:round;stroke-linejoin:round;stroke-miterlimit:10;" d="
							M408.529,241.286c-1.36-0.938-2.404-1.782-2.404-1.782h-0.006c-1.319,0.311-3.893-0.698-3.893-0.698
							c-0.897,1.372-5.183,1.829-5.183,1.829s0,0-0.586,0.674c-0.598,0.668-3.348,2.814-3.348,2.814
							c-0.381-2.064,1.818-4.163,1.818-4.163c0.627-3.348,5.16-3.418,5.16-3.418c3.031-2.081,7.604,1.038,7.604,1.038
							c0.006,0,0.006,0,0.006,0c0.135-0.006,0.27-0.006,0.405,0C408.172,238.765,408.306,240.019,408.529,241.286z"/>
						
							<path style="fill:none;stroke:#000000;stroke-width:0.6;stroke-linecap:round;stroke-linejoin:round;stroke-miterlimit:10;" d="
							M407.696,237.579c0,0-1.313,0.917-1.574,1.926"/>
						
							<path style="fill:none;stroke:#000000;stroke-width:0.6;stroke-linecap:round;stroke-linejoin:round;stroke-miterlimit:10;" d="
							M402.227,238.806c0,0-2.09-0.695-2.141-2.262"/>
					</g>
					<g>
						
							<path style="fill:none;stroke:#000000;stroke-width:0.6;stroke-linecap:round;stroke-linejoin:round;stroke-miterlimit:10;" d="
							M410.353,248.087c-1.747-0.563-3.201-1.167-3.201-1.167c-1.178,0.668-3.934,0.422-3.934,0.422
							c-0.481,1.571-4.462,3.213-4.462,3.213s0,0-0.375,0.815c-0.381,0.809-2.422,3.641-2.422,3.641
							c-0.944-1.87,0.575-4.503,0.575-4.503c-0.334-3.389,3.993-4.737,3.993-4.737c2.322-2.844,7.587-1.143,7.587-1.143h0.006
							c0.358-0.117,0.739-0.199,1.137-0.246c0.199,0.674,0.434,1.343,0.698,1.999C409.954,246.381,410.095,247.038,410.353,248.087z
							"/>
						
							<path style="fill:none;stroke:#000000;stroke-width:0.6;stroke-linecap:round;stroke-linejoin:round;stroke-miterlimit:10;" d="
							M408.118,244.63c0,0-1.002,1.249-0.97,2.291"/>
						
							<path style="fill:none;stroke:#000000;stroke-width:0.6;stroke-linecap:round;stroke-linejoin:round;stroke-miterlimit:10;" d="
							M403.215,247.345c0,0-2.201-0.08-2.69-1.569"/>
					</g>
					<g>
						
							<path style="fill:none;stroke:#000000;stroke-width:0.6;stroke-linecap:round;stroke-linejoin:round;stroke-miterlimit:10;" d="
							M424.758,248.005c0,0.827-0.076,1.636-0.211,2.416c-0.229,1.372-0.639,2.662-1.137,3.84c-1.73,4.116-4.515,6.86-4.515,6.86
							c1.501,4.567-2.99,7.863-2.99,7.863c0.147,5.388-4.38,6.139-4.38,6.139c-0.223,4.561-5.916,4.561-5.916,4.561
							c-1.419,2.92-4.937,1.8-4.937,1.8c-5.242,2.767-11.228,2.691-13.397-2.697c-2.169-5.388,0-9.727,0-9.727
							s2.92,8.455,6.209,6.66c3.295-1.8,6.215,2.169,6.215,2.169c0.451-1.495,4.192-1.349,4.192-1.349
							c0.522-3.066,4.567-3.518,4.567-3.518c0-3.665,3.741-5.465,3.741-5.465c-0.598-2.691,2.246-7.259,2.246-7.259
							c-0.879-1.583-1.712-3.864-2.416-6.127c-0.434-1.372-0.815-2.738-1.132-3.928c-0.211-0.815-0.399-1.554-0.545-2.158
							c-0.258-1.049-0.399-1.706-0.399-1.706s1.436,0.809,3.477,1.466c2.298,0.739,5.359,1.284,8.009,0.27
							c1.155-0.446,2.234-1.19,3.137-2.339C424.7,246.533,424.758,247.278,424.758,248.005z"/>
						
							<path style="fill:none;stroke:#000000;stroke-width:0.6;stroke-linecap:round;stroke-linejoin:round;stroke-miterlimit:10;" d="
							M412.029,254.173c-2.38,0.387-4.948,0.475-4.948,0.475c-0.803,1.096-3.412,2.017-3.412,2.017
							c0.211,1.624-2.732,4.767-2.732,4.767s0,0-0.006,0.897c-0.012,0.891-0.698,4.315-0.698,4.315
							c-1.642-1.313-1.343-4.339-1.343-4.339c-1.706-2.949,1.677-5.957,1.677-5.957v-0.006c0.944-3.553,6.438-4.175,6.438-4.175
							l0.006-0.006c0.962-0.885,2.369-1.501,3.887-1.917C411.214,251.435,411.596,252.801,412.029,254.173z"/>
						
							<path style="fill:none;stroke:#000000;stroke-width:0.6;stroke-linecap:round;stroke-linejoin:round;stroke-miterlimit:10;" d="
							M407.01,252.164c0,0-0.396,1.552,0.064,2.486"/>
						
							<path style="fill:none;stroke:#000000;stroke-width:0.6;stroke-linecap:round;stroke-linejoin:round;stroke-miterlimit:10;" d="
							M403.667,256.662c0,0-2.037,0.837-3.098-0.316"/>
					</g>
				</g>
				<g>
					<g>
						
							<path style="fill:none;stroke:#000000;stroke-width:0.6;stroke-linecap:round;stroke-linejoin:round;stroke-miterlimit:10;" d="
							M442.928,232.667c0,0-3.313-1.102-4.098-1.53c-0.78-0.44-0.78-0.44-0.78-0.44s-4.186,0.997-5.494,0.012
							c0,0-2.087,1.806-3.436,1.964h-0.006c0,0-0.75,1.225-1.765,2.632c0.065-1.29,0.012-2.603-0.229-3.881
							c-0.047-0.018-0.029-0.094-0.018-0.135c0-0.018,0-0.029-0.006-0.029c0.551-0.709,3.518-4.251,6.713-3.401c0,0,0,0,0.006,0
							c0.129-0.041,4.321-1.401,6.01,1.489C439.827,229.349,442.6,230.592,442.928,232.667z"/>
						
							<path style="fill:none;stroke:#000000;stroke-width:0.6;stroke-linecap:round;stroke-linejoin:round;stroke-miterlimit:10;" d="
							M427.121,231.424c0.381,0.123,1.519,0.534,1.999,1.249"/>
						
							<path style="fill:none;stroke:#000000;stroke-width:0.6;stroke-linecap:round;stroke-linejoin:round;stroke-miterlimit:10;" d="
							M432.556,230.707c0,0,1.737-1.355,1.26-2.848"/>
					</g>
					<g>
						
							<path style="fill:none;stroke:#000000;stroke-width:0.6;stroke-linecap:round;stroke-linejoin:round;stroke-miterlimit:10;" d="
							M441.738,244.124c0,0-2.75-2.146-3.342-2.814c-0.592-0.674-0.592-0.674-0.592-0.674s-4.28-0.457-5.183-1.829
							c0,0-2.574,1.008-3.893,0.698c0,0-1.085,0.874-2.474,1.835c0.334-1.126,0.645-2.404,0.856-3.758h0.047
							c0,0,4.573-3.119,7.604-1.038c0,0,0,0,0.006,0c0.188,0.006,4.538,0.141,5.16,3.418
							C439.926,239.961,442.125,242.06,441.738,244.124z"/>
						
							<path style="fill:none;stroke:#000000;stroke-width:0.6;stroke-linecap:round;stroke-linejoin:round;stroke-miterlimit:10;" d="
							M427.156,237.579c0,0,1.313,0.917,1.574,1.926"/>
						
							<path style="fill:none;stroke:#000000;stroke-width:0.6;stroke-linecap:round;stroke-linejoin:round;stroke-miterlimit:10;" d="
							M432.624,238.806c0,0,2.09-0.695,2.141-2.262"/>
					</g>
					<g>
						
							<path style="fill:none;stroke:#000000;stroke-width:0.6;stroke-linecap:round;stroke-linejoin:round;stroke-miterlimit:10;" d="
							M438.888,255.011c0,0-2.034-2.832-2.416-3.641c-0.375-0.815-0.375-0.815-0.375-0.815s-3.981-1.642-4.462-3.213
							c0,0-2.75,0.246-3.934-0.422h-0.006c0,0-1.313,0.545-2.937,1.085c0-0.727-0.059-1.472-0.182-2.228
							c0,0,0.264-0.528,0.633-1.436c0.539,0.041,1.055,0.129,1.524,0.287c0,0,5.265-1.7,7.593,1.143c0,0,4.327,1.349,3.993,4.737
							C438.32,250.509,439.838,253.141,438.888,255.011z"/>
						
							<path style="fill:none;stroke:#000000;stroke-width:0.6;stroke-linecap:round;stroke-linejoin:round;stroke-miterlimit:10;" d="
							M426.733,244.63c0,0,1.002,1.249,0.969,2.291"/>
						
							<path style="fill:none;stroke:#000000;stroke-width:0.6;stroke-linecap:round;stroke-linejoin:round;stroke-miterlimit:10;" d="
							M431.636,247.345c0,0,2.201-0.08,2.69-1.569"/>
					</g>
					<g>
						
							<path style="fill:none;stroke:#000000;stroke-width:0.6;stroke-linecap:round;stroke-linejoin:round;stroke-miterlimit:10;" d="
							M435.963,262.305c0,0,0.293,3.025-1.343,4.339c0,0-0.686-3.424-0.698-4.315c-0.006-0.897-0.006-0.897-0.006-0.897
							s-2.943-3.143-2.732-4.767c0,0-2.615-0.921-3.412-2.017c0,0-2.169-0.07-4.362-0.387c0.498-1.178,0.909-2.468,1.137-3.84
							c1.29,0.41,2.462,0.973,3.295,1.747c0,0,5.5,0.622,6.438,4.175v0.006C434.28,256.348,437.669,259.356,435.963,262.305z"/>
						
							<path style="fill:none;stroke:#000000;stroke-width:0.6;stroke-linecap:round;stroke-linejoin:round;stroke-miterlimit:10;" d="
							M427.842,252.164c0,0,0.396,1.552-0.064,2.486"/>
						
							<path style="fill:none;stroke:#000000;stroke-width:0.6;stroke-linecap:round;stroke-linejoin:round;stroke-miterlimit:10;" d="
							M431.184,256.662c0,0,2.037,0.837,3.098-0.316"/>
					</g>
				</g>
			</g>
			<g>
				<g>
					
						<path style="fill:none;stroke:#000000;stroke-width:0.6;stroke-linecap:round;stroke-linejoin:round;stroke-miterlimit:10;" d="
						M440.449,212.398c-0.498,1.809-3.403,1.718-3.403,1.718c-1.473,2.102-4.231,2.643-6.235,2.733l-1.671-3.851
						c1.164-0.676,4.941-2.785,5.89-2.249c0,0-0.311-0.785,0.372-1.305c0,0-2.261-3.083-0.281-5.286c0,0-3.692-0.967-5.635-5.718
						c-1.947-4.752,1.614-7.302,1.614-7.302c-0.028,2.878,2.872,6.427,2.872,6.427c0.73-2.327-3.052-7.757-3.052-7.757
						c6.143,1.419,8.636,4.65,9.854,7.535c1.218,2.886-1.24,6.188-1.24,6.188c1.592,1.924,0.313,4.393,0.313,4.393
						S440.944,210.583,440.449,212.398z"/>
					
						<path style="fill:none;stroke:#000000;stroke-width:0.6;stroke-linecap:round;stroke-linejoin:round;stroke-miterlimit:10;" d="
						M435.031,210.748c0,0,2.333,1.715,2.017,3.368"/>
					
						<path style="fill:none;stroke:#000000;stroke-width:0.6;stroke-linecap:round;stroke-linejoin:round;stroke-miterlimit:10;" d="
						M439.847,207.925c0,0-3.107-0.171-4.443,1.521"/>
					
						<path style="fill:none;stroke:#000000;stroke-width:0.6;stroke-linecap:round;stroke-linejoin:round;stroke-miterlimit:10;" d="
						M439.536,203.531c0,0-2.723-0.769-4.413,0.628"/>
				</g>
				<path style="fill:none;stroke:#000000;stroke-width:0.6;stroke-linecap:round;stroke-linejoin:round;stroke-miterlimit:10;" d="
					M429.141,212.998c0,0-3.719-1.077-4.866,0.409"/>
				<path style="fill:none;stroke:#000000;stroke-width:0.6;stroke-linecap:round;stroke-linejoin:round;stroke-miterlimit:10;" d="
					M430.811,216.849c0,0-1.366,2.529-4.725,2.157"/>
			</g>
			<g>
				<g>
					
						<path style="fill:none;stroke:#000000;stroke-width:0.6;stroke-linecap:round;stroke-linejoin:round;stroke-miterlimit:10;" d="
						M393.74,212.505c0.498,1.809,3.403,1.718,3.403,1.718c1.473,2.102,4.231,2.643,6.235,2.733l1.671-3.851
						c-1.165-0.676-4.941-2.785-5.89-2.249c0,0,0.311-0.785-0.372-1.305c0,0,2.261-3.083,0.281-5.286c0,0,3.692-0.967,5.635-5.718
						c1.947-4.752-1.614-7.302-1.614-7.302c0.028,2.878-2.872,6.427-2.872,6.427c-0.73-2.327,3.052-7.757,3.052-7.757
						c-6.143,1.42-8.636,4.65-9.854,7.536c-1.218,2.886,1.239,6.188,1.239,6.188c-1.592,1.924-0.313,4.393-0.313,4.393
						S393.245,210.691,393.74,212.505z"/>
					
						<path style="fill:none;stroke:#000000;stroke-width:0.6;stroke-linecap:round;stroke-linejoin:round;stroke-miterlimit:10;" d="
						M399.159,210.855c0,0-2.333,1.715-2.017,3.368"/>
					
						<path style="fill:none;stroke:#000000;stroke-width:0.6;stroke-linecap:round;stroke-linejoin:round;stroke-miterlimit:10;" d="
						M394.343,208.032c0,0,3.107-0.171,4.443,1.521"/>
					
						<path style="fill:none;stroke:#000000;stroke-width:0.6;stroke-linecap:round;stroke-linejoin:round;stroke-miterlimit:10;" d="
						M394.654,203.638c0,0,2.723-0.768,4.413,0.628"/>
				</g>
				<path style="fill:none;stroke:#000000;stroke-width:0.6;stroke-linecap:round;stroke-linejoin:round;stroke-miterlimit:10;" d="
					M405.049,213.105c0,0,4.153-0.913,5.301,0.573"/>
				<path style="fill:none;stroke:#000000;stroke-width:0.6;stroke-linecap:round;stroke-linejoin:round;stroke-miterlimit:10;" d="
					M403.378,216.956c0,0,1.366,2.53,4.725,2.158"/>
			</g>
		</g>
	</g>
	<g>
		<text transform="matrix(1 0 0 1 186.9559 297.5831)" style="font-family:'Montserrat-Regular'; font-size:9.9599px;">Virgo</text>
		<g>
			
				<ellipse transform="matrix(0.7071 -0.7071 0.7071 0.7071 -110.9406 211.7648)" style="fill:none;stroke:#000000;stroke-width:0.6;stroke-linecap:round;stroke-linejoin:round;stroke-miterlimit:10;" cx="200.152" cy="239.8" rx="40.484" ry="40.484"/>
			<g>
				<path style="fill:none;stroke:#000000;stroke-width:0.6;stroke-linecap:round;stroke-linejoin:round;stroke-miterlimit:10;" d="
					M221.005,242.838c0,0.31-0.28,2.23,0.32,2.85c0.95,0.99-1.11,1.66-1.11,1.66s0.75,0.17,0.61,1.11c-0.14,0.97-1.25,0.8-1.25,1.43
					s1.11,4.12-2.45,4.52c-3.57,0.39-12.84,0.79-16.56-3.97c-3.73-4.75-2.7-7.92-2.7-7.92s-3.17-0.49-2.61-5.08
					c0.13-1.06,0.48-2.33,1.26-3.1c1.11-1.09,2.36-0.1,3.3,0.7c0.85,0.73,1.62,1.28,2.73,1.54c1.52,0.36,2.39-1.79,3.36-4.36
					c0,0,0.7-1.86,5.85-3.92c2.56-1.02,5.71-1.17,8.25-1.76c0.07,0.91,0.03,1.84-0.19,2.75c-1.03,4.2-0.39,5.94-0.39,5.94
					s1.9,3.41,3.64,4.52C224.805,240.858,221.005,242.518,221.005,242.838z"/>
				<path style="fill:none;stroke:#000000;stroke-width:0.6;stroke-linecap:round;stroke-linejoin:round;stroke-miterlimit:10;" d="
					M198.631,236.388c0,0-0.845-0.951-1.268-0.317c-0.423,0.634,1.743,3.117,0.634,3.381"/>
				<path style="fill:none;stroke:#000000;stroke-width:0.6;stroke-linecap:round;stroke-linejoin:round;stroke-miterlimit:10;" d="
					M219.697,240.894c0,0-0.277,0.594,0.198,0.911"/>
				<path style="fill:none;stroke:#000000;stroke-width:0.6;stroke-linecap:round;stroke-linejoin:round;stroke-miterlimit:10;" d="
					M221.322,245.688c0,0-0.931-0.464-1.902,0.145c-1.049,0.658-1.902,0.845-1.902,0.845s0.91,2.569,2.238,2.85"/>
				<path style="fill:none;stroke:#000000;stroke-width:0.6;stroke-linecap:round;stroke-linejoin:round;stroke-miterlimit:10;" d="
					M220.212,247.352c0,0-1.089,0.337-2.694-0.673"/>
				<path style="fill:none;stroke:#000000;stroke-width:0.6;stroke-linecap:round;stroke-linejoin:round;stroke-miterlimit:10;" d="
					M208.8,254.34c0,0-0.319,3.234,0,5.849c0,0-8.51,2.676-13.406-3.773c0,0-5.21,13.799-5.212,22.628"/>
				<path style="fill:none;stroke:#000000;stroke-width:0.6;stroke-linecap:round;stroke-linejoin:round;stroke-miterlimit:10;" d="
					M217.999,233.11c0,0-3.17-2.007-5.599,0"/>
				<path style="fill:none;stroke:#000000;stroke-width:0.6;stroke-linecap:round;stroke-linejoin:round;stroke-miterlimit:10;" d="
					M213.634,234.713c0,0,0.642,1.03,2.108,0.872c1.466-0.159,1.664-0.872,1.664-0.872"/>
				
					<line style="fill:none;stroke:#000000;stroke-width:0.6;stroke-linecap:round;stroke-linejoin:round;stroke-miterlimit:10;" x1="219.756" y1="274.441" x2="208.8" y2="260.188"/>
				<path style="fill:none;stroke:#000000;stroke-width:0.6;stroke-linecap:round;stroke-linejoin:round;stroke-miterlimit:10;" d="
					M202.095,199.368c9.46,3,13.29,10.75,14.82,15.92"/>
				
					<line style="fill:none;stroke:#000000;stroke-width:0.6;stroke-linecap:round;stroke-linejoin:round;stroke-miterlimit:10;" x1="197.868" y1="242.518" x2="195.394" y2="256.415"/>
				<path style="fill:none;stroke:#000000;stroke-width:0.6;stroke-linecap:round;stroke-linejoin:round;stroke-miterlimit:10;" d="
					M224.525,221.868c0,2.97-1.94,4.05-4.52,4.67c-2.54,0.59-5.69,0.74-8.25,1.76c-5.15,2.06-5.85,3.92-5.85,3.92s0-0.01,0-0.02
					c0.03-0.66,0.92-17.36,11.01-16.91C216.915,215.288,224.525,215.998,224.525,221.868z"/>
				<path style="fill:none;stroke:#000000;stroke-width:0.6;stroke-linecap:round;stroke-linejoin:round;stroke-miterlimit:10;" d="
					M211.498,217.133c0,0-7.02-7.388-22.211-2.41s-21.064,16.399-19.787,27.795c1.277,11.396,2.154,18.3-1.987,21.231"/>
				<path style="fill:none;stroke:#000000;stroke-width:0.6;stroke-linecap:round;stroke-linejoin:round;stroke-miterlimit:10;" d="
					M176.706,272.804c0,0,9.389-2.114,10.028-15.863c0.638-13.749-4.213-27.853,5.682-32.725
					c10.243-5.043,13.489,8.002,13.489,8.002"/>
				<path style="fill:none;stroke:#000000;stroke-width:0.6;stroke-linecap:round;stroke-linejoin:round;stroke-miterlimit:10;" d="
					M220.005,226.538c6.647,0.563,10.42,7.082,10.448,13.255c0.018,3.901-1.779,7.348-3.775,10.584
					c-2.085,3.381-5.217,7.867-5.356,11.963c-0.247,7.277,5.846,7.607,5.846,7.607"/>
			</g>
		</g>
	</g>
</g>
</svg>
