<?xml version="1.0" encoding="utf-8"?>
<!-- Generator: Adobe Illustrator 27.5.0, SVG Export Plug-In . SVG Version: 6.00 Build 0)  -->
<svg version="1.1" xmlns="http://www.w3.org/2000/svg" xmlns:xlink="http://www.w3.org/1999/xlink" x="0px" y="0px"
	 viewBox="0 0 500 500" style="enable-background:new 0 0 500 500;" xml:space="preserve">
<g id="BACKGROUND">
	<rect style="fill:#2A222F;" width="500" height="500"/>
</g>
<g id="OBJECTS">
	<g>
		<g>
			
				<line style="fill:#2A222F;stroke:#D8BFA0;stroke-linecap:square;stroke-linejoin:bevel;stroke-miterlimit:10;" x1="58.738" y1="60.637" x2="58.738" y2="66.179"/>
			
				<line style="fill:#2A222F;stroke:#D8BFA0;stroke-linecap:square;stroke-linejoin:bevel;stroke-miterlimit:10;" x1="61.51" y1="63.408" x2="55.967" y2="63.408"/>
		</g>
		<g>
			
				<line style="fill:#2A222F;stroke:#D8BFA0;stroke-linecap:square;stroke-linejoin:bevel;stroke-miterlimit:10;" x1="60.042" y1="188.931" x2="60.042" y2="194.473"/>
			
				<line style="fill:#2A222F;stroke:#D8BFA0;stroke-linecap:square;stroke-linejoin:bevel;stroke-miterlimit:10;" x1="62.813" y1="191.702" x2="57.27" y2="191.702"/>
		</g>
		<g>
			
				<line style="fill:#2A222F;stroke:#D8BFA0;stroke-linecap:square;stroke-linejoin:bevel;stroke-miterlimit:10;" x1="110.997" y1="337.833" x2="110.997" y2="343.376"/>
			
				<line style="fill:#2A222F;stroke:#D8BFA0;stroke-linecap:square;stroke-linejoin:bevel;stroke-miterlimit:10;" x1="113.769" y1="340.604" x2="108.226" y2="340.604"/>
		</g>
		<g>
			
				<line style="fill:#2A222F;stroke:#D8BFA0;stroke-linecap:square;stroke-linejoin:bevel;stroke-miterlimit:10;" x1="160.576" y1="230.706" x2="160.576" y2="236.249"/>
			
				<line style="fill:#2A222F;stroke:#D8BFA0;stroke-linecap:square;stroke-linejoin:bevel;stroke-miterlimit:10;" x1="163.348" y1="233.478" x2="157.805" y2="233.478"/>
		</g>
		<g>
			
				<line style="fill:#2A222F;stroke:#D8BFA0;stroke-linecap:square;stroke-linejoin:bevel;stroke-miterlimit:10;" x1="123.176" y1="380.298" x2="123.176" y2="385.841"/>
			
				<line style="fill:#2A222F;stroke:#D8BFA0;stroke-linecap:square;stroke-linejoin:bevel;stroke-miterlimit:10;" x1="125.947" y1="383.07" x2="120.404" y2="383.07"/>
		</g>
		<g>
			
				<line style="fill:#2A222F;stroke:#D8BFA0;stroke-linecap:square;stroke-linejoin:bevel;stroke-miterlimit:10;" x1="197.297" y1="359.668" x2="197.297" y2="365.21"/>
			
				<line style="fill:#2A222F;stroke:#D8BFA0;stroke-linecap:square;stroke-linejoin:bevel;stroke-miterlimit:10;" x1="200.069" y1="362.439" x2="194.526" y2="362.439"/>
		</g>
		<g>
			
				<line style="fill:#2A222F;stroke:#D8BFA0;stroke-linecap:square;stroke-linejoin:bevel;stroke-miterlimit:10;" x1="251.617" y1="369.88" x2="251.617" y2="375.422"/>
			
				<line style="fill:#2A222F;stroke:#D8BFA0;stroke-linecap:square;stroke-linejoin:bevel;stroke-miterlimit:10;" x1="254.388" y1="372.651" x2="248.846" y2="372.651"/>
		</g>
		<g>
			
				<line style="fill:#2A222F;stroke:#D8BFA0;stroke-linecap:square;stroke-linejoin:bevel;stroke-miterlimit:10;" x1="345.109" y1="345.31" x2="345.109" y2="350.853"/>
			
				<line style="fill:#2A222F;stroke:#D8BFA0;stroke-linecap:square;stroke-linejoin:bevel;stroke-miterlimit:10;" x1="347.88" y1="348.081" x2="342.338" y2="348.081"/>
		</g>
		<g>
			
				<line style="fill:#2A222F;stroke:#D8BFA0;stroke-linecap:square;stroke-linejoin:bevel;stroke-miterlimit:10;" x1="330.121" y1="322.835" x2="330.121" y2="328.377"/>
			
				<line style="fill:#2A222F;stroke:#D8BFA0;stroke-linecap:square;stroke-linejoin:bevel;stroke-miterlimit:10;" x1="332.892" y1="325.606" x2="327.35" y2="325.606"/>
		</g>
		<g>
			
				<line style="fill:#2A222F;stroke:#D8BFA0;stroke-linecap:square;stroke-linejoin:bevel;stroke-miterlimit:10;" x1="453.835" y1="338.75" x2="453.835" y2="344.292"/>
			
				<line style="fill:#2A222F;stroke:#D8BFA0;stroke-linecap:square;stroke-linejoin:bevel;stroke-miterlimit:10;" x1="456.606" y1="341.521" x2="451.064" y2="341.521"/>
		</g>
		<g>
			
				<line style="fill:#2A222F;stroke:#D8BFA0;stroke-linecap:square;stroke-linejoin:bevel;stroke-miterlimit:10;" x1="381.137" y1="377.199" x2="381.137" y2="382.741"/>
			
				<line style="fill:#2A222F;stroke:#D8BFA0;stroke-linecap:square;stroke-linejoin:bevel;stroke-miterlimit:10;" x1="383.908" y1="379.97" x2="378.366" y2="379.97"/>
		</g>
		<g>
			
				<line style="fill:#2A222F;stroke:#D8BFA0;stroke-linecap:square;stroke-linejoin:bevel;stroke-miterlimit:10;" x1="290.026" y1="191.702" x2="290.026" y2="197.245"/>
			
				<line style="fill:#2A222F;stroke:#D8BFA0;stroke-linecap:square;stroke-linejoin:bevel;stroke-miterlimit:10;" x1="292.798" y1="194.473" x2="287.255" y2="194.473"/>
		</g>
		<g>
			
				<line style="fill:#2A222F;stroke:#D8BFA0;stroke-linecap:square;stroke-linejoin:bevel;stroke-miterlimit:10;" x1="450.173" y1="223.078" x2="450.173" y2="228.621"/>
			
				<line style="fill:#2A222F;stroke:#D8BFA0;stroke-linecap:square;stroke-linejoin:bevel;stroke-miterlimit:10;" x1="452.944" y1="225.85" x2="447.401" y2="225.85"/>
		</g>
		<g>
			
				<line style="fill:#2A222F;stroke:#D8BFA0;stroke-linecap:square;stroke-linejoin:bevel;stroke-miterlimit:10;" x1="236.783" y1="48.303" x2="236.783" y2="53.846"/>
			
				<line style="fill:#2A222F;stroke:#D8BFA0;stroke-linecap:square;stroke-linejoin:bevel;stroke-miterlimit:10;" x1="239.555" y1="51.075" x2="234.012" y2="51.075"/>
		</g>
		<g>
			
				<line style="fill:#2A222F;stroke:#D8BFA0;stroke-linecap:square;stroke-linejoin:bevel;stroke-miterlimit:10;" x1="347.88" y1="48.303" x2="347.88" y2="53.846"/>
			
				<line style="fill:#2A222F;stroke:#D8BFA0;stroke-linecap:square;stroke-linejoin:bevel;stroke-miterlimit:10;" x1="350.652" y1="51.075" x2="345.109" y2="51.075"/>
		</g>
		<g>
			
				<line style="fill:#2A222F;stroke:#D8BFA0;stroke-linecap:square;stroke-linejoin:bevel;stroke-miterlimit:10;" x1="457.062" y1="38.345" x2="457.062" y2="43.887"/>
			
				<line style="fill:#2A222F;stroke:#D8BFA0;stroke-linecap:square;stroke-linejoin:bevel;stroke-miterlimit:10;" x1="459.834" y1="41.116" x2="454.291" y2="41.116"/>
		</g>
		<g>
			
				<line style="fill:#2A222F;stroke:#D8BFA0;stroke-linecap:square;stroke-linejoin:bevel;stroke-miterlimit:10;" x1="395.067" y1="110.22" x2="395.067" y2="115.763"/>
			
				<line style="fill:#2A222F;stroke:#D8BFA0;stroke-linecap:square;stroke-linejoin:bevel;stroke-miterlimit:10;" x1="397.838" y1="112.991" x2="392.295" y2="112.991"/>
		</g>
		<path style="fill:#2A222F;stroke:#D8BFA0;stroke-linecap:square;stroke-linejoin:bevel;stroke-miterlimit:10;" d="M68.607,51.144
			c0,0,4.059,0.246,4.059,5.658h0.137c0-5.411,4.059-5.658,4.059-5.658v-0.139c0,0-4.059-0.246-4.059-5.658h-0.137
			c0,5.412-4.059,5.658-4.059,5.658V51.144z"/>
		<path style="fill:#2A222F;stroke:#D8BFA0;stroke-linecap:square;stroke-linejoin:bevel;stroke-miterlimit:10;" d="M171.484,59.548
			c0,0,4.059,0.246,4.059,5.657h0.137c0-5.411,4.059-5.657,4.059-5.657v-0.139c0,0-4.059-0.246-4.059-5.658h-0.137
			c0,5.411-4.059,5.658-4.059,5.658V59.548z"/>
		<path style="fill:#2A222F;stroke:#D8BFA0;stroke-linecap:square;stroke-linejoin:bevel;stroke-miterlimit:10;" d="M325.994,39.185
			c0,0,4.059,0.246,4.059,5.658h0.137c0-5.412,4.059-5.658,4.059-5.658v-0.139c0,0-4.059-0.246-4.059-5.658h-0.137
			c0,5.411-4.059,5.658-4.059,5.658V39.185z"/>
		<path style="fill:#2A222F;stroke:#D8BFA0;stroke-linecap:square;stroke-linejoin:bevel;stroke-miterlimit:10;" d="M44.086,212.084
			c0,0,4.059,0.246,4.059,5.658h0.137c0-5.411,4.059-5.658,4.059-5.658v-0.139c0,0-4.059-0.246-4.059-5.658h-0.137
			c0,5.411-4.059,5.658-4.059,5.658V212.084z"/>
		<path style="fill:#2A222F;stroke:#D8BFA0;stroke-linecap:square;stroke-linejoin:bevel;stroke-miterlimit:10;" d="M54.611,366.993
			c0,0,4.059,0.246,4.059,5.658h0.137c0-5.411,4.059-5.658,4.059-5.658v-0.139c0,0-4.059-0.246-4.059-5.658H58.67
			c0,5.411-4.059,5.658-4.059,5.658V366.993z"/>
		<path style="fill:#2A222F;stroke:#D8BFA0;stroke-linecap:square;stroke-linejoin:bevel;stroke-miterlimit:10;" d="
			M244.719,329.505c0,0,4.059,0.246,4.059,5.658h0.137c0-5.411,4.059-5.658,4.059-5.658v-0.139c0,0-4.059-0.246-4.059-5.658h-0.137
			c0,5.411-4.059,5.658-4.059,5.658V329.505z"/>
		<path style="fill:#2A222F;stroke:#D8BFA0;stroke-linecap:square;stroke-linejoin:bevel;stroke-miterlimit:10;" d="M305.688,385.91
			c0,0,4.059,0.246,4.059,5.658h0.137c0-5.411,4.059-5.658,4.059-5.658v-0.139c0,0-4.059-0.246-4.059-5.658h-0.137
			c0,5.411-4.059,5.658-4.059,5.658V385.91z"/>
		<path style="fill:#2A222F;stroke:#D8BFA0;stroke-linecap:square;stroke-linejoin:bevel;stroke-miterlimit:10;" d="
			M403.002,409.822c0,0,4.059,0.246,4.059,5.658h0.137c0-5.411,4.059-5.658,4.059-5.658v-0.139c0,0-4.059-0.246-4.059-5.658h-0.137
			c0,5.411-4.059,5.658-4.059,5.658V409.822z"/>
		<path style="fill:#2A222F;stroke:#D8BFA0;stroke-linecap:square;stroke-linejoin:bevel;stroke-miterlimit:10;" d="
			M231.608,242.045c0,0,4.059,0.246,4.059,5.658h0.137c0-5.411,4.059-5.658,4.059-5.658v-0.139c0,0-4.059-0.246-4.059-5.658h-0.137
			c0,5.411-4.059,5.658-4.059,5.658V242.045z"/>
		<path style="fill:#2A222F;stroke:#D8BFA0;stroke-linecap:square;stroke-linejoin:bevel;stroke-miterlimit:10;" d="
			M323.141,222.581c0,0,4.059,0.246,4.059,5.658h0.137c0-5.411,4.059-5.658,4.059-5.658v-0.139c0,0-4.059-0.246-4.059-5.658H327.2
			c0,5.411-4.059,5.658-4.059,5.658V222.581z"/>
		<path style="fill:#2A222F;stroke:#D8BFA0;stroke-linecap:square;stroke-linejoin:bevel;stroke-miterlimit:10;" d="
			M448.578,199.611c0,0,4.059,0.246,4.059,5.658h0.137c0-5.411,4.059-5.658,4.059-5.658v-0.139c0,0-4.059-0.246-4.059-5.657h-0.137
			c0,5.411-4.059,5.657-4.059,5.657V199.611z"/>
		<path style="fill:#2A222F;stroke:#D8BFA0;stroke-linecap:square;stroke-linejoin:bevel;stroke-miterlimit:10;" d="M430.263,41.956
			c0,0,4.059,0.246,4.059,5.658h0.137c0-5.411,4.059-5.658,4.059-5.658v-0.139c0,0-4.059-0.246-4.059-5.657h-0.137
			c0,5.411-4.059,5.657-4.059,5.657V41.956z"/>
		<g>
			
				<line style="fill:#2A222F;stroke:#D8BFA0;stroke-linecap:square;stroke-linejoin:bevel;stroke-miterlimit:10;" x1="117.633" y1="48.303" x2="117.633" y2="53.846"/>
			
				<line style="fill:#2A222F;stroke:#D8BFA0;stroke-linecap:square;stroke-linejoin:bevel;stroke-miterlimit:10;" x1="120.404" y1="51.075" x2="114.862" y2="51.075"/>
		</g>
		<g>
			
				<line style="fill:#2A222F;stroke:#D8BFA0;stroke-linecap:square;stroke-linejoin:bevel;stroke-miterlimit:10;" x1="33.392" y1="212.503" x2="33.392" y2="218.045"/>
			
				<line style="fill:#2A222F;stroke:#D8BFA0;stroke-linecap:square;stroke-linejoin:bevel;stroke-miterlimit:10;" x1="36.164" y1="215.274" x2="30.621" y2="215.274"/>
		</g>
		<g>
			
				<line style="fill:#2A222F;stroke:#D8BFA0;stroke-linecap:square;stroke-linejoin:bevel;stroke-miterlimit:10;" x1="234.012" y1="175.13" x2="234.012" y2="180.673"/>
			
				<line style="fill:#2A222F;stroke:#D8BFA0;stroke-linecap:square;stroke-linejoin:bevel;stroke-miterlimit:10;" x1="236.783" y1="177.902" x2="231.241" y2="177.902"/>
		</g>
		<g>
			
				<line style="fill:#2A222F;stroke:#D8BFA0;stroke-linecap:square;stroke-linejoin:bevel;stroke-miterlimit:10;" x1="299.96" y1="230.714" x2="299.96" y2="236.256"/>
			
				<line style="fill:#2A222F;stroke:#D8BFA0;stroke-linecap:square;stroke-linejoin:bevel;stroke-miterlimit:10;" x1="302.731" y1="233.485" x2="297.189" y2="233.485"/>
		</g>
		<g>
			
				<line style="fill:#2A222F;stroke:#D8BFA0;stroke-linecap:square;stroke-linejoin:bevel;stroke-miterlimit:10;" x1="406.793" y1="209.731" x2="406.793" y2="215.274"/>
			
				<line style="fill:#2A222F;stroke:#D8BFA0;stroke-linecap:square;stroke-linejoin:bevel;stroke-miterlimit:10;" x1="409.565" y1="212.503" x2="404.022" y2="212.503"/>
		</g>
		<g>
			
				<line style="fill:#2A222F;stroke:#D8BFA0;stroke-linecap:square;stroke-linejoin:bevel;stroke-miterlimit:10;" x1="213.323" y1="36.345" x2="213.323" y2="41.887"/>
			
				<line style="fill:#2A222F;stroke:#D8BFA0;stroke-linecap:square;stroke-linejoin:bevel;stroke-miterlimit:10;" x1="216.094" y1="39.116" x2="210.552" y2="39.116"/>
		</g>
		<g>
			
				<line style="fill:#2A222F;stroke:#D8BFA0;stroke-linecap:square;stroke-linejoin:bevel;stroke-miterlimit:10;" x1="307.043" y1="45.532" x2="307.043" y2="51.075"/>
			
				<line style="fill:#2A222F;stroke:#D8BFA0;stroke-linecap:square;stroke-linejoin:bevel;stroke-miterlimit:10;" x1="309.815" y1="48.303" x2="304.272" y2="48.303"/>
		</g>
		<path style="fill:#D8BFA0;" d="M59.647,45.347c0,0.502-0.407,0.909-0.909,0.909c-0.502,0-0.909-0.407-0.909-0.909
			c0-0.502,0.407-0.909,0.909-0.909C59.24,44.439,59.647,44.846,59.647,45.347z"/>
		<path style="fill:#D8BFA0;" d="M128.207,255.932c0,0.502-0.407,0.909-0.909,0.909c-0.502,0-0.909-0.407-0.909-0.909
			c0-0.502,0.407-0.909,0.909-0.909C127.8,255.023,128.207,255.43,128.207,255.932z"/>
		<path style="fill:#D8BFA0;" d="M167.162,245.377c0,0.502-0.407,0.909-0.909,0.909c-0.502,0-0.909-0.407-0.909-0.909
			c0-0.502,0.407-0.909,0.909-0.909C166.755,244.468,167.162,244.875,167.162,245.377z"/>
		<path style="fill:#D8BFA0;" d="M112.815,403.69c0,0.502-0.407,0.909-0.909,0.909s-0.909-0.407-0.909-0.909
			c0-0.502,0.407-0.909,0.909-0.909S112.815,403.188,112.815,403.69z"/>
		<path style="fill:#D8BFA0;" d="M167.162,379.857c0,0.502-0.407,0.909-0.909,0.909c-0.502,0-0.909-0.407-0.909-0.909
			c0-0.502,0.407-0.909,0.909-0.909C166.755,378.948,167.162,379.355,167.162,379.857z"/>
		<path style="fill:#D8BFA0;" d="M296.585,374.004c0,0.502-0.407,0.909-0.909,0.909c-0.502,0-0.909-0.407-0.909-0.909
			c0-0.502,0.407-0.909,0.909-0.909C296.178,373.095,296.585,373.502,296.585,374.004z"/>
		<path style="fill:#D8BFA0;" d="M466.613,334.104c0,0.502-0.407,0.909-0.909,0.909c-0.502,0-0.909-0.407-0.909-0.909
			c0-0.502,0.407-0.909,0.909-0.909C466.206,333.195,466.613,333.602,466.613,334.104z"/>
		<path style="fill:#D8BFA0;" d="M338.796,185.652c0,0.502-0.407,0.909-0.909,0.909c-0.502,0-0.909-0.407-0.909-0.909
			c0-0.502,0.407-0.909,0.909-0.909C338.389,184.743,338.796,185.15,338.796,185.652z"/>
		<path style="fill:#D8BFA0;" d="M391.801,234.704c0,0.502-0.407,0.909-0.909,0.909c-0.502,0-0.909-0.407-0.909-0.909
			c0-0.502,0.407-0.909,0.909-0.909C391.395,233.795,391.801,234.202,391.801,234.704z"/>
		<path style="fill:#D8BFA0;" d="M135.242,108.733c0,0.502-0.407,0.909-0.909,0.909c-0.502,0-0.909-0.407-0.909-0.909
			c0-0.502,0.407-0.909,0.909-0.909C134.836,107.824,135.242,108.231,135.242,108.733z"/>
		<path style="fill:#D8BFA0;" d="M289.762,115.9c0,0.502-0.407,0.909-0.909,0.909c-0.502,0-0.909-0.407-0.909-0.909
			c0-0.502,0.407-0.909,0.909-0.909C289.355,114.991,289.762,115.398,289.762,115.9z"/>
		<path style="fill:#D8BFA0;" d="M419.737,41.887c0,0.502-0.407,0.909-0.909,0.909c-0.502,0-0.909-0.407-0.909-0.909
			c0-0.502,0.407-0.909,0.909-0.909C419.33,40.978,419.737,41.385,419.737,41.887z"/>
	</g>
	<g>
		<g>
			
				<text transform="matrix(1 0 0 1 178.0518 151.7879)" style="fill:#D8BFA0; font-family:'CinzelRoman-Bold'; font-size:9.8369px;">Taurus</text>
		</g>
		<g>
			
				<text transform="matrix(1 0 0 1 295.6756 151.7879)" style="fill:#D8BFA0; font-family:'CinzelRoman-Bold'; font-size:9.8369px;">gemini</text>
		</g>
		<g>
			<text transform="matrix(1 0 0 1 63.2358 151.7879)" style="fill:#D8BFA0; font-family:'CinzelRoman-Bold'; font-size:9.8369px;">Aries</text>
		</g>
		<g>
			<text transform="matrix(1 0 0 1 67.6474 300.8043)" style="fill:#D8BFA0; font-family:'CinzelRoman-Bold'; font-size:9.8369px;">leo</text>
		</g>
		<g>
			
				<text transform="matrix(1 0 0 1 181.2044 300.8043)" style="fill:#D8BFA0; font-family:'CinzelRoman-Bold'; font-size:9.8369px;">Virgo</text>
		</g>
		<g>
			
				<text transform="matrix(1 0 0 1 411.1765 151.7879)" style="fill:#D8BFA0; font-family:'CinzelRoman-Bold'; font-size:9.8369px;">cancer</text>
		</g>
		<g>
			<g>
				<g>
					
						<text transform="matrix(1 0 0 1 299.9605 300.8039)" style="fill:#D8BFA0; font-family:'CinzelRoman-Bold'; font-size:9.8369px;">Libra</text>
				</g>
			</g>
		</g>
		<g>
			<g>
				<g>
					
						<text transform="matrix(1 0 0 1 409.5873 300.8039)" style="fill:#D8BFA0; font-family:'CinzelRoman-Bold'; font-size:9.8369px;">Scorpio</text>
				</g>
			</g>
		</g>
		<g>
			<g>
				<g>
					
						<text transform="matrix(1 0 0 1 415.765 466.1672)" style="fill:#D8BFA0; font-family:'CinzelRoman-Bold'; font-size:9.8369px;">PISCES</text>
				</g>
			</g>
		</g>
		<g>
			<g>
				<g>
					
						<text transform="matrix(1 0 0 1 43.8471 466.1679)" style="fill:#D8BFA0; font-family:'CinzelRoman-Bold'; font-size:9.8369px;">Sagittarius</text>
				</g>
			</g>
		</g>
		<g>
			
				<text transform="matrix(1 0 0 1 165.4014 466.1676)" style="fill:#D8BFA0; font-family:'CinzelRoman-Bold'; font-size:9.8369px;">Capricorn </text>
		</g>
		<g>
			
				<text transform="matrix(1 0 0 1 288.1805 466.1676)" style="fill:#D8BFA0; font-family:'CinzelRoman-Bold'; font-size:9.8369px;">aquarius</text>
		</g>
	</g>
	<g>
		<g>
			<g>
				<path style="fill:#2A222F;stroke:#D8BFA0;stroke-linecap:square;stroke-linejoin:bevel;stroke-miterlimit:10;" d="
					M394.994,336.417c-0.166,0.154-0.333,0.316-0.502,0.484c-10.115,10.097-11.001,26.411-2.051,37.553
					c1.131,1.408,2.363,2.664,3.697,3.671c0.346,0.261,0.922,0.731,1.431,1.211c0.65,0.613,0.646,1.64-0.013,2.244
					c-2.651,2.428-5.532,5.664-6.166,9.01c-1.321,6.971,3.027,10.701,3.027,10.701c0.724-0.45,4.348-3.274,9.705-8.141
					c6.316-5.737-0.811-11.307-2.438-12.946c1.724,1.566,6.466,6.08,10.006,4.986c4.253-1.314,12.629-12.31,12.629-12.31
					c-8.18-4.815-15.378,0.501-19.242,3.505c-1.135,0.882-2.057,1.193-2.792,1.301c-0.905,0.133-2.55-1.494-2.92-1.904
					c-1.45-1.605-4.239-5.387-4.745-11.052c-0.077-1.168-0.088-2.281-0.031-3.334c0.037-0.499,0.091-1.008,0.166-1.529l-0.03-0.021
					c2.017-16.926,21.333-17.462,23.876-4.137c2.837,14.867,14.526,20.428,14.526,20.428c12.711-12.711,12.597-27.805,3.064-37.338
					C426.658,329.267,407.989,324.331,394.994,336.417z"/>
				<g>
					<g>
						<path style="fill:none;stroke:#D8BFA0;stroke-linecap:square;stroke-linejoin:bevel;stroke-miterlimit:10;" d="
							M420.75,377.236c0,0-2.857-3.19-7.025-2.465"/>
						<path style="fill:none;stroke:#D8BFA0;stroke-linecap:square;stroke-linejoin:bevel;stroke-miterlimit:10;" d="
							M416.98,381.256c0,0-2.857-3.19-7.025-2.465"/>
					</g>
					<g>
						<path style="fill:none;stroke:#D8BFA0;stroke-linecap:square;stroke-linejoin:bevel;stroke-miterlimit:10;" d="
							M398.027,398.445c0,0-2.644-3.385-1.41-7.616"/>
						<path style="fill:none;stroke:#D8BFA0;stroke-linecap:square;stroke-linejoin:bevel;stroke-miterlimit:10;" d="
							M402.11,394.748c0,0-2.644-3.385-1.41-7.616"/>
					</g>
				</g>
				<path style="fill:none;stroke:#D8BFA0;stroke-linecap:square;stroke-linejoin:bevel;stroke-miterlimit:10;" d="M419.863,329.938
					c0,0-8.635-2.277-16.493,7.093l16.71,4.885"/>
				<path style="fill:none;stroke:#D8BFA0;stroke-linecap:square;stroke-linejoin:bevel;stroke-miterlimit:10;" d="M418.6,355.71
					c0,0,1.362-5.674,8.171-8.171"/>
				<path style="fill:#D8BFA0;" d="M434.659,328.36c-2.049,3.414-11.26,2.231-15.132,1.581c6.484,1.352,12.462,4.658,16.664,8.86
					c1.807,1.807,3.274,3.815,4.381,5.967c0,0,0-0.001,0.001-0.001c5.233-9.128-2.679-24.238-2.679-24.238
					S437.212,324.104,434.659,328.36z"/>
				<path style="fill:#D8BFA0;" d="M434.487,357.444c0,0,1.401,3.363,1.867,6.315C436.354,363.759,439.866,359.712,434.487,357.444z
					"/>
			</g>
		</g>
		<g>
			<g>
				<path style="fill:#2A222F;stroke:#D8BFA0;stroke-linecap:square;stroke-linejoin:bevel;stroke-miterlimit:10;" d="
					M470.007,418.412c0.166-0.154,0.333-0.316,0.502-0.484c10.115-10.097,11.001-26.411,2.051-37.553
					c-1.131-1.408-2.363-2.664-3.697-3.671c-0.346-0.261-0.922-0.731-1.431-1.211c-0.65-0.613-0.646-1.64,0.013-2.244
					c2.651-2.428,5.532-5.664,6.166-9.01c1.321-6.971-3.027-10.701-3.027-10.701c-0.724,0.45-4.348,3.274-9.705,8.141
					c-6.316,5.737,0.811,11.307,2.438,12.946c-1.724-1.566-6.466-6.08-10.006-4.986c-4.253,1.314-12.629,12.31-12.629,12.31
					c8.18,4.815,15.378-0.501,19.242-3.505c1.135-0.882,2.057-1.193,2.792-1.301c0.905-0.133,2.55,1.494,2.92,1.904
					c1.45,1.605,4.239,5.387,4.745,11.052c0.077,1.168,0.088,2.281,0.031,3.334c-0.037,0.499-0.091,1.008-0.166,1.529l0.03,0.021
					c-2.017,16.926-21.333,17.462-23.876,4.137c-2.837-14.867-14.526-20.428-14.526-20.428
					c-12.711,12.711-12.597,27.805-3.064,37.338C438.343,425.562,457.012,430.499,470.007,418.412z"/>
				<g>
					<g>
						<path style="fill:none;stroke:#D8BFA0;stroke-linecap:square;stroke-linejoin:bevel;stroke-miterlimit:10;" d="
							M444.251,377.593c0,0,2.857,3.19,7.025,2.465"/>
						<path style="fill:none;stroke:#D8BFA0;stroke-linecap:square;stroke-linejoin:bevel;stroke-miterlimit:10;" d="
							M448.021,373.574c0,0,2.857,3.19,7.025,2.465"/>
					</g>
					<g>
						<path style="fill:none;stroke:#D8BFA0;stroke-linecap:square;stroke-linejoin:bevel;stroke-miterlimit:10;" d="
							M466.974,356.385c0,0,2.644,3.385,1.41,7.616"/>
						<path style="fill:none;stroke:#D8BFA0;stroke-linecap:square;stroke-linejoin:bevel;stroke-miterlimit:10;" d="
							M462.891,360.082c0,0,2.644,3.385,1.41,7.616"/>
					</g>
				</g>
				<path style="fill:none;stroke:#D8BFA0;stroke-linecap:square;stroke-linejoin:bevel;stroke-miterlimit:10;" d="M445.138,424.892
					c0,0,8.635,2.277,16.493-7.093l-16.711-4.885"/>
				<path style="fill:none;stroke:#D8BFA0;stroke-linecap:square;stroke-linejoin:bevel;stroke-miterlimit:10;" d="M446.401,399.119
					c0,0-1.362,5.674-8.171,8.171"/>
				<path style="fill:#D8BFA0;" d="M430.342,426.47c2.049-3.414,11.26-2.231,15.132-1.581c-6.484-1.352-12.462-4.658-16.664-8.86
					c-1.807-1.807-3.274-3.815-4.381-5.967c0,0,0,0.001-0.001,0.001c-5.233,9.128,2.679,24.238,2.679,24.238
					S427.789,430.726,430.342,426.47z"/>
				<path style="fill:#D8BFA0;" d="M430.514,397.386c0,0-1.401-3.363-1.867-6.315C428.647,391.071,425.135,395.117,430.514,397.386z
					"/>
			</g>
		</g>
	</g>
	<g>
		<path style="fill:#2A222F;stroke:#D8BFA0;stroke-linecap:square;stroke-linejoin:bevel;stroke-miterlimit:10;" d="M331.26,357.963
			c0,0,0.35,0.248,1.033,0.29c8.587,0.533,17.427,5.866,20.302,15.75c7.399,25.444-16.331,24.077-17.681,40.9
			c-1.246,15.529,12.084,16.588,12.084,27.412l-42.862,0.172c0,0-5.233-3.936-5.021-15.23c0.592-31.496,48.764-34.752,23.183-60.333
			L331.26,357.963z"/>
		<path style="fill:none;stroke:#D8BFA0;stroke-linecap:square;stroke-linejoin:bevel;stroke-miterlimit:10;" d="M344.601,374.004
			c8.278,25.079-17.738,24.077-19.087,40.9c-1.245,15.529,12.084,16.588,12.084,27.412"/>
		<path style="fill:none;stroke:#D8BFA0;stroke-linecap:square;stroke-linejoin:bevel;stroke-miterlimit:10;" d="M311.93,442.215
			c-0.999-0.908-4.895-5.076-4.709-14.958c0.592-31.496,48.764-34.752,23.183-60.333"/>
		<path style="fill:#2A222F;stroke:#D8BFA0;stroke-width:3;stroke-linecap:square;stroke-linejoin:bevel;stroke-miterlimit:10;" d="
			M323.377,351.172c2.208,2.208,5.788,2.208,7.995,0c2.208-2.208,2.208-5.788,0-7.996c-2.208-2.208-5.788-2.208-7.995,0
			C321.169,345.385,321.169,348.965,323.377,351.172z"/>
		
			<circle style="fill:#2A222F;stroke:#D8BFA0;stroke-width:3;stroke-linecap:square;stroke-linejoin:bevel;stroke-miterlimit:10;" cx="311.511" cy="363.039" r="5.654"/>
		<path style="fill:#2A222F;stroke:#D8BFA0;stroke-linecap:square;stroke-linejoin:bevel;stroke-miterlimit:10;" d="
			M310.574,360.016c6.988,2.329,9.317,9.317,9.317,9.317l13.778-13.778c0,0-6.988-2.329-9.317-9.317
			c-2.329-6.988-0.499-14.475-7.321-21.463c-4.021-4.119-8.823-4.509-12.087-4.135l-9.636,9.636l-0.697,0.697l-9.636,9.636
			c-0.374,3.265,0.017,8.066,4.136,12.087C296.099,359.517,303.586,357.686,310.574,360.016z"/>
		<path style="fill:none;stroke:#D8BFA0;stroke-linecap:square;stroke-linejoin:bevel;stroke-miterlimit:10;" d="M316.633,325.173
			c0,0-10.838,16.651-27.124,27.125"/>
		<path style="fill:none;stroke:#D8BFA0;stroke-linecap:square;stroke-linejoin:bevel;stroke-miterlimit:10;" d="M320.864,330.609
			c0,0-10.208,15.682-25.547,25.547"/>
		<path style="fill:#D8BFA0;stroke:#D8BFA0;stroke-linecap:square;stroke-linejoin:bevel;stroke-miterlimit:10;" d="
			M284.982,340.615c-0.734-0.734,3.14-5.8,8.654-11.314s10.58-9.389,11.314-8.654c0.734,0.734-3.14,5.8-8.654,11.314
			C290.782,337.474,285.716,341.349,284.982,340.615z"/>
		<path style="fill:#D8BFA0;stroke:#D8BFA0;stroke-linecap:square;stroke-linejoin:bevel;stroke-miterlimit:10;" d="
			M319.886,369.328c-0.771-0.771,1.689-4.48,5.494-8.285c3.805-3.805,7.514-6.264,8.285-5.494c0.771,0.771-1.689,4.48-5.494,8.285
			C324.366,367.639,320.657,370.099,319.886,369.328z"/>
		<path style="fill:none;stroke:#D8BFA0;stroke-linecap:square;stroke-linejoin:bevel;stroke-miterlimit:10;" d="M322.551,406.433
			c-5.317,7.059-6.258,12.647-5.023,17.529c1.876,7.414,8.529,10.343,8.529,18.525"/>
	</g>
	<g>
		<path style="fill:#2A222F;stroke:#D8BFA0;stroke-linecap:square;stroke-linejoin:bevel;stroke-miterlimit:10;" d="
			M237.146,338.643c0,0-0.712-0.416-1.83-0.762c-1.609-0.497-4.061-0.842-6.45,0.411c-1.309,0.687-2.599,1.851-3.72,3.74
			c-4.588,7.729-4.059,15.141-9,21.317c-4.941,6.176-10.059,11.694-15.882,14.847c-2.957,1.601-6.086,2.426-8.46,2.855
			c-1.971-2.295-4.151-4.858-6.54-7.702c-6.26-7.453-5.702-15.219-5.143-18.306c0.113-0.624,0.731-3.206,1.694-3.624
			c0.782-0.339,1.869-0.595,3.51-0.422c5.586,0.588,15.822,1.412,20.881-8.235c0,0-14.824-5.647-19.765-4.353
			c-4.113,1.077-6.004,8.349-6.735,10.92c0.593-2.582,4.168-12.328-5.463-14.096c-8.169-1.5-13.412-2.059-14.39-2.059
			c0,0-1.98,6.27,3.529,12.265c2.648,2.881,7.426,4.291,11.484,5.052c1.003,0.188,1.616,1.189,1.355,2.176
			c-0.206,0.777-0.483,1.583-0.662,2.048c-4.593,11.897-1.118,21.139,4.953,29.612c-2.765,1.228-5.395,2.751-7.802,4.623
			c-6.759,5.257-12.974,13.444-12.974,25.106c0,14.059,5.765,27.323,28.176,27.323c20.424,0,30.921-21.606,20.315-40.546
			c1.648-0.889,3.338-2.096,5.097-3.777c0,0,5.471,13.412,1.588,24.882v4.059l1.765,5.471h4.588l-2.294-5.824v-4.529
			c0,0,3.706-17.401,7.235-23.554c3.529-6.153,12.353-17.27,12.706-26.447c0.353-9.177-5.647-17.455-5.647-17.455l1.941-1.075
			c0,0,3.353,1.62,7.059,1.075l0.176,4.749l1.941,3.353l1.059-5.471l3.882-5.294L237.146,338.643z M173.97,417.252
			c-0.588-10.374,6.471-14.962,17.471-14.551c1.314,0.049,2.601,0.142,3.875,0.219c2.662,3.909,4.539,7.838,4.772,11.958
			C201.09,432.587,174.746,430.934,173.97,417.252z"/>
		<path style="fill:#D8BFA0;" d="M235.316,337.881c1.118,0.345,1.83,0.762,1.83,0.762l2.211,2.243
			c-0.207-5.091-1.741-16.776-11.328-19.614c-3.28-0.971-6.284-0.768-8.788,0.217C229.422,321.955,234.005,333.699,235.316,337.881z
			"/>
		<path style="fill:#D8BFA0;" d="M236.783,345.982c0,0,2.083-0.868,3.912-1.157C240.695,344.825,238.189,342.65,236.783,345.982z"/>
		<path style="fill:#D8BFA0;" d="M250.205,390.107L236.9,379.154c-1.568,3.787-3.82,7.569-5.972,10.948l-0.002,0.005
			c6.132,3.641,14.692,4.842,14.692,4.842l-7.588,9.518l-2.294,1.588l-2.824,0.706v4.941l5.828-3.529l12.878-13.059L250.205,390.107
			z"/>
		<path style="fill:#D8BFA0;stroke:#D8BFA0;stroke-linecap:square;stroke-linejoin:bevel;stroke-miterlimit:10;" d="
			M235.205,352.584c0,0-4.235-2.206-5.118-6.088c0,0-0.353,3.914,3.176,7.163L235.205,352.584z"/>
		<path style="fill:#D8BFA0;stroke:#D8BFA0;stroke-linecap:square;stroke-linejoin:bevel;stroke-miterlimit:10;" d="
			M195.316,402.921c0.312,0.458,0.61,0.916,0.899,1.374c0.032,0.05,0.064,0.101,0.096,0.151c0.275,0.441,0.538,0.883,0.789,1.325
			c0.035,0.061,0.069,0.123,0.104,0.185c0.249,0.445,0.487,0.891,0.709,1.338c0.021,0.042,0.04,0.084,0.061,0.126
			c0.088,0.18,0.177,0.361,0.261,0.541c9.766-2.545,9.993-7.129,9.993-7.129C203.76,403.239,199.613,403.181,195.316,402.921z"/>
		<path style="fill:#D8BFA0;stroke:#D8BFA0;stroke-linecap:square;stroke-linejoin:bevel;stroke-miterlimit:10;" d="
			M191.219,381.155c0.186-0.03,0.388-0.068,0.586-0.104c-0.62-0.721-1.262-1.472-1.924-2.248c-4.863,1.003-8.744,2.252-11.036,3.077
			c0.533,0.824,1.089,1.639,1.666,2.445C183.911,382.814,187.519,381.758,191.219,381.155z"/>
		<path style="fill:#D8BFA0;stroke:#D8BFA0;stroke-linecap:square;stroke-linejoin:bevel;stroke-miterlimit:10;" d="
			M211.464,398.664c0.612-0.487,1.23-1.008,1.859-1.609l-1.941-6.947C211.382,390.107,211.496,394.346,211.464,398.664z"/>
		<path style="fill:#2A222F;stroke:#D8BFA0;stroke-linecap:square;stroke-linejoin:bevel;stroke-miterlimit:10;" d="
			M235.735,339.349c0,0-0.134-0.559-0.419-1.467c-1.338-4.267-6.078-16.415-16.699-16.415c-11,0-15.824,10.823-11,17.882
			c0,0-0.706-13.176,11-13.176c6.036,0,8.894,6.156,10.249,12.12c0.21,0.925,0.387,1.846,0.531,2.738"/>
		<path style="fill:#D8BFA0;" d="M206.302,438.719c-0.315-0.174-7.049-3.063-7.049-3.063l4.622-2.532l21.003-2.385l6.713-0.024
			l1.783,0.024l6.711-0.024c0,0,2.783,2.934,2.468,2.715c-0.315-0.218-7.144,2.488-7.144,2.488l9.875-0.262
			c0,0,3.887,5.151,3.992,5.413c0.105,0.262,0,1.31,0,1.31h-81.854l2.952-3.397h8.918L206.302,438.719z"/>
		<path style="fill:#2A222F;stroke:#D8BFA0;stroke-linecap:square;stroke-linejoin:bevel;stroke-miterlimit:10;" d="
			M228.031,340.886l-5.472-3.455c0,0-0.467,7.624,5.472,7.624"/>
		<g>
			<path style="fill:none;stroke:#D8BFA0;stroke-linecap:square;stroke-linejoin:bevel;stroke-miterlimit:10;" d="M166.381,334.104
				c0,0-0.941,6.414,2.294,10.473"/>
			<path style="fill:none;stroke:#D8BFA0;stroke-linecap:square;stroke-linejoin:bevel;stroke-miterlimit:10;" d="M172.128,335.031
				c0,0-0.941,6.414,2.294,10.473"/>
		</g>
		<g>
			<path style="fill:none;stroke:#D8BFA0;stroke-linecap:square;stroke-linejoin:bevel;stroke-miterlimit:10;" d="M200.501,340.795
				c0,0-1.786,6.232-6.407,8.596"/>
			<path style="fill:none;stroke:#D8BFA0;stroke-linecap:square;stroke-linejoin:bevel;stroke-miterlimit:10;" d="M194.882,339.271
				c0,0-1.786,6.232-6.407,8.596"/>
		</g>
	</g>
	<g>
		<path style="fill:#D8BFA0;" d="M89.245,399.114c0,0-0.562,15.42-2.168,19.835l0.321,9.073l1.445,1.686l0.226,4.444l5.579-0.024
			l-3.075-5.784l-0.562-9.474c0,0,4.336-14.211,5.54-15.978l0.678-9.37L89.245,399.114z"/>
		<path style="fill:#2A222F;stroke:#D8BFA0;stroke-linecap:square;stroke-linejoin:bevel;stroke-miterlimit:10;" d="M81.419,346.998
			c0,0,3.941-0.823,10.412-0.471c6.471,0.353,8.471,1.882,8.471,1.882l0,0c0.428,4.278,0.072,8.598-1.051,12.748l-0.243,0.899
			c0,2,2.209,7.16,2.209,7.16c1.504,4.63,1.469,9.621-0.095,14.231l-2.005,5.909c-1.033,3.046-2.703,5.835-4.902,8.182
			c-1.924,2.054-4.092,4.428-4.722,5.352c-1.204,1.767-5.54,15.978-5.54,15.978l0.562,9.474l3.075,5.784l-5.579,0.024l-0.226-4.444
			l-1.445-1.686l-0.321-9.073c1.606-4.416,2.168-15.817,2.168-15.817c-9.876,5.62-23.365,5.46-23.365,5.46
			s-13.328,15.657-13.971,17.503c-0.642,1.847-2.569,11.642-2.569,11.642l1.847,4.657h-3.212l-3.452-3.693
			c4.416-8.752,3.132-18.065,3.132-18.065c3.935-2.489,5.138-9.474,5.138-9.474c-2.813-1.669-3.953-6.083-4.415-9.391
			c-0.397-2.846,0.383-5.771,2.266-7.941c0.121-0.14,0.243-0.272,0.365-0.395c3.332-3.365,7.471-5.819,11.967-7.307l13.444-4.451
			c3.313-1.097,6.326-2.946,8.805-5.402l0,0c3.443-3.412,5.697-7.842,6.43-12.633l-1.882-2.054l0.059,1.824
			c0,0-2.294-1.588-2.618-3.941l-0.971,1l-0.647-3.353l2.118-5.824"/>
		<path style="fill:#D8BFA0;stroke:#D8BFA0;stroke-linecap:square;stroke-linejoin:bevel;stroke-miterlimit:10;" d="M60.333,397.816
			c0.602,6.985-1.512,10.776-1.512,10.776s0.831,0.01,2.229-0.061C61.799,403.325,60.333,397.816,60.333,397.816z"/>
		<path style="fill:#D8BFA0;stroke:#D8BFA0;stroke-linecap:square;stroke-linejoin:bevel;stroke-miterlimit:10;" d="M82.185,398.258
			c0,0-0.444,3.137-1.031,5.432c0.347-0.18,0.692-0.365,1.031-0.558C82.185,403.132,82.36,400.426,82.185,398.258z"/>
		<path style="fill:#D8BFA0;" d="M58.821,408.592c0,0-3.013,3.539-6.242,7.451c-0.801,1.759-1.957,3.562-3.587,4.593
			c0,0,1.284,9.314-3.132,18.065l3.452,3.693h3.212l-1.847-4.657c0,0,1.927-9.795,2.569-11.642
			c0.642-1.847,13.971-17.503,13.971-17.503s7.081,0.082,14.738-2.009c0.161-2.03,0.231-3.451,0.231-3.451
			C72.31,408.752,58.821,408.592,58.821,408.592z"/>
		<polyline style="fill:#2A222F;stroke:#D8BFA0;stroke-linecap:square;stroke-linejoin:bevel;stroke-miterlimit:10;" points="
			95.522,349.865 95.982,343.468 90.342,343.527 88.949,343.868 88.507,346.439 		"/>
		<path style="fill:#2A222F;stroke:#D8BFA0;stroke-linecap:square;stroke-linejoin:bevel;stroke-miterlimit:10;" d="M91.754,329.174
			c-2.872,0.528-5,3.471-4.882,5.588c0.118,2.118-3.935,11.596-2.294,10.177l5.765-1.412l5.64-0.059l4.889,5h0.706l-1.706-9.647
			l-4.706-1l-1.353-2.294l6,2.176l-0.176-5.647l-1.588,0.412C98.048,332.468,97.519,328.115,91.754,329.174z"/>
		<path style="fill:#D8BFA0;" d="M81.048,325.066c-6.923,4.52,1.588,13.776-8.471,20.663c0,0,4.059,0.445,6.176-3.147l-2.118,3.591
			c0,0,6.706-0.594,6.706-11.477c0-8.229,6.093-4.5,6.093-4.5l3.446-1.189C92.882,329.008,88.083,320.473,81.048,325.066z"/>
		<path style="fill:#D8BFA0;" d="M34.654,395.939c-0.235-12.953,11.853-4.559,11.853-4.559l1.706-1.479
			c0,0-6.548-10.463-15.441-5.492c-14.195,7.934,1.471,18.723-14.201,34.224c0,0,11.877,2.305,15.558-6.915
			C37.218,403.982,34.728,399.965,34.654,395.939z"/>
		<path style="fill:#D8BFA0;" d="M68.661,442.132c-0.262-0.174-5.858-3.063-5.858-3.063l3.841-2.532l17.453-2.385l5.579-0.024
			l1.481,0.024l5.577-0.024c0,0,2.313,2.934,2.051,2.715c-0.262-0.218-5.936,2.488-5.936,2.488l8.206-0.262
			c0,0,3.23,5.151,3.317,5.412c0.087,0.262,0,1.31,0,1.31H36.352l2.453-3.397h7.411L68.661,442.132z"/>
		<path style="fill:#2A222F;stroke:#D8BFA0;stroke-linecap:square;stroke-linejoin:bevel;stroke-miterlimit:10;" d="M80.654,347.196
			c0,0-4.941,1.919-7.647,3.625c-2.706,1.706-4.118,3-4.118,3l0.588,1.824c0,0,1.765,1.118,3.412,1.353
			c1.647,0.235,12.471,0.353,12.471,0.353s2.059,0.882,2.529,0.765c0.471-0.118,1.569-0.824,1.569-0.824l1.078-2.294l1.882-0.647
			c0,0-0.054-1.059-1.145-1.235c-1.09-0.176-2.679-1.224-3.738-0.553c-1.059,0.671-3.118,1.142-4.235,1.142
			c-1.118,0-4-2.235-7.471-1.588"/>
		<path style="fill:#D8BFA0;" d="M127.243,353.02c0,0-1.53-0.552-2.412-0.787c-0.882-0.235-2.529,0.765-2.529,0.765
			s-1.294,0.235-4.588-0.824c-3.294-1.059-6.412-0.823-8.412-1.294c-2-0.471-9-2.471-9-2.471c0.213,2.134,0.231,4.278,0.057,6.407
			l4.943,0.534c0,0,3.412-0.235,7.235,0.471c3.824,0.706,6.882-0.235,9.118,0.588c2.235,0.824,4.588,0.647,4.588,0.647
			C127.654,355.292,127.243,353.02,127.243,353.02z"/>
		
			<line style="fill:none;stroke:#D8BFA0;stroke-linecap:square;stroke-linejoin:bevel;stroke-miterlimit:10;" x1="91.274" y1="353.115" x2="135.596" y2="353.115"/>
		<polygon style="fill:#D8BFA0;" points="139.617,353.115 132.831,350.981 133.891,353.115 132.831,355.249 		"/>
		<g>
			<path style="fill:none;stroke:#D8BFA0;stroke-linecap:square;stroke-linejoin:bevel;stroke-miterlimit:10;" d="M107.282,317.225
				c0.006,7.235,2.836,10.636,8.44,16.282c7.215,7.27,15.398,14.129,9.197,19.609"/>
			<path style="fill:none;stroke:#D8BFA0;stroke-linecap:square;stroke-linejoin:bevel;stroke-miterlimit:10;" d="M107.282,389.006
				c0.006-7.235,2.836-10.636,8.44-16.282c7.215-7.27,15.398-14.129,9.197-19.609"/>
		</g>
		<polyline style="fill:none;stroke:#D8BFA0;stroke-linecap:square;stroke-linejoin:bevel;stroke-miterlimit:10;" points="
			107.42,321.167 91.274,353.115 107.349,384.925 		"/>
		<path style="fill:none;stroke:#D8BFA0;stroke-linecap:square;stroke-linejoin:bevel;stroke-miterlimit:10;" d="M94.214,397.539
			c1.97-6.071-0.677-15.424-5.707-20.188"/>
		<path style="fill:none;stroke:#D8BFA0;stroke-linecap:square;stroke-linejoin:bevel;stroke-miterlimit:10;" d="M95.982,359.703
			c0,4.437,2.437,8.235,2.79,13.765c0.353,5.529-0.706,8.141-0.706,8.141"/>
		<path style="fill:#D8BFA0;" d="M90.342,343.527c0.176-0.002,5.356,3.895,5.356,3.895l0.284-3.954L90.342,343.527z"/>
	</g>
	<g>
		<path style="fill:#2A222F;stroke:#D8BFA0;stroke-linecap:square;stroke-linejoin:bevel;stroke-miterlimit:10;" d="
			M423.519,223.036c0,0,8.347,5.19,9.354,12.598c0,0-5.53-6.205-11.169-10.464C421.704,225.171,422.385,223.887,423.519,223.036"/>
		<path style="fill:#2A222F;stroke:#D8BFA0;stroke-linecap:square;stroke-linejoin:bevel;stroke-miterlimit:10;" d="
			M423.518,223.036c0,0-3.717,3.677-3.246,6.851c-1.72-0.984-2.783-1.552-2.783-1.552S418.227,223.054,423.518,223.036z"/>
		<path style="fill:#2A222F;stroke:#D8BFA0;stroke-linecap:square;stroke-linejoin:bevel;stroke-miterlimit:10;" d="
			M432.764,227.186c0,0,8.347,5.19,9.354,12.598c0,0-5.53-6.205-11.169-10.464C430.95,229.32,431.63,228.037,432.764,227.186"/>
		<path style="fill:#2A222F;stroke:#D8BFA0;stroke-linecap:square;stroke-linejoin:bevel;stroke-miterlimit:10;" d="
			M432.764,227.186c0,0-3.717,3.677-3.246,6.851c-1.72-0.984-2.783-1.552-2.783-1.552S427.472,227.204,432.764,227.186z"/>
		<path style="fill:#2A222F;stroke:#D8BFA0;stroke-linecap:square;stroke-linejoin:bevel;stroke-miterlimit:10;" d="
			M440.419,231.278c0,0,8.347,5.19,9.354,12.598c0,0-5.53-6.205-11.168-10.464C438.605,233.413,439.285,232.129,440.419,231.278"/>
		<path style="fill:#2A222F;stroke:#D8BFA0;stroke-linecap:square;stroke-linejoin:bevel;stroke-miterlimit:10;" d="
			M440.419,231.278c0,0-3.717,3.677-3.246,6.851c-1.72-0.984-2.783-1.552-2.783-1.552S435.127,231.296,440.419,231.278z"/>
		<path style="fill:#D8BFA0;" d="M400.183,220.641"/>
		<path style="fill:#D8BFA0;" d="M448.491,265.86c0,6.448,0.836,8.882,9.62,11.979c8.783,3.097,15.684-3.488,15.684-3.488
			l-12.652-2.785l11.188-1.983c0,0-6.31-4.816-13.6-6.479C455.112,262.279,451.342,263.305,448.491,265.86L448.491,265.86z"/>
		<path style="fill:#D8BFA0;" d="M404.606,186.138c0,0,0.945-2.687,4.988-2.687s4.182,2.899,4.182,9.421
			c0,6.549,1.952,8.29,1.952,8.29s-11.122-1.741-11.122-11.164V186.138z"/>
		<path style="fill:#2A222F;stroke:#D8BFA0;stroke-linecap:square;stroke-linejoin:bevel;stroke-miterlimit:10;" d="
			M407.029,228.958c0.838-0.525,1.799-0.871,2.844-1.085c-5.736-4.212-18.125-14.462-18.125-24.441
			c0-12.982,12.858-13.435,12.858-13.435v-3.86c0,0-16.901-4.655-20.42,14.858c-2.839,15.739,16.938,33.226,21.964,37.381
			C404.11,234.492,403.811,230.974,407.029,228.958z"/>
		<path style="fill:#D8BFA0;" d="M445.721,265.86L445.721,265.86l-3.304,4.208c1.507,2.846,5.379,2.21,6.765,1.492
			c-0.575-1.515-0.692-3.336-0.692-5.7H445.721z"/>
		<path style="fill:#D8BFA0;" d="M436.227,262.297l-0.002,0.003c0,0-3.21,6.103,5.016,9.267l5.577-7.102l-3.53-2.165l-0.005-0.005
			c-1.178,0.226-2.474,0.361-3.921,0.355C438.302,262.645,437.253,262.509,436.227,262.297z"/>
		<path style="fill:#D8BFA0;" d="M459.148,249.082c2.858-5.652,4.67-7.349,13.742-5.475c9.072,1.874,12.203,11.252,12.203,11.252
			l-12.325-4.169l8.929,7.584c0,0-7.666,0.925-14.794-1.426C463.365,255.681,460.515,252.812,459.148,249.082L459.148,249.082z"/>
		<path style="fill:#D8BFA0;" d="M456.72,247.635L456.72,247.635l-1.031-5.415c2.583-1.707,5.694,0.873,6.592,2.226
			c-1.176,1.028-2.085,2.563-3.133,4.635L456.72,247.635z"/>
		<path style="fill:#D8BFA0;" d="M446.818,245.799l-0.001-0.003c0,0-0.109-7.027,8.504-5.503l1.741,9.139l-4.054,0.053l-0.007,0.002
			c-0.933-0.814-2.008-1.609-3.28-2.36C448.792,246.577,447.811,246.149,446.818,245.799z"/>
		<path style="fill:#2A222F;stroke:#D8BFA0;stroke-linecap:square;stroke-linejoin:bevel;stroke-miterlimit:10;" d="
			M442.082,239.299c0,0-25.359-16.411-35.052-10.34c-9.693,6.071,12.42,25.746,18.397,28.149
			C425.427,257.107,426.596,240.926,442.082,239.299z"/>
		<path style="fill:#2A222F;stroke:#D8BFA0;stroke-linecap:square;stroke-linejoin:bevel;stroke-miterlimit:10;" d="
			M442.082,239.298c-15.486,1.628-16.655,17.809-16.655,17.809s6.834,5.514,13.934,5.543c6.132,0.025,9.741-2.333,11.769-4.507
			c2.034-2.18,3.037-5.219,1.473-9.222C450.582,243.747,442.082,239.298,442.082,239.298z"/>
		<path style="fill:#D8BFA0;" d="M393.731,195.9c0.231-0.361,0.48-0.696,0.738-1.014c-2.837-1.709-3.908-4.026-4.294-5.714
			c-0.326,0.28-0.645,0.581-0.957,0.905C389.765,191.92,391.007,194.187,393.731,195.9z"/>
		<path style="fill:#D8BFA0;" d="M391.783,204.363c-0.023-0.31-0.035-0.62-0.035-0.93c0-0.166,0.011-0.321,0.015-0.482
			c-3.006,1.594-5.869,0.896-7.801-0.033c-0.03,0.446-0.047,0.893-0.044,1.34c1.177,0.506,2.611,0.916,4.185,0.916
			C389.271,205.173,390.515,204.941,391.783,204.363z"/>
		<path style="fill:#D8BFA0;" d="M395.589,213.887c-0.243-0.357-0.48-0.715-0.706-1.077c-2.367,2.691-5.726,3.114-7.84,3.059
			c0.215,0.43,0.439,0.857,0.67,1.281C390.003,217.098,393.198,216.48,395.589,213.887z"/>
		<path style="fill:#D8BFA0;" d="M401.98,221.268c-0.311-0.299-0.621-0.602-0.93-0.911c-1.538,3.772-5.116,5.394-6.984,5.996
			c0.292,0.352,0.585,0.698,0.878,1.04C397.034,226.625,400.335,224.89,401.98,221.268z"/>
		<path style="fill:#2A222F;stroke:#D8BFA0;stroke-linecap:square;stroke-linejoin:bevel;stroke-miterlimit:10;" d="
			M385.114,256.474c0,0,8.729-9.878,15.59-13.269c-3.579,0.257-6.236,0.67-6.236,0.67S386.121,249.066,385.114,256.474z"/>
		<path style="fill:#2A222F;stroke:#D8BFA0;stroke-linecap:square;stroke-linejoin:bevel;stroke-miterlimit:10;" d="
			M414.945,244.949c0,0-10.044,0.588-13.802,6.354c0,0,10.673-4.366,17.777-4.04L414.945,244.949z"/>
		<path style="fill:#2A222F;stroke:#D8BFA0;stroke-linecap:square;stroke-linejoin:bevel;stroke-miterlimit:10;" d="M394.66,264.845
			c0,0,6.372-10.902,12.133-15.426c-3.265,0.963-5.65,1.883-5.65,1.883S394.318,257.792,394.66,264.845z"/>
		<path style="fill:#2A222F;stroke:#D8BFA0;stroke-linecap:square;stroke-linejoin:bevel;stroke-miterlimit:10;" d="
			M420.474,248.891c0,0-9.918,2.096-13.095,8.259c0,0,9.934-5.997,17.03-6.485L420.474,248.891z"/>
		<path style="fill:#2A222F;stroke:#D8BFA0;stroke-linecap:square;stroke-linejoin:bevel;stroke-miterlimit:10;" d="M402.246,271.36
			c0,0,5.279-11.57,10.569-16.728c-3.153,1.331-5.436,2.519-5.436,2.519S401.221,264.385,402.246,271.36z"/>
		<path style="fill:#2A222F;stroke:#D8BFA0;stroke-linecap:square;stroke-linejoin:bevel;stroke-miterlimit:10;" d="
			M409.099,240.298c0,0-9.611-1.558-14.63,3.578c0,0,11.33-2.237,18.65-0.28L409.099,240.298z"/>
		<path style="fill:#D8BFA0;" d="M448.027,251.977c1.552-2.193,3.568-3.84,5.808-4.873
			C447.758,245.612,447.994,251.461,448.027,251.977z"/>
		<path style="fill:#D8BFA0;" d="M445.354,253.548c-2.519,0.405-4.825,1.516-6.747,3.138
			C440.364,250.195,444.955,253.266,445.354,253.548z"/>
	</g>
	<g>
		<path style="fill:#D8BFA0;" d="M316.731,250.841v-35.887h-2.495h-2.495v35.887c0.65-0.3,1.465-0.488,2.495-0.488
			C315.266,250.353,316.081,250.541,316.731,250.841z"/>
		<path style="fill:#2A222F;stroke:#D8BFA0;stroke-linecap:square;stroke-linejoin:bevel;stroke-miterlimit:10;" d="M309.342,202.57
			c-8.761,0.14-11.07,1.722-20.954,5.471c-1.088,0.413-2.079,0.724-2.982,0.952c-3.774,0.95-7.445-1.31-8.58-4.79
			c-1.011-3.099-4.958-4.226-7.229-1.888c-1.991,2.05-1.892,5.848,2.7,8.11c7.986,3.933,15.018,3.754,24.672-1.549
			c4.995-2.745,9.923-2.084,12.276-1.506v-3.798C309.246,203.572,309.229,203.211,309.342,202.57z"/>
		<path style="fill:#D8BFA0;stroke:#D8BFA0;stroke-linecap:square;stroke-linejoin:bevel;stroke-miterlimit:10;" d="
			M314.236,192.666c-5.193,5.577-4.99,9.888-4.99,9.888h4.99h4.99C319.225,202.554,319.428,198.243,314.236,192.666z"/>
		<path style="fill:#2A222F;stroke:#D8BFA0;stroke-linecap:square;stroke-linejoin:bevel;stroke-miterlimit:10;" d="
			M319.225,212.058v-9.504h-4.99h-4.99v9.504c0,0-0.301,5.28,4.99,5.28C319.526,217.338,319.225,212.058,319.225,212.058z"/>
		<path style="fill:#2A222F;stroke:#D8BFA0;stroke-linecap:square;stroke-linejoin:bevel;stroke-miterlimit:10;" d="M325.667,269.78
			c-3.555,0-6.438-2.882-6.438-6.438v-8.074c0,0,0.301-4.916-4.99-4.916c-5.29,0-4.99,4.916-4.99,4.916v8.074
			c0,3.555-2.882,6.438-6.438,6.438h-6.928v2.145h36.71v-2.145H325.667z"/>
		<rect x="280.599" y="271.926" style="fill:#D8BFA0;" width="67.282" height="2.145"/>
		<path style="fill:#D8BFA0;" d="M316.545,190.357c0,1.275-1.034,2.309-2.309,2.309c-1.275,0-2.309-1.034-2.309-2.309
			c0-1.275,1.034-2.309,2.309-2.309C315.511,188.047,316.545,189.081,316.545,190.357z"/>
		<g>
			<polygon style="fill:#2A222F;stroke:#D8BFA0;stroke-linecap:square;stroke-linejoin:bevel;stroke-miterlimit:10;" points="
				274.91,211.572 256.446,249.28 293.374,249.28 			"/>
			<path style="fill:#D8BFA0;stroke:#D8BFA0;stroke-linecap:square;stroke-linejoin:bevel;stroke-miterlimit:10;" d="
				M256.446,249.28h36.905c-2.575,7.728-9.862,13.303-18.456,13.303c-8.593,0-15.874-5.572-18.449-13.3V249.28z"/>
		</g>
		<path style="fill:#2A222F;stroke:#D8BFA0;stroke-linecap:square;stroke-linejoin:bevel;stroke-miterlimit:10;" d="M319.228,202.57
			c8.761,0.14,11.07,1.722,20.954,5.471c1.088,0.413,2.079,0.724,2.982,0.952c3.774,0.95,7.445-1.31,8.58-4.79
			c1.011-3.099,4.958-4.226,7.229-1.888c1.991,2.05,1.892,5.848-2.7,8.11c-7.986,3.933-15.018,3.754-24.672-1.549
			c-4.996-2.745-9.923-2.084-12.276-1.506v-3.798C319.324,203.572,319.341,203.211,319.228,202.57z"/>
		<g>
			<polygon style="fill:#2A222F;stroke:#D8BFA0;stroke-linecap:square;stroke-linejoin:bevel;stroke-miterlimit:10;" points="
				353.66,211.572 372.125,249.28 335.196,249.28 			"/>
			<path style="fill:#D8BFA0;stroke:#D8BFA0;stroke-linecap:square;stroke-linejoin:bevel;stroke-miterlimit:10;" d="
				M372.125,249.28H335.22c2.575,7.728,9.862,13.303,18.456,13.303c8.593,0,15.874-5.572,18.449-13.3V249.28z"/>
		</g>
	</g>
	<g>
		<circle style="fill:#D8BFA0;" cx="200.284" cy="213.332" r="35.43"/>
		<g>
			<defs>
				
					<ellipse id="SVGID_1_" transform="matrix(0.1613 -0.9869 0.9869 0.1613 -61.6608 391.5787)" cx="199.562" cy="232.069" rx="52.148" ry="52.148"/>
			</defs>
			<clipPath id="SVGID_00000144307853796352929550000002809228091410657944_">
				<use xlink:href="#SVGID_1_"  style="overflow:visible;"/>
			</clipPath>
			<g style="clip-path:url(#SVGID_00000144307853796352929550000002809228091410657944_);">
				<path style="fill:#2A222F;" d="M179.813,222.979c5.176-9.647-3.529-7.647,1.786-21.036c1.42-3.577,4.199-6.181,5.869-8.824
					c0.356-0.563,0.846-1.159,1.408-1.757c3.973-4.221,10.781-7.253,17.259-3.359c3.551,2.135,5.56,5.923,6.47,10.225
					c1.063,5.032,1.576,6.137,9.091,13.809c3.589,3.663,4.149,9.365,1.529,13.059C210.078,243.638,172.373,236.845,179.813,222.979z
					"/>
				<path style="fill:#2A222F;stroke:#D8BFA0;stroke-linecap:square;stroke-linejoin:bevel;stroke-miterlimit:10;" d="
					M209.076,221.056c0,0,0.692,1.025,4.507,1.841c3.815,0.815,3.375,1.688,3.375,1.688s2.718-0.864,3.31,1.677
					c0,0,2.28-0.834,3.018,1.592c0.738,2.426-2.109,20.778-3.586,27.633c-1.477,6.856,0.844,23.52,1.16,38.391
					c0.316,14.871,1.266,57.904,2.848,68.029c1.582,10.125,5.906,29.427,5.906,29.427s-2.215,0.316-4.324,0
					c0,0-5.274,0.738-9.914,0.844c-4.641,0.105-17.403-1.793-19.618-1.16c-2.215,0.633-13.242,1.582-16.377,0.316
					c0,0-0.182-14.66,1.928-24.786c2.109-10.125-1.055-44.614,0.527-53.263c1.582-8.649-0.422-43.982-0.422-43.982l-0.878-12.551
					c-2.566-5.274-0.177-10.336,0.667-16.454c0.844-6.117-0.667-10.863-0.667-10.863c0.915-3.059,3.937-2.004,3.937-2.004
					c1.055-1.055,2.531-1.17,2.531-1.17c2.848-2.331,3.913-0.788,3.913-0.788c1.487-1.537,3.154-0.889,3.154-0.889
					s3.11-0.944,4.586-1.577"/>
				<path style="fill:none;stroke:#D8BFA0;stroke-linecap:square;stroke-linejoin:bevel;stroke-miterlimit:10;" d="M194.071,224.585
					c0.97,3.928,2.176,11.519,6.434,11.519c12.551-0.001,13.572-12.99,13.572-12.99"/>
				<g>
					<path style="fill:#2A222F;stroke:#D8BFA0;stroke-linecap:square;stroke-linejoin:bevel;stroke-miterlimit:10;" d="
						M218.013,233.783c0,0-0.135,0.072-0.369,0.213c0.086-0.359,0.019-0.773-0.405-1.197c0,0-0.243,0.115-0.62,0.315
						c0.152-0.595,0.145-1.25-0.787-0.947c-1.406,0.457-5.15,1.406-8.262,7.893c-3.111,6.486-3.142,6.645-5.052,7.91
						c-1.551,1.028-14.744,6.229-19.648,8.147l-0.384-20.032c-0.047-2.443-0.719-4.833-1.951-6.942l0,0
						c-2.497,2.848-2.813,10.125-4.817,19.301c-2.004,9.176-3.691,22.782,0.527,23.204c4.219,0.422,30.798-20.461,30.798-20.461
						s3.691-2.32,5.906-8.121c2.184-5.721,4.162-5.8,4.115-6.915l0.662-0.609C217.727,235.541,218.645,234.697,218.013,233.783z"/>
					<path style="fill:#2A222F;stroke:#D8BFA0;stroke-linecap:square;stroke-linejoin:bevel;stroke-miterlimit:10;" d="
						M216.619,233.113c-0.013,0.142-3.494,1.443-5.744,4.502"/>
					<path style="fill:#2A222F;stroke:#D8BFA0;stroke-linecap:square;stroke-linejoin:bevel;stroke-miterlimit:10;" d="
						M217.644,233.996c0,0-3.771,1.87-5.617,4.507"/>
					<path style="fill:#2A222F;stroke:#D8BFA0;stroke-linecap:square;stroke-linejoin:bevel;stroke-miterlimit:10;" d="
						M217.065,236.15c0,0-1.135-0.653-3.72,2.96"/>
				</g>
				<path style="fill:none;stroke:#D8BFA0;stroke-linecap:square;stroke-linejoin:bevel;stroke-miterlimit:10;" d="M214.405,230.256
					c1.666-3.226,2.553-5.671,2.553-5.671"/>
				<path style="fill:none;stroke:#D8BFA0;stroke-linecap:square;stroke-linejoin:bevel;stroke-miterlimit:10;" d="M190.917,225.473
					c0,0,1.642,14.005,11.064,14.989c1.584,0.165,3.058-0.182,4.416-0.874"/>
				<path style="fill:#2A222F;stroke:#D8BFA0;stroke-linecap:square;stroke-linejoin:bevel;stroke-miterlimit:10;" d="
					M202.086,230.256c0,0,0.949-2.426,3.902-2.983c2.953-0.557,4.887-1.998,4.887-1.998"/>
				<path style="fill:none;stroke:#D8BFA0;stroke-linecap:square;stroke-linejoin:bevel;stroke-miterlimit:10;" d="M218.517,230.256
					c1.162-2.496,1.751-3.994,1.751-3.994"/>
				<path style="fill:none;stroke:#D8BFA0;stroke-linecap:square;stroke-linejoin:bevel;stroke-miterlimit:10;" d="M187.004,226.262
					c0,0,3.16,19.509,15.082,19.123"/>
				<path style="fill:none;stroke:#D8BFA0;stroke-linecap:square;stroke-linejoin:bevel;stroke-miterlimit:10;" d="M184.473,227.432
					c0,0,4.186,21.208,15.089,21.922"/>
				<path style="fill:none;stroke:#D8BFA0;stroke-linecap:square;stroke-linejoin:bevel;stroke-miterlimit:10;" d="M190.335,263.633
					c2.37,7.829,5.044,14.794,7.322,16.874"/>
				<path style="fill:#2A222F;stroke:#D8BFA0;stroke-linecap:square;stroke-linejoin:bevel;stroke-miterlimit:10;" d="
					M180.536,229.142c0,0,2.249,0.527,3.937,10.442c0.583,3.422,1.755,8.829,3.241,14.625"/>
				<path style="fill:#2A222F;stroke:#D8BFA0;stroke-linecap:square;stroke-linejoin:bevel;stroke-miterlimit:10;" d="
					M187.004,240.503c0,0,1.357,5.993,3.33,12.688"/>
				<path style="fill:none;stroke:#D8BFA0;stroke-linecap:square;stroke-linejoin:bevel;stroke-miterlimit:10;" d="M195.04,260.258
					c1.835,4.805,3.978,8.877,5.992,8.963"/>
				<path style="fill:#2A222F;stroke:#D8BFA0;stroke-linecap:square;stroke-linejoin:bevel;stroke-miterlimit:10;" d="
					M190.335,244.646c0,0,0.803,3.41,2.068,7.689"/>
				<path style="fill:none;stroke:#D8BFA0;stroke-linecap:square;stroke-linejoin:bevel;stroke-miterlimit:10;" d="M198.657,270.381
					c0,0,3.004,0.844,5.432-7.172c2.428-8.016,4.29-13.111,4.29-13.111"/>
				<path style="fill:none;stroke:#D8BFA0;stroke-linecap:square;stroke-linejoin:bevel;stroke-miterlimit:10;" d="M199.562,261.1
					c0,0,2.856-1.477,3.956-4.324"/>
				<path style="fill:none;stroke:#D8BFA0;stroke-linecap:square;stroke-linejoin:bevel;stroke-miterlimit:10;" d="M216.619,239.109
					c-5.076,17.385-8.876,30.464-12.531,39.745c-3.655,9.281-5.441,14.063-12.072,14.063"/>
				<path style="fill:none;stroke:#D8BFA0;stroke-linecap:square;stroke-linejoin:bevel;stroke-miterlimit:10;" d="M188.669,264.74
					c0,0,3.116,24.956,8.988,26.285"/>
				<path style="fill:none;stroke:#D8BFA0;stroke-linecap:square;stroke-linejoin:bevel;stroke-miterlimit:10;" d="M185.615,266.853
					c0.104,1.177,0.216,2.367,0.334,3.553c0.984,9.854,3.717,27.432,8.046,29.12"/>
				<path style="fill:#2A222F;stroke:#D8BFA0;stroke-linecap:square;stroke-linejoin:bevel;stroke-miterlimit:10;" d="
					M184.473,250.398c0,0,0.095,1.954,0.284,4.979"/>
				<path style="fill:none;stroke:#D8BFA0;stroke-linecap:square;stroke-linejoin:bevel;stroke-miterlimit:10;" d="M182.856,269.221
					c0,0,1.723,39.728,11.69,44.228"/>
				<path style="fill:none;stroke:#D8BFA0;stroke-linecap:square;stroke-linejoin:bevel;stroke-miterlimit:10;" d="M195.04,304.027
					c0,0,9.332-1.547,12.144-11.11"/>
				<path style="fill:#2A222F;stroke:#D8BFA0;stroke-linecap:square;stroke-linejoin:bevel;stroke-miterlimit:10;" d="
					M201.032,278.573c0,0,2.108-2.551,3.287-8.166"/>
				<path style="fill:none;stroke:#D8BFA0;stroke-linecap:square;stroke-linejoin:bevel;stroke-miterlimit:10;" d="M193.163,310.074
					c0,0,2.151,3.516,6.399,0c4.247-3.516,9.364-8.759,15.644-36.764c1.38-6.154,3.219-11.785,4.276-16.827"/>
				<path style="fill:none;stroke:#D8BFA0;stroke-linecap:square;stroke-linejoin:bevel;stroke-miterlimit:10;" d="M195.932,297.698
					c0,0,7.455,1.547,13.502-19.125c6.047-20.672,10.047-38.673,10.047-38.673"/>
				<path style="fill:none;stroke:#D8BFA0;stroke-linecap:square;stroke-linejoin:bevel;stroke-miterlimit:10;" d="M185.896,294.835
					c0,0,3.024,25.856,2.804,41.887c-0.22,16.032-2.365,25.524-3.085,33.118c-0.721,7.594,1.508,21.786,1.508,21.786"/>
				<path style="fill:none;stroke:#D8BFA0;stroke-linecap:square;stroke-linejoin:bevel;stroke-miterlimit:10;" d="M182.401,305.01
					c0,0,2.294,9.538,2.265,23.767c-0.017,8.578-0.957,14.766-1.53,20.532"/>
				<path style="fill:none;stroke:#D8BFA0;stroke-linecap:square;stroke-linejoin:bevel;stroke-miterlimit:10;" d="M185.19,291.025
					c0,0-0.619,5.127,0,17.221c0.619,12.094,3.326,30.798,0.425,40.782c-2.9,9.985-2.479,22.782-2.76,29.532
					c-0.281,6.75-0.454,13.02-0.454,13.02"/>
				<path style="fill:none;stroke:#D8BFA0;stroke-linecap:square;stroke-linejoin:bevel;stroke-miterlimit:10;" d="M189.805,307.778
					c0,0,1.488,17.765,1.488,32.109c0,14.344-1.288,32.907-1.488,39.657c-0.2,6.75,0.744,11.882,0.744,11.882"/>
				<path style="fill:none;stroke:#D8BFA0;stroke-linecap:square;stroke-linejoin:bevel;stroke-miterlimit:10;" d="M193.996,316.543
					c0,0-0.136,30.516,0.55,42.329c0.686,11.813,1.213,31.852,1.213,31.852"/>
				<path style="fill:none;stroke:#D8BFA0;stroke-linecap:square;stroke-linejoin:bevel;stroke-miterlimit:10;" d="M197.657,311.274
					c0,0,0.316,21.441,0,36.347c-0.316,14.907,1.09,43.103,1.09,43.103"/>
				<path style="fill:none;stroke:#D8BFA0;stroke-linecap:square;stroke-linejoin:bevel;stroke-miterlimit:10;" d="M202.042,307.778
					c0,0-0.955,20.015-0.93,35.906c0.025,15.891,0.256,29.532,0,35.86c-0.256,6.328-0.025,11.245-0.025,11.245"/>
				<path style="fill:none;stroke:#D8BFA0;stroke-linecap:square;stroke-linejoin:bevel;stroke-miterlimit:10;" d="M206.322,371.809
					c0,11.569-1.826,19.191-1.826,19.191"/>
				<path style="fill:none;stroke:#D8BFA0;stroke-linecap:square;stroke-linejoin:bevel;stroke-miterlimit:10;" d="M204.879,304.027
					c0,0,1.846,17.157,1.443,30.094c-0.255,8.167,0.074,18.182-0.012,26.157"/>
				<path style="fill:none;stroke:#D8BFA0;stroke-linecap:square;stroke-linejoin:bevel;stroke-miterlimit:10;" d="M208.815,295.807
					c0,0,0.135,15.467-1.109,28.47"/>
				<path style="fill:none;stroke:#D8BFA0;stroke-linecap:square;stroke-linejoin:bevel;stroke-miterlimit:10;" d="M211.403,306.084
					c-1.406,20.443-1.918,37.388-2.365,47.549c-0.447,10.16-0.072,37.879-0.072,37.879"/>
				<path style="fill:#2A222F;stroke:#D8BFA0;stroke-linecap:square;stroke-linejoin:bevel;stroke-miterlimit:10;" d="
					M211.347,288.314c0,0,0.197,9.806,0.056,13.463"/>
				<path style="fill:none;stroke:#D8BFA0;stroke-linecap:square;stroke-linejoin:bevel;stroke-miterlimit:10;" d="M212.981,367.307
					c-0.593,9.847,1.707,24.582,1.707,24.582"/>
				<path style="fill:none;stroke:#D8BFA0;stroke-linecap:square;stroke-linejoin:bevel;stroke-miterlimit:10;" d="M214.527,276.264
					c0,0,0.673,7.741-0.733,32.448c-1.169,20.546-0.663,37.4-0.791,50.301"/>
				<path style="fill:none;stroke:#D8BFA0;stroke-linecap:square;stroke-linejoin:bevel;stroke-miterlimit:10;" d="M219.779,383.379
					c0.489,4.724,1.399,8.133,1.399,8.133"/>
				<path style="fill:none;stroke:#D8BFA0;stroke-linecap:square;stroke-linejoin:bevel;stroke-miterlimit:10;" d="M216.197,269.221
					c0,0,2.792,14.987,1.531,42.053c-0.795,17.052,0.077,36.378,0.85,50.135"/>
				<path style="fill:none;stroke:#D8BFA0;stroke-linecap:square;stroke-linejoin:bevel;stroke-miterlimit:10;" d="M220.861,353.56
					c0,0,0.315,25.482,5.589,37.44"/>
				<path style="fill:#2A222F;stroke:#D8BFA0;stroke-linecap:square;stroke-linejoin:bevel;stroke-miterlimit:10;" d="
					M203.129,209.268c-6.822,14.524-14.935,10.524-14.935,10.524l-2.177-10.211l-3.323,1.147c0.344-6.425,2.177-12.312,2.177-12.312
					l-0.706-0.263c0,0-4.601-2.069-4.004-5.391c0.688-3.829,4.018-4.819,9.359-1.423c0.788,0.501,1.879,0.947,3.17,1.018"/>
				<path style="fill:#2A222F;stroke:#D8BFA0;stroke-linecap:square;stroke-linejoin:bevel;stroke-miterlimit:10;" d="
					M187.135,214.794c0,0,3.519-0.896,4.98-2.03"/>
				<path style="fill:none;stroke:#D8BFA0;stroke-linecap:square;stroke-linejoin:bevel;stroke-miterlimit:10;" d="M186.404,203.828
					c0.224,0.21,2.127,1.949,4.265-0.547"/>
				
					<line style="fill:#2A222F;stroke:#D8BFA0;stroke-linecap:square;stroke-linejoin:bevel;stroke-miterlimit:10;" x1="208.671" y1="221.719" x2="208.823" y2="207.268"/>
				<path style="fill:#2A222F;stroke:#D8BFA0;stroke-linecap:square;stroke-linejoin:bevel;stroke-miterlimit:10;" d="
					M203.129,209.268c-1.711,3.77-3.495,6.075-5.239,7.775l0,0c0.062,0.223,1.155,6.069,0.461,12.909"/>
				<path style="fill:#D8BFA0;" d="M190.669,202.571l2.977,0.137c0,0-1.135,0.989-3.724,1.563L190.669,202.571z"/>
				<path style="fill:#2A222F;stroke:#D8BFA0;stroke-linecap:square;stroke-linejoin:bevel;stroke-miterlimit:10;" d="
					M197.825,196.258c0,0-2.323-2.417-6.041-0.329c-2.492,1.4-5.38,0.685-5.987-0.548"/>
				<path style="fill:none;stroke:#D8BFA0;stroke-linecap:square;stroke-linejoin:bevel;stroke-miterlimit:10;" d="M211.119,207.959
					c0,0-2.513-2.312-6.037,0.089c-2.362,1.61-5.327,0.927-6.037-0.249"/>
				<path style="fill:#2A222F;stroke:#D8BFA0;stroke-linecap:square;stroke-linejoin:bevel;stroke-miterlimit:10;" d="
					M200.584,197.177c0,0-1.464-2.082-4.418,0.305c-1.98,1.6-4.035,1.211-4.355,0.089"/>
				<g>
					<g>
						<g>
							<path style="fill:#D8BFA0;" d="M202.77,195.147c0,0-0.703,1.314-0.673,2.174c0.004,0.112,0.059,0.239,0.139,0.367
								c0.299,0.478,0.995,0.443,1.253-0.058c0.073-0.142,0.12-0.282,0.112-0.402C203.546,196.368,202.77,195.147,202.77,195.147z"
								/>
						</g>
						<g>
							<path style="fill:#D8BFA0;" d="M200.817,200.197c0,0,0.365-1.445,0.965-2.061c0.078-0.08,0.205-0.137,0.349-0.178
								c0.542-0.152,1.033,0.343,0.887,0.887c-0.041,0.154-0.101,0.289-0.188,0.373
								C202.213,199.816,200.817,200.197,200.817,200.197z"/>
						</g>
						<g>
							<path style="fill:#D8BFA0;" d="M204.51,195.727c0,0-0.552,1.385-0.427,2.236c0.016,0.111,0.085,0.231,0.179,0.349
								c0.35,0.441,1.038,0.329,1.238-0.198c0.057-0.149,0.088-0.294,0.067-0.412C205.417,196.855,204.51,195.727,204.51,195.727z"
								/>
						</g>
						<g>
							<path style="fill:#D8BFA0;" d="M203.193,200.981c0,0,0.201-1.477,0.73-2.156c0.069-0.088,0.188-0.159,0.327-0.215
								c0.522-0.211,1.065,0.226,0.98,0.783c-0.024,0.158-0.068,0.299-0.145,0.392C204.538,200.447,203.193,200.981,203.193,200.981
								z"/>
						</g>
						<g>
							<path style="fill:#D8BFA0;" d="M206.1,195.997c0,0-0.34,1.451-0.09,2.274c0.033,0.107,0.119,0.216,0.229,0.318
								c0.412,0.384,1.075,0.171,1.195-0.38c0.034-0.156,0.043-0.304,0.005-0.418C207.164,196.977,206.1,195.997,206.1,195.997z"/>
						</g>
						<g>
							<path style="fill:#D8BFA0;" d="M205.578,201.388c0,0-0.02-1.491,0.402-2.24c0.055-0.097,0.163-0.185,0.292-0.262
								c0.485-0.286,1.087,0.065,1.085,0.628c0,0.159-0.023,0.306-0.085,0.409C206.828,200.661,205.578,201.388,205.578,201.388z"/>
						</g>
						<g>
							<path style="fill:#D8BFA0;" d="M207.918,195.934c0,0-0.14,1.484,0.221,2.265c0.047,0.102,0.147,0.198,0.27,0.284
								c0.46,0.325,1.088,0.023,1.132-0.539c0.012-0.159,0.001-0.307-0.052-0.414C209.106,196.759,207.918,195.934,207.918,195.934z
								"/>
						</g>
						<g>
							<path style="fill:#D8BFA0;" d="M208.135,201.345c0,0-0.223-1.474,0.093-2.274c0.041-0.104,0.136-0.206,0.253-0.299
								c0.441-0.35,1.085-0.084,1.161,0.474c0.021,0.158,0.019,0.306-0.029,0.417C209.274,200.454,208.135,201.345,208.135,201.345z
								"/>
						</g>
						<g>
							<path style="fill:#D8BFA0;" d="M209.319,195.608c0,0,0.178,1.48,0.696,2.167c0.067,0.089,0.186,0.162,0.324,0.22
								c0.519,0.219,1.068-0.209,0.992-0.768c-0.021-0.158-0.064-0.3-0.139-0.394C210.655,196.162,209.319,195.608,209.319,195.608z
								"/>
						</g>
						<g>
							<path style="fill:#D8BFA0;" d="M210.68,200.85c0,0-0.531-1.393-0.392-2.242c0.018-0.11,0.089-0.23,0.184-0.346
								c0.357-0.436,1.043-0.313,1.235,0.216c0.054,0.15,0.083,0.295,0.06,0.413C211.604,199.736,210.68,200.85,210.68,200.85z"/>
						</g>
						<g>
							<path style="fill:#D8BFA0;" d="M199.148,196.419c0,0,0.848,1.225,1.627,1.59c0.101,0.047,0.24,0.056,0.389,0.043
								c0.561-0.049,0.847-0.685,0.519-1.143c-0.093-0.13-0.196-0.235-0.307-0.283C200.588,196.283,199.148,196.419,199.148,196.419
								z"/>
						</g>
						<g>
							<path style="fill:none;stroke:#D8BFA0;stroke-linecap:square;stroke-linejoin:bevel;stroke-miterlimit:10;" d="
								M201.767,197.61c0,0,5.405,2.885,10.516-0.344"/>
						</g>
					</g>
				</g>
				<g>
					<path style="fill:#2A222F;stroke:#D8BFA0;stroke-linecap:square;stroke-linejoin:bevel;stroke-miterlimit:10;" d="
						M184.945,233.783c0,0,0.135,0.072,0.369,0.213c-0.086-0.359-0.019-0.773,0.405-1.197c0,0,0.243,0.115,0.62,0.315
						c-0.152-0.595-0.145-1.25,0.787-0.947c1.406,0.457,5.15,1.406,8.262,7.893c3.111,6.486,3.142,6.645,5.052,7.91
						c1.55,1.028,14.744,6.229,19.648,8.147l0.384-20.032c0.047-2.443,0.719-4.833,1.951-6.942l0,0
						c2.497,2.848,2.813,10.125,4.817,19.301c2.004,9.176,3.691,22.782-0.527,23.204c-4.219,0.422-30.798-20.461-30.798-20.461
						s-3.691-2.32-5.906-8.121c-2.184-5.721-4.162-5.8-4.115-6.915l-0.662-0.609C185.23,235.541,184.312,234.697,184.945,233.783z"
						/>
					<path style="fill:#2A222F;stroke:#D8BFA0;stroke-linecap:square;stroke-linejoin:bevel;stroke-miterlimit:10;" d="
						M186.338,233.113c0.013,0.142,3.494,1.443,5.744,4.502"/>
					<path style="fill:#2A222F;stroke:#D8BFA0;stroke-linecap:square;stroke-linejoin:bevel;stroke-miterlimit:10;" d="
						M185.313,233.996c0,0,3.771,1.87,5.617,4.507"/>
					<path style="fill:#2A222F;stroke:#D8BFA0;stroke-linecap:square;stroke-linejoin:bevel;stroke-miterlimit:10;" d="
						M185.892,236.15c0,0,1.135-0.653,3.719,2.96"/>
				</g>
			</g>
		</g>
	</g>
	<g>
		<path style="fill:#D8BFA0;" d="M66.833,276.775c-0.262-0.175-5.579-2.948-5.579-2.948l3.841-2.532l27.592-2.622l27.766-0.024
			h4.599c0,0,2.313,2.934,2.051,2.715c-0.262-0.218-5.936,2.488-5.936,2.488l8.206-0.262c0,0,3.23,5.151,3.317,5.413
			c0.087,0.262,0,1.31,0,1.31H44.941l2.471-3.421h14.293L66.833,276.775z"/>
		<g>
			<path style="fill:#2A222F;stroke:#D8BFA0;stroke-linecap:square;stroke-linejoin:bevel;stroke-miterlimit:10;" d="M39.707,240.17
				c-5.229,1.085-10.821,1.575-14.574,1.795c-2.988,0.175-5.832,1.789-7.861,4.44c-1.932,2.525-4.049,5.554-4.515,7.255
				c-0.9,3.283,9.181-2.196,10.074,0.253l1.561-0.74c0,0,0.104-4.133-6.839-1.615l1.657-2.254c1.992-2.71,4.827-4.379,7.828-4.625
				c2.704-0.222,6.126-0.407,9.094-0.272C42.143,244.68,39.707,240.17,39.707,240.17z"/>
			<path style="fill:#D8BFA0;stroke:#D8BFA0;stroke-miterlimit:10;" d="M23.937,252.278c0,0-1.455,0.983-1.088,3.765
				c0.367,2.782,0.014,4.629-0.722,5.701c0,0,1.246-0.065,1.729-1.743c0.007-0.026,0.015-0.052,0.022-0.079
				c0.466-1.755,0.201,0.945,0.201,0.945s1.231-1.081,1.231-4.091C25.31,253.767,23.937,252.278,23.937,252.278z"/>
			<path style="fill:#2A222F;stroke:#D8BFA0;stroke-linecap:square;stroke-linejoin:bevel;stroke-miterlimit:10;" d="
				M145.422,199.011c-0.453-0.999-6.378-4.668-6.378-4.668c-1.297-2.056-4.484-3.946-4.484-3.946s-3.47-9.039-20.577-8.709
				l1.894,2.831c0,0-11.701-6.227-23.063-0.255c-5.041,2.65-7.756,5.675-9.219,8.222c-2.942,1.31-6.165,3.313-8.193,6.279
				c-4.526,6.62-5.297,19.123-5.297,19.123l5.874-4.29l-6.787,9.487c-5.516,4.698-10.168,5.792-17.709,7.704
				c-7.542,1.913-12.022,9.428-12.022,9.428s0.913,14.349-4.877,19.896c-5.79,5.546-6.281,4.053-6.281,4.053l-1.318,8.973
				l-0.547,3.724l2.209,3.582h11.55c0,0,1.365-3.554-2.265-3.554c-3.63,0-4.049-0.099-4.049-0.099s-1.848,0.233-0.811-3.653
				l1.483-5.567c0,0,5.397-0.451,12.973-4.847c7.576-4.395,10.235-10.402,14.194-11.952c3.959-1.551,12.642-0.076,20.207,1.547
				c2.533,0.544,5.74,0.666,9.24,0.435l-0.897,8.717l-0.547,3.725l2.209,3.582h11.55c0,0,1.365-3.553-2.265-3.553
				c-3.63,0-4.049-0.1-4.049-0.1s-1.848,0.233-0.811-3.653l1.483-5.567c0,0,3.388-2.687,8.554-5.986
				c6.35-1.935,12.008-4.708,14.908-7.985l-1.708,4.369c0,0,5.33-2.415,7.811-7.204l-0.511,3.479c0,0,4.218-3.467,4.515-6.622
				c0.297-3.155,2.051-6.629,2.051-6.629l-0.767,5.218c0,0,2.608-2.673,3.078-7.36c5.203-3.998,2.313-14.239,3.001-13.759
				c0.725,0.506,2.594,1.847,2.594,1.847c3.243-4.388,1.023-8.779,1.023-8.779l1.429-2.922
				C143.819,203.573,145.875,200.01,145.422,199.011z"/>
			<path style="fill:#D8BFA0;" d="M137.494,196.047c0,0-2.181-2.317-4.102,0.29c0,0,1.401-0.233,2.918-0.289
				c1.855,1.204,2.98,1.155,2.98,1.155L137.494,196.047z"/>
			<path style="fill:none;stroke:#FF0000;stroke-linecap:square;stroke-linejoin:bevel;stroke-miterlimit:10;" d="M141.367,215.274"
				/>
			<path style="fill:#2A222F;stroke:#D8BFA0;stroke-linecap:square;stroke-linejoin:bevel;stroke-miterlimit:10;" d="
				M140.413,199.541c-0.078,0.529-0.083,1.174,1.261,1.497c0.445,0.107,0.886,0.248,1.311,0.417l1.501,0.598"/>
			<path style="fill:#D8BFA0;" d="M61.721,250.773c-0.275,0.107-0.542,0.241-0.807,0.389c0.898,2.028,2.544,9.551-0.89,13.577
				c-3.435,4.027-7.396,6.199-7.396,6.199l2.991,5.948l6.085,0.005l-1.127-5.941c0,0,11.797-7.418,13.615-11.327
				c1.195-2.568,2.004-6.179,2.421-8.361C70.626,250.181,64.771,249.578,61.721,250.773z"/>
			<path style="fill:#D8BFA0;" d="M123.78,198.054c2.312-3.271,1.791-6.357,1.791-6.357c4.667-1.846,8.989-1.3,8.989-1.3
				s-3.47-9.039-20.577-8.709l1.894,2.831c0,0-11.701-6.226-23.063-0.255c-5.041,2.65-7.756,5.675-9.219,8.222
				c-2.942,1.31-6.165,3.313-8.193,6.279c-4.526,6.62-5.297,19.123-5.297,19.123l5.874-4.29c0,0-1.444,11.633,10.274,17.745
				l0.224-3.941c0,0,0.302,5.197,4.293,8.271l3.866-9.383c0,0,6.548-2.237,9.363,8.839c2.806,11.039,17.302,6.806,17.302,6.806
				l-1.708,4.369c0,0,5.33-2.415,7.811-7.204l-0.511,3.479c0,0,4.218-3.467,4.515-6.622c0.297-3.155,2.051-6.629,2.051-6.629
				l-0.767,5.218c0,0,2.608-2.673,3.078-7.36c5.203-3.998,2.313-14.239,3.001-13.759c0,0-3.611-3.929-7.313-3.939
				C127.759,209.476,116.471,208.398,123.78,198.054z"/>
			<path style="fill:#D8BFA0;" d="M106.83,249.784l12.102,19.12l5.653-0.004l-8.512-22.975c-2.648,1.491-5.835,2.792-9.234,3.854
				L106.83,249.784z"/>
			<path style="fill:#D8BFA0;stroke:#D8BFA0;stroke-linecap:square;stroke-linejoin:bevel;stroke-miterlimit:10;" d="
				M72.175,245.925c-11.283,0.838-12.825,6.353-12.825,6.353s0.002,0.003,0.002,0.003c0.771-0.658,1.541-1.185,2.369-1.509
				c0.715-0.28,1.589-0.459,2.578-0.558C66.835,247.177,72.175,245.925,72.175,245.925z"/>
			<path style="fill:#2A222F;stroke:#D8BFA0;stroke-linecap:square;stroke-linejoin:bevel;stroke-miterlimit:10;" d="
				M91.168,252.755l1.115-5.3c0,0,8.535-4.393,8.68-9.456"/>
		</g>
	</g>
	<g>
		<path style="fill:#2A222F;stroke:#D8BFA0;stroke-linecap:square;stroke-linejoin:bevel;stroke-miterlimit:10;" d="M400.338,89.012
			c0,0,16.341-10.027,24.338-27.875l-17.211,6.839c0,0,1.217-10.952,14.082-14.951c0,0-15.82-5.333-27.642,8.112
			c-11.822,13.445-7.128,24.05-7.128,24.05L400.338,89.012z"/>
		<path style="fill:#D8BFA0;" d="M399.295,91.814l-6.085,6.238c-6.954-5.389-5.053-12.476-5.053-12.476l10.48,2.956L399.295,91.814z
			"/>
		<path style="fill:#2A222F;stroke:#D8BFA0;stroke-linecap:square;stroke-linejoin:bevel;stroke-miterlimit:10;" d="M401.294,90.838
			l-1.999,0.977l-6.085,6.238c0,0-0.125,7.17,17.314,7.215c0.091-3.912,1.111-7.594,2.86-10.828L401.294,90.838z"/>
		<path style="fill:#2A222F;stroke:#D8BFA0;stroke-linecap:square;stroke-linejoin:bevel;stroke-miterlimit:10;" d="M468.663,89.012
			c0,0-16.342-10.027-24.339-27.875l17.211,6.839c0,0-1.217-10.952-14.082-14.951c0,0,15.82-5.333,27.642,8.112
			c11.822,13.445,7.128,24.05,7.128,24.05L468.663,89.012z"/>
		<path style="fill:#D8BFA0;" d="M469.706,91.814l6.085,6.238c6.954-5.389,5.053-12.476,5.053-12.476l-10.48,2.956L469.706,91.814z"
			/>
		<path style="fill:#2A222F;stroke:#D8BFA0;stroke-linecap:square;stroke-linejoin:bevel;stroke-miterlimit:10;" d="M475.791,98.052
			l-6.085-6.238l-1.999-0.977l-12.09,3.601c1.748,3.234,2.769,6.916,2.86,10.828C475.916,105.223,475.791,98.052,475.791,98.052z"/>
		<g>
			<path style="fill:#D8BFA0;" d="M400.385,127.135l13.488-12.489c-1.807-2.434-3.048-5.062-3.297-7.811
				C408.668,109.248,402.573,117.509,400.385,127.135z"/>
			<path style="fill:#D8BFA0;" d="M414.865,115.9c-1.948,2.727-5.151,7.849-6.468,13.641l10.431-9.659
				C417.397,118.639,416.048,117.307,414.865,115.9z"/>
			<path style="fill:#D8BFA0;" d="M416.296,131.171l7.827-7.247c-1.141-0.774-2.299-1.609-3.438-2.504
				C419.16,123.725,417.185,127.255,416.296,131.171z"/>
		</g>
		<path style="fill:#2A222F;stroke:#D8BFA0;stroke-linecap:square;stroke-linejoin:bevel;stroke-miterlimit:10;" d="M410.51,105.832
			c0,7.847,8.415,14.814,15.277,19.191c5.32,3.393,12.108,3.393,17.428,0c6.862-4.377,15.277-11.344,15.277-19.191
			c0-13.25-10.741-23.991-23.991-23.991C421.251,81.841,410.51,92.582,410.51,105.832z"/>
		<g>
			<path style="fill:#D8BFA0;" d="M468.616,127.135l-13.488-12.489c1.808-2.434,3.048-5.062,3.297-7.811
				C460.333,109.248,466.428,117.509,468.616,127.135z"/>
			<path style="fill:#D8BFA0;" d="M454.136,115.9c1.948,2.727,5.151,7.849,6.468,13.641l-10.431-9.659
				C451.604,118.639,452.953,117.307,454.136,115.9z"/>
			<path style="fill:#D8BFA0;" d="M452.705,131.171l-7.826-7.247c1.141-0.774,2.299-1.609,3.438-2.504
				C449.841,123.725,451.816,127.255,452.705,131.171z"/>
		</g>
		<path style="fill:#D8BFA0;" d="M438.045,82.104c4.168,0.617,7.983,2.309,11.163,4.781C446.3,76.995,438.706,81.674,438.045,82.104
			z"/>
		<path style="fill:#D8BFA0;" d="M430.956,82.104c-4.168,0.617-7.983,2.309-11.163,4.781
			C422.701,76.995,430.296,81.674,430.956,82.104z"/>
	</g>
	<g>
		<path style="fill:#2A222F;stroke:#D8BFA0;stroke-linecap:square;stroke-linejoin:bevel;stroke-miterlimit:10;" d="
			M358.599,111.052c-1.207-7.021-0.736-11.024,3.1-16.821c4.861-7.347,1.2-10.864-1.533-14.691
			c-3.539-4.957-6.645-9.782-9.288-13.964c-0.564-0.892-1.339-1.835-2.229-2.78c-6.288-6.68-17.061-11.479-27.313-5.316
			c-12.191,7.329-14.725,27.608-9.252,40.517c5.534,13.054,10.77,17.193,20.103,22.63
			C350.848,131.498,360.325,121.092,358.599,111.052z"/>
		<g>
			<path style="fill:#2A222F;stroke:#D8BFA0;stroke-linecap:square;stroke-linejoin:bevel;stroke-miterlimit:10;" d="
				M275.233,73.838c0,0-2.901,9.317-3.445,19.485l5.259-1.816l3.445,16.159c0,0,13.056,6.66,23.754-16.914l-10.155-16.914H275.233z"
				/>
			<path style="fill:#2A222F;stroke:#D8BFA0;stroke-linecap:square;stroke-linejoin:bevel;stroke-miterlimit:10;" d="
				M275.156,73.838c0,0-6.346,0.239-6.346-6.842c0-7.081,7.797-9.26,13.781-4.358c0.711,0.583,1.214,1.162,1.551,1.724
				c1.645-0.698,3.438-1.702,5.339-3.164c10.88-8.365,14.688,0,14.688,0s11.216-5.097,14.493,7.613c0,0,2.008,13.378-14.493,21.941
				l-10.155-16.914H275.156z"/>
			<g>
				<g>
					<g>
						<path style="fill:#D8BFA0;" d="M295.295,65.441c0,0-1.504,3.283-1.304,5.358c0.026,0.27,0.179,0.57,0.39,0.866
							c0.794,1.111,2.471,0.923,3.02-0.327c0.155-0.354,0.248-0.701,0.211-0.99C297.353,68.281,295.295,65.441,295.295,65.441z"/>
					</g>
					<g>
						<path style="fill:#D8BFA0;" d="M291.322,77.944c0,0,0.667-3.55,2.028-5.127c0.177-0.205,0.475-0.362,0.819-0.481
							c1.289-0.447,2.55,0.676,2.276,2.014c-0.077,0.378-0.202,0.715-0.399,0.93C294.641,76.817,291.322,77.944,291.322,77.944z"/>
					</g>
					<g>
						<path style="fill:#D8BFA0;" d="M299.588,66.587c0,0-1.13,3.431-0.7,5.47c0.056,0.265,0.241,0.546,0.484,0.817
							c0.912,1.015,2.559,0.642,2.965-0.662c0.115-0.369,0.168-0.724,0.1-1.007C301.949,69.18,299.588,66.587,299.588,66.587z"/>
					</g>
					<g>
						<path style="fill:#D8BFA0;" d="M297.184,79.488c0,0,0.268-3.602,1.445-5.322c0.153-0.224,0.431-0.412,0.76-0.569
							c1.231-0.588,2.609,0.388,2.486,1.748c-0.035,0.385-0.121,0.733-0.293,0.969C300.357,77.998,297.184,79.488,297.184,79.488z"
							/>
					</g>
					<g>
						<path style="fill:#D8BFA0;" d="M303.475,67.004c0,0-0.608,3.561,0.12,5.513c0.095,0.254,0.319,0.505,0.6,0.736
							c1.053,0.868,2.625,0.254,2.834-1.096c0.059-0.382,0.059-0.741-0.051-1.011C306.194,69.216,303.475,67.004,303.475,67.004z"/>
					</g>
					<g>
						<path style="fill:#D8BFA0;" d="M303.013,80.119c0,0-0.27-3.602,0.639-5.478c0.118-0.244,0.366-0.472,0.667-0.676
							c1.13-0.765,2.638-0.005,2.718,1.358c0.023,0.386-0.011,0.743-0.146,1.002C305.929,78.173,303.013,80.119,303.013,80.119z"/>
					</g>
					<g>
						<path style="fill:#D8BFA0;" d="M307.861,66.579c0,0-0.117,3.61,0.87,5.446c0.128,0.239,0.385,0.456,0.695,0.647
							c1.161,0.716,2.635-0.107,2.658-1.472c0.006-0.386-0.042-0.742-0.188-0.995C310.857,68.4,307.861,66.579,307.861,66.579z"/>
					</g>
					<g>
						<path style="fill:#D8BFA0;" d="M309.19,79.636c0,0-0.758-3.532-0.113-5.514c0.084-0.258,0.298-0.518,0.569-0.761
							c1.015-0.912,2.612-0.365,2.878,0.975c0.075,0.379,0.09,0.738-0.008,1.012C311.813,77.31,309.19,79.636,309.19,79.636z"/>
					</g>
					<g>
						<path style="fill:#D8BFA0;" d="M311.202,65.585c0,0,0.651,3.553,2.006,5.136c0.176,0.206,0.473,0.364,0.816,0.485
							c1.287,0.453,2.553-0.665,2.285-2.005c-0.076-0.379-0.199-0.716-0.395-0.932C314.516,66.727,311.202,65.585,311.202,65.585z"
							/>
					</g>
					<g>
						<path style="fill:#D8BFA0;" d="M315.271,78.06c0,0-1.49-3.29-1.281-5.364c0.027-0.27,0.181-0.569,0.394-0.865
							c0.799-1.107,2.475-0.912,3.019,0.34c0.154,0.354,0.245,0.702,0.207,0.991C317.341,75.229,315.271,78.06,315.271,78.06z"/>
					</g>
					<g>
						<path style="fill:#D8BFA0;" d="M286.724,69.056c0,0,2.234,2.836,4.17,3.603c0.252,0.1,0.588,0.1,0.948,0.046
							c1.349-0.202,1.946-1.782,1.085-2.841c-0.244-0.299-0.51-0.54-0.784-0.639C290.186,68.515,286.724,69.056,286.724,69.056z"/>
					</g>
					<g>
						<path style="fill:none;stroke:#D8BFA0;stroke-linecap:square;stroke-linejoin:bevel;stroke-miterlimit:10;" d="
							M293.235,71.547c0,0,13.499,6.175,25.382-2.393"/>
					</g>
				</g>
			</g>
			<path style="fill:#2A222F;stroke:#D8BFA0;stroke-linecap:square;stroke-linejoin:bevel;stroke-miterlimit:10;" d="
				M278.083,96.371c0,0,4.132-3.048,8.504-0.688c4.372,2.36,12.169,0.545,9.993-6.355c-2.176-6.9-10.268-3.598-8.874,1.424
				c0,0-3.808-1.639-10.66,0.755L278.083,96.371z"/>
			<path style="fill:none;stroke:#D8BFA0;stroke-linecap:square;stroke-linejoin:bevel;stroke-miterlimit:10;" d="M277.046,91.508
				c0.308-0.105,6.455-2.191,10.66-0.755c1.984,0.677,3.284,1.652,4.104,2.493"/>
			<path style="fill:none;stroke:#D8BFA0;stroke-linecap:square;stroke-linejoin:bevel;stroke-miterlimit:10;" d="M277.742,82.523
				c0.478,0.088,3.366,3.084,6.75-0.865"/>
			<path style="fill:#2A222F;stroke:#D8BFA0;stroke-linecap:square;stroke-linejoin:bevel;stroke-miterlimit:10;" d="
				M304.226,90.721l0.019,0.032c-2.707,5.966-5.565,9.993-8.325,12.684l0,0.001c0.098,0.353,0.188,0.709,0.272,1.066
				c1.165,4.967,2.707,14.184,0.981,23.318c0,0,8.281-4.902,16.048-7.353V83.901C311.113,86.284,308.215,88.643,304.226,90.721z"/>
			<path style="fill:#D8BFA0;" d="M295.921,103.437L295.921,103.437c0.097,0.354,0.188,0.709,0.272,1.066
				c0.405,1.727,0.853,3.976,1.196,6.549c6.441-8.007,6.857-20.3,6.857-20.3C301.538,96.718,298.68,100.745,295.921,103.437z"/>
		</g>
		<path style="fill:#2A222F;stroke:#D8BFA0;stroke-linecap:square;stroke-linejoin:bevel;stroke-miterlimit:10;" d="M326.136,90.753
			"/>
		<path style="fill:#2A222F;stroke:#D8BFA0;stroke-linecap:square;stroke-linejoin:bevel;stroke-miterlimit:10;" d="M326.093,91.132
			c10.698,23.575,23.635,16.655,23.635,16.655l3.445-16.159l5.259,1.816c-0.544-10.168-3.445-19.485-3.445-19.485l1.117-0.416
			c0,0,7.281-3.274,6.337-8.531c-1.088-6.06-6.358-7.626-14.812-2.252c-1.248,0.793-2.974,1.499-5.017,1.61"/>
		<path style="fill:#2A222F;stroke:#D8BFA0;stroke-linecap:square;stroke-linejoin:bevel;stroke-miterlimit:10;" d="M351.405,99.877
			c0,0-5.569-1.418-7.881-3.212"/>
		<path style="fill:none;stroke:#D8BFA0;stroke-linecap:square;stroke-linejoin:bevel;stroke-miterlimit:10;" d="M352.563,82.523
			c-0.355,0.332-3.366,3.084-6.75-0.865"/>
		<path style="fill:#2A222F;stroke:#D8BFA0;stroke-linecap:square;stroke-linejoin:bevel;stroke-miterlimit:10;" d="M326.059,90.753
			c2.707,5.966,5.565,9.993,8.325,12.684l0,0.001c-0.098,0.353-0.188,0.709-0.272,1.066c-1.165,4.967-2.707,14.184-0.981,23.318
			c0,0-8.281-4.902-16.048-7.353v-32.5"/>
		<path style="fill:#D8BFA0;" d="M334.384,103.437L334.384,103.437c-0.097,0.354-0.188,0.709-0.272,1.066
			c-0.405,1.727-0.853,3.976-1.196,6.549c-6.441-8.007-6.857-20.3-6.857-20.3C328.767,96.718,331.625,100.745,334.384,103.437z"/>
		<path style="fill:#D8BFA0;" d="M345.813,81.136l-4.712-0.386c0,0,1.796,1.564,5.893,2.474L345.813,81.136z"/>
		<path style="fill:#2A222F;stroke:#D8BFA0;stroke-linecap:square;stroke-linejoin:bevel;stroke-miterlimit:10;" d="M334.487,70.542
			c0,0,3.677-3.825,9.56-0.521c3.944,2.215,8.515,1.085,9.474-0.867"/>
		<path style="fill:none;stroke:#D8BFA0;stroke-linecap:square;stroke-linejoin:bevel;stroke-miterlimit:10;" d="M313.449,89.06
			c0,0,3.977-3.66,9.554,0.141c3.738,2.548,8.429,1.467,9.554-0.395"/>
		<path style="fill:#2A222F;stroke:#D8BFA0;stroke-linecap:square;stroke-linejoin:bevel;stroke-miterlimit:10;" d="M330.121,71.997
			c0,0,2.317-3.294,6.991,0.482c3.133,2.531,6.385,1.916,6.892,0.141"/>
	</g>
	<g>
		<g>
			<path style="fill:#D8BFA0;stroke:#D8BFA0;stroke-linecap:square;stroke-linejoin:bevel;stroke-miterlimit:10;" d="
				M237.073,86.961c0,0,4.842-0.099,8.239,1.291c3.398,1.39,7.899,10.626,14.44,6.753c0,0-5.436,6.157-12.232,1.49
				s-11.807-2.88-11.807-2.88"/>
			<path style="fill:#D8BFA0;" d="M191.63,110.843c-0.318,0.713-0.68,1.441-1.104,2.185l-0.68,8.541c0,0,3.058,1.986,7.815,0
				l-2.039-7.15c0,0,0.34-1.796,1.158-4.026c-0.637,0.088-1.287,0.168-1.956,0.233C193.713,110.732,192.649,110.803,191.63,110.843z
				"/>
			<path style="fill:#D8BFA0;" d="M241.854,94.254c-2.652,3.575-6.797,4.37-12.404,6.554c-5.606,2.185-7.475,12.116-7.475,12.116
				l2.038,7.15c-4.757,1.986-7.814,0-7.814,0l0.68-8.541c5.096-8.938,2.039-15.89,2.039-15.89s1.869-1.39,4.587-4.966"/>
			<path style="fill:#2A222F;stroke:#D8BFA0;stroke-linecap:square;stroke-linejoin:bevel;stroke-miterlimit:10;" d="
				M161.451,78.044c-5.503,2.011-11.495,3.435-15.533,4.272c-3.215,0.667-6.045,2.872-7.824,6.073
				c-1.695,3.049-3.51,6.675-3.744,8.595c-0.453,3.708,9.616-3.848,10.975-1.332l1.576-1.052c0,0-0.546-4.503-7.681-0.662
				l1.439-2.711c1.73-3.259,4.541-5.523,7.76-6.269c2.9-0.672,6.585-1.419,9.828-1.746
				C164.814,82.552,161.451,78.044,161.451,78.044z"/>
			<path style="fill:#D8BFA0;stroke:#D8BFA0;stroke-miterlimit:10;" d="M146.263,93.702c0,0-1.423,1.299-0.581,4.26
				c0.842,2.961,0.754,5.022,0.125,6.304c0,0,1.342-0.269,1.599-2.167c0.004-0.029,0.008-0.059,0.011-0.089
				c0.226-1.979,0.369,0.994,0.369,0.994s1.164-1.369,0.684-4.637C147.99,95.1,146.263,93.702,146.263,93.702z"/>
			<path style="fill:#2A222F;stroke:#D8BFA0;stroke-linecap:square;stroke-linejoin:bevel;stroke-miterlimit:10;" d="
				M201.129,109.572c-1.931,0.461-4.02,0.829-6.305,1.052c-18.067,1.762-23.827-6.157-23.827-6.157
				c-2.652,3.575-8.221,4.37-13.827,6.555c-5.606,2.185-7.475,12.116-7.475,12.116l2.039,7.151c-4.757,1.986-7.814,0-7.814,0
				l0.68-8.541c5.096-8.938,2.039-15.89,2.039-15.89s1.869-1.39,4.587-4.965c2.718-3.575,1.699-12.712,7.475-20.125
				c5.776-7.413,16.818-7.086,16.818-7.086c9.43-3.575,19.095-11.345,25.318-16.988c4.466-4.051,11.023-4.755,16.231-1.717
				c8.855,5.166,21.728,14.378,28.663,27.291c0,0-2.708,10.475-3.542,12.667c0,0-5.853,5.66-6.617,8.938c0,0-4.247,1.49-7.39-1.589
				c0,0-0.595-1.788,0.51-4.668c0,0-1.699-3.972-1.189-8.243l-2.378,6.157l0.34,8.144c0,0-4.502,0.298-11.042,4.866
				c0,0-2.123,1.092-5.521-0.695l-1.398-0.327c-1.503,0.634-3.171,1.213-4.993,1.71L201.129,109.572z"/>
			<path style="fill:#2A222F;stroke:#D8BFA0;stroke-linecap:square;stroke-linejoin:bevel;stroke-miterlimit:10;" d="
				M201.129,109.572c-1.931,0.461-4.02,0.829-6.305,1.052c-18.067,1.762-23.827-6.157-23.827-6.157
				c-2.652,3.575-8.221,4.37-13.827,6.555c-5.606,2.185-7.475,12.116-7.475,12.116l2.039,7.151c-4.757,1.986-7.814,0-7.814,0
				l0.68-8.541c5.096-8.938,2.039-15.89,2.039-15.89s1.869-1.39,4.587-4.965c2.718-3.575,1.699-12.712,7.475-20.125
				c5.776-7.413,16.818-7.086,16.818-7.086c9.43-3.575,19.095-11.345,25.318-16.988c4.466-4.051,11.023-4.755,16.231-1.717
				c8.855,5.166,21.728,14.378,28.663,27.291c0,0-2.708,10.475-3.542,12.667c0,0-5.853,5.66-6.617,8.938c0,0-4.247,1.49-7.39-1.589
				c0,0-0.595-1.788,0.51-4.668c0,0-1.699-3.972-1.189-8.243l-2.378,6.157l0.34,8.144c0,0-4.502,0.298-11.042,4.866
				c0,0-2.123,1.092-5.521-0.695l-1.398-0.327c-1.503,0.634-3.171,1.213-4.993,1.71L201.129,109.572z"/>
			<path style="fill:#D8BFA0;stroke:#D8BFA0;stroke-linecap:square;stroke-linejoin:bevel;stroke-miterlimit:10;" d="
				M231.493,83.214c0,0-1.805,0.695-4.088,1.986c0,0-1.654,3.186-1.669,8.739l1.764-4.568
				C228.01,85.697,231.493,83.214,231.493,83.214z"/>
			<path style="fill:#2A222F;stroke:#D8BFA0;stroke-linecap:square;stroke-linejoin:bevel;stroke-miterlimit:10;" d="M242.11,81.923
				c0,0,4.842-0.099,8.239,1.291c3.398,1.39,7.9,10.626,14.44,6.753c0,0-5.436,6.157-12.231,1.49
				c-6.795-4.668-11.807-2.88-11.807-2.88"/>
			<path style="fill:#D8BFA0;" d="M237.821,90.334c0,0,0.83,2.329,1.106,4.374C238.928,94.708,241.008,91.905,237.821,90.334z"/>
			<path style="fill:#2A222F;stroke:#D8BFA0;stroke-linecap:square;stroke-linejoin:bevel;stroke-miterlimit:10;" d="
				M225.462,102.853l-0.235-7.852c0,0-9.027-11.811-9.027-16.517"/>
			<path style="fill:#D8BFA0;stroke:#D8BFA0;stroke-linecap:square;stroke-linejoin:bevel;stroke-miterlimit:10;" d="
				M175.347,91.755c-0.51,7.647-4.35,12.712-4.35,12.712s0.564,0.775,1.892,1.786C176.8,97.832,175.347,91.755,175.347,91.755z"/>
			<path style="fill:#D8BFA0;stroke:#D8BFA0;stroke-linecap:square;stroke-linejoin:bevel;stroke-miterlimit:10;" d="
				M209.797,102.547l6.435-3.543l3.398,1.292c-4.304-5.694-18.687-7.813-18.687-7.813c-2.191-8.781-0.155-13.066,0.8-13.999
				c-1.02,0.85-5.139,5.05-1.778,15.231c0,0,8.34,1.12,14.456,4.314l-4.417,2.664c0,0-2.831-2.516-6.116-0.795l-2.758,9.674
				c0.466-0.111,0.931-0.223,1.378-0.345l2.512-7.872C207.398,100.296,209.797,102.547,209.797,102.547z"/>
		</g>
		<path style="fill:#D8BFA0;" d="M179.697,127.332c-0.262-0.175-5.579-2.948-5.579-2.948l3.841-2.532l27.592-2.622l23.491-0.024
			h4.599c0,0,2.313,2.934,2.051,2.715c-0.262-0.218-5.936,2.488-5.936,2.488l8.206-0.262c0,0,3.23,5.151,3.317,5.413
			c0.087,0.262,0,1.31,0,1.31h-83.474l2.453-3.397h7.411L179.697,127.332z"/>
	</g>
	<g>
		<path style="fill:#D8BFA0;" d="M77.373,127.511c-0.262-0.174-5.858-3.063-5.858-3.063l3.841-2.532l17.453-2.385l5.579-0.024
			l1.481,0.024l5.577-0.024c0,0,2.313,2.934,2.051,2.715c-0.262-0.218-5.936,2.488-5.936,2.488l8.206-0.262
			c0,0,3.23,5.151,3.317,5.412c0.087,0.262,0,1.31,0,1.31H45.064l2.453-3.397h7.411L77.373,127.511z"/>
		<g>
			<path style="fill:#D8BFA0;" d="M97.957,84.493c0,0-0.562,15.42-2.168,19.836l0.321,9.073l1.445,1.686l0.226,4.444l5.579-0.024
				l-3.075-5.784l-0.562-9.474c0,0,4.336-14.212,5.54-15.978l0.678-9.37L97.957,84.493z"/>
			<path style="fill:#D8BFA0;" d="M50.836,81.338c0,0-2.623-0.215-4.222,3.332c-1.6,3.547-3.436,5.349-5.193,5.903
				c0,0,1.666,1.079,3.545-0.408c0.029-0.023,0.058-0.047,0.088-0.071c1.914-1.591-0.444,1.276-0.444,1.276s2.405-0.106,4.651-3.576
				C51.507,84.325,50.836,81.338,50.836,81.338z"/>
			<path style="fill:#2A222F;stroke:#D8BFA0;stroke-linecap:square;stroke-linejoin:bevel;stroke-miterlimit:10;" d="M95.563,29.674
				c1.77,2.563,2.043,5.896,0.777,8.742c-0.886,1.991-2.023,4.019-2.392,6.417c-0.186,1.211-0.413,2.693-0.641,4.186
				c-0.733,4.792-2.987,9.221-6.43,12.633l0,0c-2.479,2.457-5.492,4.306-8.805,5.402l-13.444,4.451
				c-4.495,1.488-8.635,3.942-11.967,7.307c-1.462,1.476-2.655,3.02-2.946,4.329c-0.408,1.836-0.006,10.588,4.73,13.398
				c0,0-1.202,6.985-5.138,9.474c0,0,1.284,9.314-3.132,18.065l3.452,3.693h3.212l-1.847-4.657c0,0,1.927-9.795,2.569-11.642
				c0.642-1.847,13.971-17.503,13.971-17.503s13.489,0.161,23.365-5.46c0,0-0.562,11.401-2.168,15.817l0.321,9.073l1.445,1.686
				l0.226,4.444l5.579-0.024l-3.075-5.784l-0.562-9.474c0,0,4.336-14.212,5.54-15.978c0.63-0.924,2.798-3.298,4.722-5.352
				c2.199-2.347,3.869-5.137,4.902-8.182l2.005-5.909c1.564-4.61,1.598-9.601,0.095-14.231c-1.066-3.281-2.042-6.762-1.849-7.997
				c0.401-2.569,0.642-3.452,0.642-3.452l3.613-2.007l2.89-0.241c0,0,2.409-1.686,1.204-5.38c0,0-8.27-3.372-12.124-7.226
				c-3.854-3.854-9.233-8.993-17.182-4.657c-7.949,4.336-4.578,15.095,2.007,15.095c6.585,0,8.109-9.314,1.927-9.314
				c0,0,3.77,2.859,0.843,5.379c-2.891,2.489-8.251-3.361-2.208-6.744C92.648,26.398,94.307,27.855,95.563,29.674z"/>
			<path style="fill:#D8BFA0;" d="M111.906,33.399l-2.992-7.343c-0.345-0.845-1.241-1.327-2.136-1.148
				c-1.242,0.249-1.899,1.618-1.316,2.743c0.694,1.337,1.46,2.786,1.551,2.849C108.588,31.595,110.341,32.589,111.906,33.399
				L111.906,33.399z"/>
			<path style="fill:#D8BFA0;" d="M101.335,34.556c0,0,2.083-0.868,3.912-1.157C105.247,33.399,102.74,31.224,101.335,34.556z"/>
			<path style="fill:#D8BFA0;stroke:#D8BFA0;stroke-linecap:square;stroke-linejoin:bevel;stroke-miterlimit:10;" d="M69.044,83.196
				c0.602,6.985-1.512,10.775-1.512,10.775s0.831,0.01,2.229-0.061C70.511,88.704,69.044,83.196,69.044,83.196z"/>
			<path style="fill:#D8BFA0;stroke:#D8BFA0;stroke-linecap:square;stroke-linejoin:bevel;stroke-miterlimit:10;" d="M90.897,83.637
				c0,0-0.444,3.137-1.031,5.432c0.347-0.18,0.692-0.365,1.031-0.558C90.897,88.511,91.072,85.805,90.897,83.637z"/>
			<path style="fill:#D8BFA0;stroke:#D8BFA0;stroke-linecap:square;stroke-linejoin:bevel;stroke-miterlimit:10;" d="M99.515,39.116
				c0,0,2.83,3.794,3.493,4.697c0.662,0.903,5.072,2.787,5.072,2.787c0.401-2.569,0.642-3.452,0.642-3.452s-4.605-0.478-5.431-0.719
				C102.466,42.187,99.515,39.116,99.515,39.116z"/>
			<path style="fill:#D8BFA0;" d="M67.533,93.971c0,0-3.013,3.539-6.242,7.451c-0.801,1.759-1.957,3.562-3.588,4.593
				c0,0,1.284,9.314-3.132,18.065l3.452,3.693h3.212l-1.847-4.657c0,0,1.927-9.795,2.569-11.642
				c0.642-1.847,13.971-17.503,13.971-17.503s7.081,0.082,14.738-2.009c0.161-2.03,0.231-3.451,0.231-3.451
				C81.021,94.132,67.533,93.971,67.533,93.971z"/>
		</g>
	</g>
</g>
</svg>
